G04*
G04 #@! TF.GenerationSoftware,Altium Limited,Altium Designer,23.5.1 (21)*
G04*
G04 Layer_Color=65535*
%FSLAX44Y44*%
%MOMM*%
G71*
G04*
G04 #@! TF.SameCoordinates,8DBBECA3-F22B-4787-8F39-2E3879C6619A*
G04*
G04*
G04 #@! TF.FilePolarity,Positive*
G04*
G01*
G75*
%ADD10C,0.2500*%
%ADD11C,0.2540*%
%ADD12C,0.2000*%
%ADD13C,0.2032*%
%ADD14C,0.2286*%
%ADD15C,0.1270*%
%ADD16C,0.1778*%
%ADD17C,0.5080*%
G36*
X1301750Y850935D02*
X1301569D01*
X1285748Y866756D01*
X1301750Y867010D01*
Y850935D01*
D02*
G37*
G36*
X511185Y860769D02*
X511755D01*
Y860627D01*
X511898D01*
Y860484D01*
X512183D01*
Y860342D01*
X512468D01*
Y860199D01*
X512611D01*
Y860057D01*
X512753D01*
Y859914D01*
X512896D01*
Y859771D01*
X513038D01*
Y859486D01*
X513181D01*
Y859344D01*
X513324D01*
Y859059D01*
X513466D01*
Y858773D01*
X513609D01*
Y858203D01*
X513751D01*
Y850931D01*
X507050D01*
Y858346D01*
X507193D01*
Y858916D01*
X507335D01*
Y859201D01*
X507478D01*
Y859344D01*
X507621D01*
Y859629D01*
X507763D01*
Y859771D01*
X507906D01*
Y859914D01*
X508048D01*
Y860057D01*
X508191D01*
Y860199D01*
X508333D01*
Y860342D01*
X508476D01*
Y860484D01*
X508761D01*
Y860627D01*
X509046D01*
Y860769D01*
X509474D01*
Y860912D01*
X511185D01*
Y860769D01*
D02*
G37*
G36*
X499351D02*
X499921D01*
Y860627D01*
X500064D01*
Y860484D01*
X500349D01*
Y860342D01*
X500634D01*
Y860199D01*
X500777D01*
Y860057D01*
X500919D01*
Y859914D01*
X501062D01*
Y859771D01*
X501204D01*
Y859486D01*
X501347D01*
Y859344D01*
X501490D01*
Y859059D01*
X501632D01*
Y858773D01*
X501775D01*
Y858203D01*
X501917D01*
Y850931D01*
X495216D01*
Y851217D01*
Y851359D01*
Y858488D01*
X495359D01*
Y858916D01*
X495501D01*
Y859201D01*
X495644D01*
Y859486D01*
X495787D01*
Y859629D01*
X495929D01*
Y859771D01*
X496072D01*
Y859914D01*
X496214D01*
Y860057D01*
X496357D01*
Y860199D01*
X496499D01*
Y860342D01*
X496642D01*
Y860484D01*
X496927D01*
Y860627D01*
X497212D01*
Y860769D01*
X497640D01*
Y860912D01*
X499351D01*
Y860769D01*
D02*
G37*
G36*
X487517D02*
X487945D01*
Y860627D01*
X488230D01*
Y860484D01*
X488515D01*
Y860342D01*
X488658D01*
Y860199D01*
X488943D01*
Y860057D01*
X489085D01*
Y859914D01*
X489228D01*
Y859771D01*
X489370D01*
Y859486D01*
X489513D01*
Y859344D01*
X489656D01*
Y859059D01*
X489798D01*
Y858631D01*
X489941D01*
Y858203D01*
X490083D01*
Y852643D01*
Y852500D01*
Y850931D01*
X483382D01*
Y858488D01*
X483525D01*
Y858916D01*
X483667D01*
Y859201D01*
X483810D01*
Y859486D01*
X483953D01*
Y859629D01*
X484095D01*
Y859771D01*
X484238D01*
Y859914D01*
X484380D01*
Y860057D01*
X484523D01*
Y860199D01*
X484665D01*
Y860342D01*
X484808D01*
Y860484D01*
X485093D01*
Y860627D01*
X485378D01*
Y860769D01*
X485806D01*
Y860912D01*
X487517D01*
Y860769D01*
D02*
G37*
G36*
X475683D02*
X476111D01*
Y860627D01*
X476396D01*
Y860484D01*
X476681D01*
Y860342D01*
X476824D01*
Y860199D01*
X477109D01*
Y860057D01*
X477251D01*
Y859914D01*
X477394D01*
Y859629D01*
X477537D01*
Y859486D01*
X477679D01*
Y859344D01*
X477822D01*
Y859059D01*
X477964D01*
Y858631D01*
X478107D01*
Y858061D01*
X478249D01*
Y850931D01*
X471406D01*
Y857633D01*
X471548D01*
Y858488D01*
X471691D01*
Y858916D01*
X471833D01*
Y859201D01*
X471976D01*
Y859486D01*
X472119D01*
Y859629D01*
X472261D01*
Y859771D01*
X472404D01*
Y859914D01*
X472546D01*
Y860057D01*
X472689D01*
Y860199D01*
X472831D01*
Y860342D01*
X472974D01*
Y860484D01*
X473259D01*
Y860627D01*
X473544D01*
Y860769D01*
X473972D01*
Y860912D01*
X475683D01*
Y860769D01*
D02*
G37*
G36*
X463849D02*
X464277D01*
Y860627D01*
X464562D01*
Y860484D01*
X464847D01*
Y860342D01*
X464990D01*
Y860199D01*
X465275D01*
Y860057D01*
X465417D01*
Y859914D01*
X465560D01*
Y859629D01*
X465703D01*
Y859486D01*
X465845D01*
Y859344D01*
X465988D01*
Y859059D01*
X466130D01*
Y858631D01*
X466273D01*
Y857918D01*
X466415D01*
Y855066D01*
Y854924D01*
Y850931D01*
X459572D01*
Y857633D01*
X459714D01*
Y858488D01*
X459857D01*
Y858916D01*
X459999D01*
Y859201D01*
X460142D01*
Y859486D01*
X460285D01*
Y859629D01*
X460427D01*
Y859771D01*
X460570D01*
Y859914D01*
X460712D01*
Y860057D01*
X460855D01*
Y860199D01*
X460998D01*
Y860342D01*
X461140D01*
Y860484D01*
X461425D01*
Y860627D01*
X461710D01*
Y860769D01*
X462138D01*
Y860912D01*
X463849D01*
Y860769D01*
D02*
G37*
G36*
X452015D02*
X452443D01*
Y860627D01*
X452728D01*
Y860484D01*
X453013D01*
Y860342D01*
X453156D01*
Y860199D01*
X453298D01*
Y860057D01*
X453583D01*
Y859914D01*
X453726D01*
Y859629D01*
X453869D01*
Y859486D01*
X454011D01*
Y859201D01*
X454154D01*
Y859059D01*
X454296D01*
Y858631D01*
X454439D01*
Y857918D01*
X454581D01*
Y850931D01*
X447738D01*
Y851074D01*
Y857633D01*
X447880D01*
Y858488D01*
X448023D01*
Y858916D01*
X448165D01*
Y859201D01*
X448308D01*
Y859486D01*
X448451D01*
Y859629D01*
X448593D01*
Y859771D01*
X448736D01*
Y860057D01*
X449021D01*
Y860199D01*
X449164D01*
Y860342D01*
X449306D01*
Y860484D01*
X449591D01*
Y860627D01*
X449876D01*
Y860769D01*
X450304D01*
Y860912D01*
X452015D01*
Y860769D01*
D02*
G37*
G36*
X535851Y836531D02*
X536707D01*
Y836389D01*
X537134D01*
Y836246D01*
X537419D01*
Y836103D01*
X537705D01*
Y835961D01*
X537847D01*
Y835818D01*
X538132D01*
Y835676D01*
X538275D01*
Y835533D01*
X538417D01*
Y835248D01*
X538560D01*
Y835105D01*
X538703D01*
Y834820D01*
X538845D01*
Y834678D01*
X538988D01*
Y834250D01*
X539130D01*
Y833537D01*
X539273D01*
Y832967D01*
X539130D01*
Y832254D01*
X538988D01*
Y831826D01*
X538845D01*
Y831541D01*
X538703D01*
Y831256D01*
X538560D01*
Y831113D01*
X538417D01*
Y830971D01*
X538275D01*
Y830828D01*
X538132D01*
Y830686D01*
X537990D01*
Y830543D01*
X537847D01*
Y830400D01*
X537562D01*
Y830258D01*
X537277D01*
Y830115D01*
X536992D01*
Y829973D01*
X536279D01*
Y829830D01*
X529150D01*
Y836531D01*
X529292D01*
Y836674D01*
X535851D01*
Y836531D01*
D02*
G37*
G36*
X431199D02*
X431341D01*
Y829973D01*
X431199D01*
Y829830D01*
X424070D01*
Y829973D01*
X423499D01*
Y830115D01*
X423214D01*
Y830258D01*
X422929D01*
Y830400D01*
X422644D01*
Y830543D01*
X422501D01*
Y830686D01*
X422359D01*
Y830828D01*
X422216D01*
Y830971D01*
X422074D01*
Y831113D01*
X421931D01*
Y831256D01*
X421788D01*
Y831398D01*
X421646D01*
Y831684D01*
X421503D01*
Y831969D01*
X421361D01*
Y832539D01*
X421218D01*
Y833965D01*
X421361D01*
Y834392D01*
X421503D01*
Y834678D01*
X421646D01*
Y834963D01*
X421788D01*
Y835248D01*
X421931D01*
Y835390D01*
X422074D01*
Y835533D01*
X422216D01*
Y835676D01*
X422359D01*
Y835818D01*
X422501D01*
Y835961D01*
X422787D01*
Y836103D01*
X422929D01*
Y836246D01*
X423214D01*
Y836389D01*
X423642D01*
Y836531D01*
X424640D01*
Y836674D01*
X431199D01*
Y836531D01*
D02*
G37*
G36*
X536707Y824555D02*
X537134D01*
Y824412D01*
X537419D01*
Y824269D01*
X537705D01*
Y824127D01*
X537847D01*
Y823984D01*
X537990D01*
Y823842D01*
X538275D01*
Y823699D01*
X538417D01*
Y823414D01*
X538560D01*
Y823271D01*
X538703D01*
Y822986D01*
X538845D01*
Y822844D01*
X538988D01*
Y822416D01*
X539130D01*
Y821703D01*
X539273D01*
Y821133D01*
X539130D01*
Y820420D01*
X538988D01*
Y819992D01*
X538845D01*
Y819707D01*
X538703D01*
Y819422D01*
X538560D01*
Y819279D01*
X538417D01*
Y819137D01*
X538275D01*
Y818994D01*
X538132D01*
Y818851D01*
X537990D01*
Y818709D01*
X537847D01*
Y818566D01*
X537562D01*
Y818424D01*
X537277D01*
Y818281D01*
X536992D01*
Y818139D01*
X536421D01*
Y817996D01*
X529150D01*
Y824127D01*
Y824269D01*
Y824697D01*
X536707D01*
Y824555D01*
D02*
G37*
G36*
X431341Y818139D02*
X431199D01*
Y817996D01*
X424070D01*
Y818139D01*
X423499D01*
Y818281D01*
X423072D01*
Y818424D01*
X422929D01*
Y818566D01*
X422644D01*
Y818709D01*
X422501D01*
Y818851D01*
X422359D01*
Y818994D01*
X422216D01*
Y819137D01*
X422074D01*
Y819279D01*
X421931D01*
Y819422D01*
X421788D01*
Y819564D01*
X421646D01*
Y819849D01*
X421503D01*
Y820135D01*
X421361D01*
Y820705D01*
X421218D01*
Y822131D01*
X421361D01*
Y822559D01*
X421503D01*
Y822844D01*
X421646D01*
Y823129D01*
X421788D01*
Y823414D01*
X421931D01*
Y823557D01*
X422074D01*
Y823699D01*
X422216D01*
Y823842D01*
X422359D01*
Y823984D01*
X422501D01*
Y824127D01*
X422787D01*
Y824269D01*
X422929D01*
Y824412D01*
X423214D01*
Y824555D01*
X423642D01*
Y824697D01*
X431341D01*
Y818139D01*
D02*
G37*
G36*
X536707Y812721D02*
X537134D01*
Y812578D01*
X537419D01*
Y812436D01*
X537705D01*
Y812293D01*
X537847D01*
Y812150D01*
X537990D01*
Y812008D01*
X538275D01*
Y811865D01*
X538417D01*
Y811580D01*
X538560D01*
Y811437D01*
X538703D01*
Y811152D01*
X538845D01*
Y811010D01*
X538988D01*
Y810582D01*
X539130D01*
Y810012D01*
Y809869D01*
X539273D01*
Y809299D01*
X539130D01*
Y808586D01*
X538988D01*
Y808158D01*
X538845D01*
Y807873D01*
X538703D01*
Y807588D01*
X538560D01*
Y807445D01*
X538417D01*
Y807303D01*
X538275D01*
Y807160D01*
X538132D01*
Y807018D01*
X537990D01*
Y806875D01*
X537847D01*
Y806732D01*
X537562D01*
Y806590D01*
X537277D01*
Y806447D01*
X536992D01*
Y806305D01*
X536564D01*
Y806162D01*
X529150D01*
Y812863D01*
X536707D01*
Y812721D01*
D02*
G37*
G36*
X431341Y806305D02*
X431199D01*
Y806162D01*
X423927D01*
Y806305D01*
X423499D01*
Y806447D01*
X423072D01*
Y806590D01*
X422787D01*
Y806732D01*
X422644D01*
Y806875D01*
X422501D01*
Y807018D01*
X422216D01*
Y807160D01*
X422074D01*
Y807445D01*
X421931D01*
Y807588D01*
X421788D01*
Y807730D01*
X421646D01*
Y808016D01*
X421503D01*
Y808301D01*
X421361D01*
Y808871D01*
X421218D01*
Y810297D01*
X421361D01*
Y810724D01*
X421503D01*
Y811010D01*
X421646D01*
Y811295D01*
X421788D01*
Y811580D01*
X421931D01*
Y811723D01*
X422074D01*
Y811865D01*
X422216D01*
Y812008D01*
X422359D01*
Y812150D01*
X422501D01*
Y812293D01*
X422787D01*
Y812436D01*
X423072D01*
Y812578D01*
X423214D01*
Y812721D01*
X423785D01*
Y812863D01*
X431341D01*
Y806305D01*
D02*
G37*
G36*
X536707Y800887D02*
X537134D01*
Y800744D01*
X537419D01*
Y800602D01*
X537705D01*
Y800459D01*
X537847D01*
Y800316D01*
X537990D01*
Y800174D01*
X538275D01*
Y799889D01*
X538417D01*
Y799746D01*
X538560D01*
Y799603D01*
X538703D01*
Y799318D01*
X538845D01*
Y799033D01*
X538988D01*
Y798748D01*
X539130D01*
Y798035D01*
X539273D01*
Y797322D01*
X539130D01*
Y796752D01*
X538988D01*
Y796324D01*
X538845D01*
Y796039D01*
X538703D01*
Y795754D01*
X538560D01*
Y795611D01*
X538417D01*
Y795469D01*
X538275D01*
Y795326D01*
X538132D01*
Y795183D01*
X537990D01*
Y795041D01*
X537847D01*
Y794898D01*
X537562D01*
Y794756D01*
X537277D01*
Y794613D01*
X536992D01*
Y794471D01*
X536564D01*
Y794328D01*
X529150D01*
Y800602D01*
Y800744D01*
Y801029D01*
X536707D01*
Y800887D01*
D02*
G37*
G36*
X431341Y794471D02*
X431199D01*
Y794328D01*
X423927D01*
Y794471D01*
X423357D01*
Y794613D01*
X423072D01*
Y794756D01*
X422787D01*
Y794898D01*
X422644D01*
Y795041D01*
X422501D01*
Y795183D01*
X422216D01*
Y795326D01*
X422074D01*
Y795611D01*
X421931D01*
Y795754D01*
X421788D01*
Y795896D01*
X421646D01*
Y796182D01*
X421503D01*
Y796467D01*
X421361D01*
Y797037D01*
X421218D01*
Y798463D01*
X421361D01*
Y798891D01*
X421503D01*
Y799176D01*
X421646D01*
Y799461D01*
X421788D01*
Y799603D01*
X421931D01*
Y799889D01*
X422074D01*
Y800031D01*
X422216D01*
Y800174D01*
X422359D01*
Y800316D01*
X422501D01*
Y800459D01*
X422787D01*
Y800602D01*
X423072D01*
Y800744D01*
X423357D01*
Y800887D01*
X423785D01*
Y801029D01*
X431341D01*
Y794471D01*
D02*
G37*
G36*
X536707Y789053D02*
X537134D01*
Y788910D01*
X537419D01*
Y788767D01*
X537705D01*
Y788625D01*
X537847D01*
Y788482D01*
X537990D01*
Y788340D01*
X538275D01*
Y788055D01*
X538417D01*
Y787912D01*
X538560D01*
Y787769D01*
X538703D01*
Y787484D01*
X538845D01*
Y787199D01*
X538988D01*
Y786914D01*
X539130D01*
Y786201D01*
X539273D01*
Y785488D01*
X539130D01*
Y784775D01*
X538988D01*
Y784490D01*
X538845D01*
Y784205D01*
X538703D01*
Y783920D01*
X538560D01*
Y783777D01*
X538417D01*
Y783635D01*
X538275D01*
Y783492D01*
X538132D01*
Y783350D01*
X537990D01*
Y783207D01*
X537847D01*
Y783064D01*
X537562D01*
Y782922D01*
X537277D01*
Y782779D01*
X536992D01*
Y782637D01*
X536564D01*
Y782494D01*
X529150D01*
Y789195D01*
X536707D01*
Y789053D01*
D02*
G37*
G36*
X431341Y782637D02*
X431199D01*
Y782494D01*
X423927D01*
Y782637D01*
X423357D01*
Y782779D01*
X423072D01*
Y782922D01*
X422787D01*
Y783064D01*
X422644D01*
Y783207D01*
X422501D01*
Y783350D01*
X422216D01*
Y783492D01*
X422074D01*
Y783777D01*
X421931D01*
Y783920D01*
X421788D01*
Y784062D01*
X421646D01*
Y784348D01*
X421503D01*
Y784633D01*
X421361D01*
Y785203D01*
X421218D01*
Y786629D01*
X421361D01*
Y787057D01*
X421503D01*
Y787342D01*
X421646D01*
Y787627D01*
X421788D01*
Y787769D01*
X421931D01*
Y788055D01*
X422074D01*
Y788197D01*
X422216D01*
Y788340D01*
X422359D01*
Y788482D01*
X422644D01*
Y788625D01*
X422787D01*
Y788767D01*
X423072D01*
Y788910D01*
X423357D01*
Y789053D01*
X423785D01*
Y789195D01*
X431341D01*
Y782637D01*
D02*
G37*
G36*
X536564Y777219D02*
X537134D01*
Y777076D01*
X537419D01*
Y776934D01*
X537705D01*
Y776791D01*
X537847D01*
Y776648D01*
X537990D01*
Y776506D01*
X538132D01*
Y776363D01*
X538275D01*
Y776221D01*
X538417D01*
Y776078D01*
X538560D01*
Y775936D01*
X538703D01*
Y775650D01*
X538845D01*
Y775365D01*
X538988D01*
Y775080D01*
X539130D01*
Y774367D01*
X539273D01*
Y773797D01*
Y773654D01*
X539130D01*
Y772941D01*
X538988D01*
Y772656D01*
X538845D01*
Y772371D01*
X538703D01*
Y772086D01*
X538560D01*
Y771943D01*
X538417D01*
Y771801D01*
X538275D01*
Y771658D01*
X538132D01*
Y771516D01*
X537990D01*
Y771373D01*
X537847D01*
Y771230D01*
X537562D01*
Y771088D01*
X537419D01*
Y770945D01*
X536992D01*
Y770803D01*
X536564D01*
Y770660D01*
X529150D01*
Y777361D01*
X536564D01*
Y777219D01*
D02*
G37*
G36*
X431341Y774367D02*
Y774224D01*
Y770803D01*
X431199D01*
Y770660D01*
X423927D01*
Y770803D01*
X423357D01*
Y770945D01*
X423072D01*
Y771088D01*
X422787D01*
Y771230D01*
X422644D01*
Y771373D01*
X422501D01*
Y771516D01*
X422216D01*
Y771658D01*
X422074D01*
Y771943D01*
X421931D01*
Y772086D01*
X421788D01*
Y772228D01*
X421646D01*
Y772514D01*
X421503D01*
Y772799D01*
X421361D01*
Y773226D01*
X421218D01*
Y774795D01*
X421361D01*
Y775223D01*
X421503D01*
Y775508D01*
X421646D01*
Y775793D01*
X421788D01*
Y775936D01*
X421931D01*
Y776221D01*
X422074D01*
Y776363D01*
X422216D01*
Y776506D01*
X422359D01*
Y776648D01*
X422644D01*
Y776791D01*
X422787D01*
Y776934D01*
X423072D01*
Y777076D01*
X423357D01*
Y777219D01*
X423785D01*
Y777361D01*
X431341D01*
Y774367D01*
D02*
G37*
G36*
X521023Y847652D02*
X521878D01*
Y847510D01*
X522306D01*
Y847367D01*
X522591D01*
Y847225D01*
X522876D01*
Y847082D01*
X523162D01*
Y846939D01*
X523304D01*
Y846797D01*
X523447D01*
Y846654D01*
X523589D01*
Y846512D01*
X523874D01*
Y846227D01*
X524017D01*
Y846084D01*
X524160D01*
Y845941D01*
X524302D01*
Y845799D01*
X524445D01*
Y845514D01*
X524587D01*
Y845228D01*
X524730D01*
Y844943D01*
X524873D01*
Y844516D01*
X525015D01*
Y843660D01*
X525158D01*
Y827406D01*
X525728D01*
Y827264D01*
X526013D01*
Y827121D01*
X526298D01*
Y826978D01*
X526583D01*
Y826836D01*
X526726D01*
Y826693D01*
X526869D01*
Y826551D01*
X527154D01*
Y826408D01*
X527296D01*
Y826266D01*
X527439D01*
Y825980D01*
X527581D01*
Y825838D01*
X527724D01*
Y825553D01*
X527867D01*
Y825125D01*
X528009D01*
Y824412D01*
X528152D01*
Y822844D01*
X528009D01*
Y822131D01*
X527867D01*
Y821703D01*
X527724D01*
Y821561D01*
X527581D01*
Y821275D01*
X527439D01*
Y821133D01*
X527296D01*
Y820990D01*
X527154D01*
Y820848D01*
X527011D01*
Y820705D01*
X526726D01*
Y820562D01*
X526583D01*
Y820420D01*
X526441D01*
Y820277D01*
X526156D01*
Y820135D01*
X526013D01*
Y819992D01*
X525871D01*
Y819849D01*
X525728D01*
Y819707D01*
X525585D01*
Y819564D01*
X525443D01*
Y819422D01*
X525300D01*
Y819279D01*
X525158D01*
Y762533D01*
X525015D01*
Y761678D01*
X524873D01*
Y761250D01*
X524730D01*
Y760822D01*
X524587D01*
Y760680D01*
X524445D01*
Y760395D01*
X524302D01*
Y760109D01*
X524160D01*
Y759967D01*
X524017D01*
Y759824D01*
X523874D01*
Y759682D01*
X523732D01*
Y759539D01*
X523589D01*
Y759396D01*
X523447D01*
Y759254D01*
X523162D01*
Y759111D01*
X523019D01*
Y758969D01*
X522734D01*
Y758826D01*
X522449D01*
Y758683D01*
X522164D01*
Y758541D01*
X521736D01*
Y758398D01*
X508191D01*
Y758113D01*
X501490D01*
Y758398D01*
X439183D01*
Y758541D01*
X438613D01*
Y758683D01*
X438328D01*
Y758826D01*
X438042D01*
Y758969D01*
X437757D01*
Y759111D01*
X437615D01*
Y759254D01*
X437472D01*
Y759396D01*
X437187D01*
Y759539D01*
X437044D01*
Y759682D01*
X436902D01*
Y759824D01*
X436759D01*
Y760109D01*
X436617D01*
Y760252D01*
X436474D01*
Y760395D01*
X436331D01*
Y760680D01*
X436189D01*
Y760965D01*
X436046D01*
Y761250D01*
X435904D01*
Y761820D01*
X435761D01*
Y762818D01*
X435619D01*
Y818424D01*
X435476D01*
Y818851D01*
X435333D01*
Y819137D01*
X435191D01*
Y819279D01*
X435048D01*
Y819564D01*
X434906D01*
Y819707D01*
X434763D01*
Y819849D01*
X434621D01*
Y819992D01*
X434478D01*
Y820135D01*
X434335D01*
Y820277D01*
X434050D01*
Y820420D01*
X433908D01*
Y820562D01*
X433623D01*
Y820705D01*
X433480D01*
Y820848D01*
X433337D01*
Y820990D01*
X433195D01*
Y821133D01*
X433052D01*
Y821275D01*
X432910D01*
Y821418D01*
X432767D01*
Y821703D01*
X432624D01*
Y821988D01*
X432482D01*
Y822559D01*
X432339D01*
Y824840D01*
X432482D01*
Y825410D01*
X432624D01*
Y825695D01*
X432767D01*
Y825838D01*
X432910D01*
Y826123D01*
X433052D01*
Y826266D01*
X433195D01*
Y826408D01*
X433337D01*
Y826551D01*
X433480D01*
Y826693D01*
X433765D01*
Y826836D01*
X433908D01*
Y826978D01*
X434193D01*
Y827121D01*
X434478D01*
Y827264D01*
X434763D01*
Y827406D01*
X435191D01*
Y827549D01*
X435619D01*
Y843232D01*
X435761D01*
Y844373D01*
X435904D01*
Y844801D01*
X436046D01*
Y845086D01*
X436189D01*
Y845371D01*
X436331D01*
Y845656D01*
X436474D01*
Y845941D01*
X436617D01*
Y846084D01*
X436759D01*
Y846227D01*
X436902D01*
Y846369D01*
X437044D01*
Y846512D01*
X437187D01*
Y846654D01*
X437329D01*
Y846797D01*
X437472D01*
Y846939D01*
X437757D01*
Y847082D01*
X437900D01*
Y847225D01*
X438185D01*
Y847367D01*
X438470D01*
Y847510D01*
X439040D01*
Y847652D01*
X439753D01*
Y847795D01*
X521023D01*
Y847652D01*
D02*
G37*
G36*
X513751Y746850D02*
X513609D01*
Y746279D01*
X513466D01*
Y745994D01*
X513324D01*
Y745709D01*
X513181D01*
Y745424D01*
X513038D01*
Y745281D01*
X512896D01*
Y745139D01*
X512753D01*
Y744996D01*
X512611D01*
Y744854D01*
X512468D01*
Y744711D01*
X512326D01*
Y744568D01*
X512040D01*
Y744426D01*
X511755D01*
Y744283D01*
X511328D01*
Y744140D01*
X510615D01*
Y743998D01*
X510187D01*
Y744140D01*
X509332D01*
Y744283D01*
X509046D01*
Y744426D01*
X508761D01*
Y744568D01*
X508476D01*
Y744711D01*
X508333D01*
Y744854D01*
X508191D01*
Y744996D01*
X507906D01*
Y745281D01*
X507763D01*
Y745424D01*
X507621D01*
Y745566D01*
X507478D01*
Y745852D01*
X507335D01*
Y746137D01*
X507193D01*
Y746564D01*
X507050D01*
Y754121D01*
X513751D01*
Y746850D01*
D02*
G37*
G36*
X501917D02*
X501775D01*
Y746279D01*
X501632D01*
Y745994D01*
X501490D01*
Y745709D01*
X501347D01*
Y745424D01*
X501204D01*
Y745281D01*
X501062D01*
Y745139D01*
X500919D01*
Y744996D01*
X500777D01*
Y744854D01*
X500634D01*
Y744711D01*
X500492D01*
Y744568D01*
X500206D01*
Y744426D01*
X499921D01*
Y744283D01*
X499494D01*
Y744140D01*
X498781D01*
Y743998D01*
X498353D01*
Y744140D01*
X497497D01*
Y744283D01*
X497212D01*
Y744426D01*
X496927D01*
Y744568D01*
X496642D01*
Y744711D01*
X496499D01*
Y744854D01*
X496357D01*
Y744996D01*
X496072D01*
Y745281D01*
X495929D01*
Y745424D01*
X495787D01*
Y745566D01*
X495644D01*
Y745852D01*
X495501D01*
Y746137D01*
X495359D01*
Y746564D01*
X495216D01*
Y754121D01*
X501917D01*
Y746850D01*
D02*
G37*
G36*
X490083D02*
X489941D01*
Y746279D01*
X489798D01*
Y745994D01*
X489656D01*
Y745709D01*
X489513D01*
Y745424D01*
X489370D01*
Y745281D01*
X489228D01*
Y745139D01*
X489085D01*
Y744996D01*
X488943D01*
Y744854D01*
X488800D01*
Y744711D01*
X488658D01*
Y744568D01*
X488372D01*
Y744426D01*
X488087D01*
Y744283D01*
X487660D01*
Y744140D01*
X486947D01*
Y743998D01*
X486519D01*
Y744140D01*
X485663D01*
Y744283D01*
X485378D01*
Y744426D01*
X485093D01*
Y744568D01*
X484808D01*
Y744711D01*
X484665D01*
Y744854D01*
X484523D01*
Y744996D01*
X484238D01*
Y745281D01*
X484095D01*
Y745424D01*
X483953D01*
Y745566D01*
X483810D01*
Y745852D01*
X483667D01*
Y746137D01*
X483525D01*
Y746564D01*
X483382D01*
Y754121D01*
X490083D01*
Y746850D01*
D02*
G37*
G36*
X478249Y746992D02*
X478107D01*
Y746279D01*
X477964D01*
Y745994D01*
X477822D01*
Y745709D01*
X477679D01*
Y745424D01*
X477537D01*
Y745281D01*
X477394D01*
Y745139D01*
X477251D01*
Y744996D01*
X477109D01*
Y744854D01*
X476966D01*
Y744711D01*
X476681D01*
Y744568D01*
X476539D01*
Y744426D01*
X476253D01*
Y744283D01*
X475826D01*
Y744140D01*
X475113D01*
Y743998D01*
X474685D01*
Y744140D01*
X473829D01*
Y744283D01*
X473402D01*
Y744426D01*
X473259D01*
Y744568D01*
X472974D01*
Y744711D01*
X472831D01*
Y744854D01*
X472546D01*
Y744996D01*
X472404D01*
Y745281D01*
X472261D01*
Y745424D01*
X472119D01*
Y745566D01*
X471976D01*
Y745852D01*
X471833D01*
Y746137D01*
X471691D01*
Y746564D01*
X471548D01*
Y747420D01*
X471406D01*
Y753979D01*
X471548D01*
Y754121D01*
X478249D01*
Y746992D01*
D02*
G37*
G36*
X466415D02*
X466273D01*
Y746422D01*
X466130D01*
Y745994D01*
X465988D01*
Y745709D01*
X465845D01*
Y745566D01*
X465703D01*
Y745281D01*
X465560D01*
Y745139D01*
X465417D01*
Y744996D01*
X465275D01*
Y744854D01*
X465132D01*
Y744711D01*
X464847D01*
Y744568D01*
X464705D01*
Y744426D01*
X464419D01*
Y744283D01*
X463992D01*
Y744140D01*
X463279D01*
Y743998D01*
X462851D01*
Y744140D01*
X461996D01*
Y744283D01*
X461568D01*
Y744426D01*
X461425D01*
Y744568D01*
X461140D01*
Y744711D01*
X460998D01*
Y744854D01*
X460712D01*
Y744996D01*
X460570D01*
Y745139D01*
X460427D01*
Y745424D01*
X460285D01*
Y745566D01*
X460142D01*
Y745852D01*
X459999D01*
Y746137D01*
X459857D01*
Y746422D01*
X459714D01*
Y747420D01*
X459572D01*
Y753979D01*
X459714D01*
Y754121D01*
X466415D01*
Y746992D01*
D02*
G37*
G36*
X454581Y747135D02*
X454439D01*
Y746422D01*
X454296D01*
Y745994D01*
X454154D01*
Y745852D01*
Y745709D01*
X454011D01*
Y745566D01*
X453869D01*
Y745281D01*
X453726D01*
Y745139D01*
X453583D01*
Y744996D01*
X453441D01*
Y744854D01*
X453298D01*
Y744711D01*
X453013D01*
Y744568D01*
X452870D01*
Y744426D01*
X452585D01*
Y744283D01*
X452158D01*
Y744140D01*
X451445D01*
Y743998D01*
X450874D01*
Y744140D01*
X450162D01*
Y744283D01*
X449734D01*
Y744426D01*
X449591D01*
Y744568D01*
X449306D01*
Y744711D01*
X449164D01*
Y744854D01*
X448878D01*
Y744996D01*
X448736D01*
Y745139D01*
X448593D01*
Y745424D01*
X448451D01*
Y745566D01*
X448308D01*
Y745852D01*
X448165D01*
Y746137D01*
X448023D01*
Y746422D01*
X447880D01*
Y747420D01*
X447738D01*
Y753979D01*
X447880D01*
Y754121D01*
X454581D01*
Y747135D01*
D02*
G37*
G36*
X690372Y4464D02*
X674370Y4210D01*
Y20285D01*
X674551D01*
X690372Y4464D01*
D02*
G37*
%LPC*%
G36*
X517173Y841236D02*
X443603D01*
Y841094D01*
X443318D01*
Y840951D01*
X443033D01*
Y840808D01*
X442890D01*
Y840666D01*
X442747D01*
Y840523D01*
X442605D01*
Y840381D01*
X442462D01*
Y840096D01*
X442320D01*
Y839525D01*
X442177D01*
Y828689D01*
X442462D01*
Y828832D01*
X443603D01*
Y828975D01*
X444886D01*
Y829117D01*
X446455D01*
Y829260D01*
X448023D01*
Y829402D01*
X450019D01*
Y829545D01*
X452585D01*
Y829687D01*
X459001D01*
Y829545D01*
X460855D01*
Y829402D01*
X462138D01*
Y829260D01*
X463279D01*
Y829117D01*
X464277D01*
Y828975D01*
X465132D01*
Y828832D01*
X465988D01*
Y828689D01*
X466843D01*
Y828547D01*
X467699D01*
Y828404D01*
X468554D01*
Y828262D01*
X469267D01*
Y828119D01*
X470122D01*
Y827977D01*
X470835D01*
Y827834D01*
X471691D01*
Y827691D01*
X472404D01*
Y827549D01*
X473259D01*
Y827406D01*
X473972D01*
Y827264D01*
X474828D01*
Y827121D01*
X475683D01*
Y826978D01*
X476681D01*
Y826836D01*
X477679D01*
Y826693D01*
X478962D01*
Y826551D01*
X481244D01*
Y826693D01*
X482812D01*
Y826836D01*
X483810D01*
Y826978D01*
X484808D01*
Y827121D01*
X485663D01*
Y827264D01*
X486376D01*
Y827406D01*
X487232D01*
Y827549D01*
X488087D01*
Y827691D01*
X488800D01*
Y827834D01*
X489513D01*
Y827977D01*
X490369D01*
Y828119D01*
X491082D01*
Y828262D01*
X491937D01*
Y828404D01*
X492650D01*
Y828547D01*
X493505D01*
Y828689D01*
X494361D01*
Y828832D01*
X495216D01*
Y828975D01*
X496214D01*
Y829117D01*
X497212D01*
Y829260D01*
X498353D01*
Y829402D01*
X499779D01*
Y829545D01*
X501632D01*
Y829687D01*
X507763D01*
Y829545D01*
X510472D01*
Y829402D01*
X512326D01*
Y829260D01*
X514036D01*
Y829117D01*
X515462D01*
Y828975D01*
X516888D01*
Y828832D01*
X518029D01*
Y828689D01*
X518599D01*
Y839810D01*
X518456D01*
Y840238D01*
X518314D01*
Y840381D01*
X518171D01*
Y840666D01*
X518029D01*
Y840808D01*
X517744D01*
Y840951D01*
X517601D01*
Y841094D01*
X517173D01*
Y841236D01*
D02*
G37*
G36*
X507763Y825125D02*
X501204D01*
Y824982D01*
X498638D01*
Y824840D01*
X497212D01*
Y824697D01*
X496072D01*
Y824555D01*
X495216D01*
Y824412D01*
X494646D01*
Y824269D01*
X494076D01*
Y824127D01*
X493505D01*
Y823984D01*
X493078D01*
Y823842D01*
X492792D01*
Y823699D01*
X492365D01*
Y823557D01*
X492080D01*
Y823414D01*
X491794D01*
Y823271D01*
X491509D01*
Y823129D01*
X491367D01*
Y822986D01*
X491082D01*
Y822844D01*
X490939D01*
Y822701D01*
X490796D01*
Y822559D01*
X490511D01*
Y822416D01*
X490369D01*
Y822273D01*
X490226D01*
Y822131D01*
X490083D01*
Y821846D01*
X489941D01*
Y821703D01*
X489798D01*
Y821418D01*
X489656D01*
Y821275D01*
X489513D01*
Y820990D01*
X489370D01*
Y820562D01*
X489228D01*
Y820277D01*
X489085D01*
Y819849D01*
X488943D01*
Y819279D01*
X488800D01*
Y818566D01*
X488658D01*
Y817568D01*
X488515D01*
Y812863D01*
X488658D01*
Y811723D01*
X488800D01*
Y811010D01*
X488943D01*
Y810439D01*
X489085D01*
Y809869D01*
X489228D01*
Y809441D01*
X489370D01*
Y809014D01*
X489513D01*
Y808586D01*
X489656D01*
Y808301D01*
X489798D01*
Y808016D01*
X489941D01*
Y807730D01*
X490083D01*
Y807445D01*
X490226D01*
Y807160D01*
X490369D01*
Y806875D01*
X490511D01*
Y806732D01*
X490654D01*
Y806447D01*
X490796D01*
Y806305D01*
X490939D01*
Y806162D01*
X491082D01*
Y805877D01*
X491224D01*
Y805734D01*
X491367D01*
Y805592D01*
X491509D01*
Y805449D01*
X491652D01*
Y805307D01*
X491794D01*
Y805164D01*
X491937D01*
Y805021D01*
X492080D01*
Y804879D01*
X492222D01*
Y804736D01*
X492365D01*
Y804594D01*
X492507D01*
Y804451D01*
X492650D01*
Y804308D01*
X492792D01*
Y804166D01*
X493078D01*
Y804023D01*
X493220D01*
Y803881D01*
X493505D01*
Y803738D01*
X493648D01*
Y803596D01*
X493933D01*
Y803453D01*
X494218D01*
Y803310D01*
X494361D01*
Y803168D01*
X494646D01*
Y803025D01*
X494931D01*
Y802883D01*
X495359D01*
Y802740D01*
X495644D01*
Y802598D01*
X496072D01*
Y802455D01*
X496499D01*
Y802312D01*
X496927D01*
Y802170D01*
X497497D01*
Y802027D01*
X498068D01*
Y801885D01*
X498781D01*
Y801742D01*
X499779D01*
Y801600D01*
X501490D01*
Y801457D01*
X503771D01*
Y801600D01*
X506195D01*
Y801742D01*
X507621D01*
Y801885D01*
X508761D01*
Y802027D01*
X509474D01*
Y802170D01*
X510187D01*
Y802312D01*
X510757D01*
Y802455D01*
X511185D01*
Y802598D01*
X511613D01*
Y802740D01*
X512040D01*
Y802883D01*
X512468D01*
Y803025D01*
X512753D01*
Y803168D01*
X513181D01*
Y803310D01*
X513466D01*
Y803453D01*
X513751D01*
Y803596D01*
X514036D01*
Y803738D01*
X514322D01*
Y803881D01*
X514464D01*
Y804023D01*
X514749D01*
Y804166D01*
X515035D01*
Y804308D01*
X515177D01*
Y804451D01*
X515462D01*
Y804594D01*
X515605D01*
Y804736D01*
X515747D01*
Y804879D01*
X516033D01*
Y805021D01*
X516175D01*
Y805164D01*
X516318D01*
Y805307D01*
X516460D01*
Y805449D01*
X516603D01*
Y805592D01*
X516745D01*
Y805734D01*
X516888D01*
Y805877D01*
X517031D01*
Y806019D01*
X517173D01*
Y806162D01*
X517316D01*
Y806305D01*
X517458D01*
Y806590D01*
X517601D01*
Y806732D01*
X517744D01*
Y807018D01*
X517886D01*
Y807160D01*
X518029D01*
Y807445D01*
X518171D01*
Y807588D01*
X518314D01*
Y807873D01*
X518456D01*
Y808158D01*
X518599D01*
Y822559D01*
X518456D01*
Y822701D01*
X518314D01*
Y822844D01*
X518171D01*
Y822986D01*
X517886D01*
Y823129D01*
X517744D01*
Y823271D01*
X517601D01*
Y823414D01*
X517316D01*
Y823557D01*
X517031D01*
Y823699D01*
X516745D01*
Y823842D01*
X516460D01*
Y823984D01*
X516033D01*
Y824127D01*
X515605D01*
Y824269D01*
X515035D01*
Y824412D01*
X514464D01*
Y824555D01*
X513609D01*
Y824697D01*
X512611D01*
Y824840D01*
X510900D01*
Y824982D01*
X507763D01*
Y825125D01*
D02*
G37*
G36*
X455722D02*
X453441D01*
Y824982D01*
X448593D01*
Y824840D01*
X447453D01*
Y824697D01*
X446740D01*
Y824555D01*
X446027D01*
Y824412D01*
X445457D01*
Y824269D01*
X445029D01*
Y824127D01*
X444601D01*
Y823984D01*
X444173D01*
Y823842D01*
X443745D01*
Y823699D01*
X443460D01*
Y823557D01*
X443175D01*
Y823414D01*
X443033D01*
Y823271D01*
X442747D01*
Y823129D01*
X442605D01*
Y822986D01*
X442320D01*
Y822701D01*
X442177D01*
Y807588D01*
X442320D01*
Y807303D01*
X442462D01*
Y807018D01*
X442605D01*
Y806875D01*
X442747D01*
Y806732D01*
X442890D01*
Y806447D01*
X443033D01*
Y806305D01*
X443175D01*
Y806162D01*
X443318D01*
Y806019D01*
X443460D01*
Y805877D01*
X443603D01*
Y805734D01*
X443745D01*
Y805449D01*
X443888D01*
Y805307D01*
X444173D01*
Y805164D01*
X444316D01*
Y805021D01*
X444458D01*
Y804879D01*
X444601D01*
Y804736D01*
X444744D01*
Y804594D01*
X445029D01*
Y804451D01*
X445171D01*
Y804308D01*
X445457D01*
Y804166D01*
X445599D01*
Y804023D01*
X445884D01*
Y803881D01*
X446169D01*
Y803738D01*
X446455D01*
Y803596D01*
X446597D01*
Y803453D01*
X446882D01*
Y803310D01*
X447167D01*
Y803168D01*
X447453D01*
Y803025D01*
X447738D01*
Y802883D01*
X447880D01*
Y802740D01*
X448308D01*
Y802598D01*
X448593D01*
Y802455D01*
X448878D01*
Y802312D01*
X449449D01*
Y802170D01*
X449876D01*
Y802027D01*
X450447D01*
Y801885D01*
X451445D01*
Y801742D01*
X453869D01*
Y801600D01*
X456578D01*
Y801457D01*
X458431D01*
Y801600D01*
X460570D01*
Y801742D01*
X461710D01*
Y801885D01*
X462423D01*
Y802027D01*
X462994D01*
Y802170D01*
X463564D01*
Y802312D01*
X463992D01*
Y802455D01*
X464419D01*
Y802598D01*
X464705D01*
Y802740D01*
X464990D01*
Y802883D01*
X465417D01*
Y803025D01*
X465703D01*
Y803168D01*
X465988D01*
Y803310D01*
X466273D01*
Y803453D01*
X466558D01*
Y803596D01*
X466701D01*
Y803738D01*
X466986D01*
Y803881D01*
X467128D01*
Y804023D01*
X467413D01*
Y804166D01*
X467556D01*
Y804308D01*
X467699D01*
Y804451D01*
X467984D01*
Y804594D01*
X468126D01*
Y804736D01*
X468269D01*
Y804879D01*
X468412D01*
Y805021D01*
X468554D01*
Y805164D01*
X468697D01*
Y805307D01*
X468839D01*
Y805449D01*
X468982D01*
Y805592D01*
X469124D01*
Y805734D01*
X469267D01*
Y806019D01*
X469410D01*
Y806162D01*
X469552D01*
Y806305D01*
X469695D01*
Y806590D01*
X469837D01*
Y806732D01*
X469980D01*
Y807018D01*
X470122D01*
Y807303D01*
X470265D01*
Y807445D01*
X470408D01*
Y807730D01*
X470550D01*
Y808016D01*
X470693D01*
Y808443D01*
X470835D01*
Y808728D01*
X470978D01*
Y809156D01*
X471120D01*
Y809584D01*
X471263D01*
Y810012D01*
X471406D01*
Y810582D01*
X471548D01*
Y811152D01*
X471691D01*
Y812008D01*
X471833D01*
Y813148D01*
X471976D01*
Y817283D01*
X471833D01*
Y818424D01*
X471691D01*
Y819137D01*
X471548D01*
Y819707D01*
X471406D01*
Y820135D01*
X471263D01*
Y820562D01*
X471120D01*
Y820848D01*
X470978D01*
Y821133D01*
X470835D01*
Y821418D01*
X470693D01*
Y821561D01*
X470550D01*
Y821846D01*
X470408D01*
Y821988D01*
X470265D01*
Y822131D01*
X470122D01*
Y822273D01*
X469980D01*
Y822416D01*
X469837D01*
Y822559D01*
X469695D01*
Y822701D01*
X469552D01*
Y822844D01*
X469410D01*
Y822986D01*
X469124D01*
Y823129D01*
X468839D01*
Y823271D01*
X468697D01*
Y823414D01*
X468412D01*
Y823557D01*
X468126D01*
Y823699D01*
X467699D01*
Y823842D01*
X467413D01*
Y823984D01*
X466986D01*
Y824127D01*
X466415D01*
Y824269D01*
X465845D01*
Y824412D01*
X465275D01*
Y824555D01*
X464562D01*
Y824697D01*
X463564D01*
Y824840D01*
X461996D01*
Y824982D01*
X455722D01*
Y825125D01*
D02*
G37*
G36*
X481101Y820135D02*
X479533D01*
Y819992D01*
X479105D01*
Y819849D01*
X478820D01*
Y819707D01*
X478677D01*
Y819564D01*
X478535D01*
Y819422D01*
X478392D01*
Y819279D01*
X478249D01*
Y819137D01*
X478107D01*
Y818994D01*
X477964D01*
Y818851D01*
X477822D01*
Y818566D01*
X477679D01*
Y818281D01*
X477537D01*
Y817996D01*
X477394D01*
Y817568D01*
X477251D01*
Y816998D01*
X477109D01*
Y816428D01*
X476966D01*
Y815715D01*
X476824D01*
Y814859D01*
X476681D01*
Y813576D01*
X476539D01*
Y811865D01*
X476396D01*
Y810582D01*
X476253D01*
Y809584D01*
X476111D01*
Y808871D01*
X475968D01*
Y808158D01*
X475826D01*
Y807730D01*
X475683D01*
Y807303D01*
X475541D01*
Y806732D01*
X475398D01*
Y806447D01*
X475255D01*
Y806019D01*
X475113D01*
Y805734D01*
X474970D01*
Y805449D01*
X474828D01*
Y805021D01*
X474685D01*
Y804736D01*
X474542D01*
Y804451D01*
X474400D01*
Y804308D01*
X474257D01*
Y804023D01*
X474115D01*
Y803738D01*
X473972D01*
Y803596D01*
X473829D01*
Y803310D01*
X473687D01*
Y803168D01*
X473544D01*
Y802883D01*
X473402D01*
Y802740D01*
X473259D01*
Y802598D01*
X473117D01*
Y802455D01*
X472974D01*
Y802170D01*
X472831D01*
Y802027D01*
X472689D01*
Y801885D01*
X472546D01*
Y801742D01*
X472404D01*
Y801600D01*
X472261D01*
Y801457D01*
X472119D01*
Y801314D01*
X471976D01*
Y801172D01*
X471833D01*
Y801029D01*
X471691D01*
Y800887D01*
X471406D01*
Y800744D01*
X471263D01*
Y800602D01*
X471120D01*
Y800459D01*
X470978D01*
Y800316D01*
X470693D01*
Y800174D01*
X470550D01*
Y800031D01*
X470265D01*
Y799889D01*
X470122D01*
Y799746D01*
X469837D01*
Y799603D01*
X469552D01*
Y799461D01*
X469410D01*
Y799318D01*
X469124D01*
Y799176D01*
X468839D01*
Y799033D01*
X468554D01*
Y798891D01*
X468126D01*
Y798748D01*
X467841D01*
Y798605D01*
X467556D01*
Y798463D01*
X467128D01*
Y798320D01*
X466701D01*
Y798178D01*
X466273D01*
Y798035D01*
X465845D01*
Y797893D01*
X465275D01*
Y797750D01*
X464705D01*
Y797607D01*
X463992D01*
Y797465D01*
X463136D01*
Y797322D01*
X462138D01*
Y797180D01*
X460570D01*
Y797037D01*
X455009D01*
Y797180D01*
X453156D01*
Y797322D01*
X451872D01*
Y797465D01*
X451017D01*
Y797607D01*
X450162D01*
Y797750D01*
X449449D01*
Y797893D01*
X448736D01*
Y798035D01*
X448165D01*
Y798178D01*
X447738D01*
Y798320D01*
X447167D01*
Y798463D01*
X446740D01*
Y798605D01*
X446312D01*
Y798748D01*
X446027D01*
Y798891D01*
X445599D01*
Y799033D01*
X445171D01*
Y799176D01*
X444886D01*
Y799318D01*
X444601D01*
Y799461D01*
X444316D01*
Y799603D01*
X444031D01*
Y799746D01*
X443745D01*
Y799889D01*
X443460D01*
Y800031D01*
X443175D01*
Y800174D01*
X443033D01*
Y800316D01*
X442747D01*
Y800459D01*
X442605D01*
Y800602D01*
X442320D01*
Y800744D01*
X442177D01*
Y766668D01*
X442320D01*
Y765955D01*
X442462D01*
Y765670D01*
X442605D01*
Y765527D01*
X442747D01*
Y765385D01*
X442890D01*
Y765242D01*
X443175D01*
Y765099D01*
X443318D01*
Y764957D01*
X517458D01*
Y765099D01*
X517744D01*
Y765242D01*
X517886D01*
Y765385D01*
X518029D01*
Y765527D01*
X518171D01*
Y765670D01*
X518314D01*
Y765955D01*
X518456D01*
Y766383D01*
X518599D01*
Y801029D01*
X518456D01*
Y800887D01*
X518314D01*
Y800744D01*
X518171D01*
Y800602D01*
X517886D01*
Y800459D01*
X517744D01*
Y800316D01*
X517458D01*
Y800174D01*
X517173D01*
Y800031D01*
X516888D01*
Y799889D01*
X516745D01*
Y799746D01*
X516460D01*
Y799603D01*
X516175D01*
Y799461D01*
X515890D01*
Y799318D01*
X515605D01*
Y799176D01*
X515177D01*
Y799033D01*
X514892D01*
Y798891D01*
X514464D01*
Y798748D01*
X514179D01*
Y798605D01*
X513751D01*
Y798463D01*
X513324D01*
Y798320D01*
X512753D01*
Y798178D01*
X512183D01*
Y798035D01*
X511470D01*
Y797893D01*
X510900D01*
Y797750D01*
X510187D01*
Y797607D01*
X509189D01*
Y797465D01*
X508191D01*
Y797322D01*
X507050D01*
Y797180D01*
X505197D01*
Y797037D01*
X499779D01*
Y797180D01*
X498353D01*
Y797322D01*
X497355D01*
Y797465D01*
X496357D01*
Y797607D01*
X495787D01*
Y797750D01*
X495216D01*
Y797893D01*
X494646D01*
Y798035D01*
X494218D01*
Y798178D01*
X493791D01*
Y798320D01*
X493363D01*
Y798463D01*
X492935D01*
Y798605D01*
X492650D01*
Y798748D01*
X492222D01*
Y798891D01*
X491937D01*
Y799033D01*
X491652D01*
Y799176D01*
X491367D01*
Y799318D01*
X491082D01*
Y799461D01*
X490796D01*
Y799603D01*
X490511D01*
Y799746D01*
X490369D01*
Y799889D01*
X490226D01*
Y800031D01*
X489941D01*
Y800174D01*
X489798D01*
Y800316D01*
X489513D01*
Y800459D01*
X489370D01*
Y800602D01*
X489085D01*
Y800744D01*
X488943D01*
Y800887D01*
X488800D01*
Y801029D01*
X488658D01*
Y801172D01*
X488515D01*
Y801314D01*
X488372D01*
Y801457D01*
X488230D01*
Y801600D01*
X488087D01*
Y801742D01*
X487945D01*
Y801885D01*
X487802D01*
Y802027D01*
X487660D01*
Y802170D01*
X487517D01*
Y802312D01*
X487374D01*
Y802598D01*
X487232D01*
Y802740D01*
X487089D01*
Y802883D01*
X486947D01*
Y803025D01*
X486804D01*
Y803310D01*
X486662D01*
Y803453D01*
X486519D01*
Y803738D01*
X486376D01*
Y804023D01*
X486234D01*
Y804166D01*
X486091D01*
Y804451D01*
X485949D01*
Y804736D01*
X485806D01*
Y804879D01*
X485663D01*
Y805307D01*
X485521D01*
Y805592D01*
X485378D01*
Y805877D01*
X485236D01*
Y806305D01*
X485093D01*
Y806590D01*
X484951D01*
Y807160D01*
X484808D01*
Y807588D01*
X484665D01*
Y808016D01*
X484523D01*
Y808586D01*
X484380D01*
Y809299D01*
X484238D01*
Y810154D01*
X484095D01*
Y811295D01*
X483953D01*
Y813006D01*
X483810D01*
Y814432D01*
X483667D01*
Y815430D01*
X483525D01*
Y816143D01*
X483382D01*
Y816855D01*
X483240D01*
Y817426D01*
X483097D01*
Y817853D01*
X482954D01*
Y818139D01*
X482812D01*
Y818424D01*
X482669D01*
Y818709D01*
X482527D01*
Y818994D01*
X482384D01*
Y819137D01*
X482242D01*
Y819279D01*
X482099D01*
Y819422D01*
X481956D01*
Y819564D01*
X481814D01*
Y819707D01*
X481671D01*
Y819849D01*
X481386D01*
Y819992D01*
X481101D01*
Y820135D01*
D02*
G37*
%LPD*%
D10*
X119380Y809634D02*
G03*
X119380Y809634I-1250J0D01*
G01*
X154940D02*
G03*
X154940Y809634I-1250J0D01*
G01*
X119140Y247540D02*
G03*
X119140Y247540I-1250J0D01*
G01*
X83580D02*
G03*
X83580Y247540I-1250J0D01*
G01*
X415050Y655698D02*
G03*
X415050Y655698I-1250J0D01*
G01*
X379490D02*
G03*
X379490Y655698I-1250J0D01*
G01*
X600422Y695068D02*
G03*
X600422Y695068I-1250J0D01*
G01*
X564862D02*
G03*
X564862Y695068I-1250J0D01*
G01*
X298210Y521078D02*
G03*
X298210Y521078I-1250J0D01*
G01*
X600470Y562500D02*
G03*
X600470Y562500I-1250J0D01*
G01*
X415050Y521078D02*
G03*
X415050Y521078I-1250J0D01*
G01*
X379490D02*
G03*
X379490Y521078I-1250J0D01*
G01*
X600470Y429150D02*
G03*
X600470Y429150I-1250J0D01*
G01*
X564910Y562500D02*
G03*
X564910Y562500I-1250J0D01*
G01*
X327420Y247540D02*
G03*
X327420Y247540I-1250J0D01*
G01*
X362980D02*
G03*
X362980Y247540I-1250J0D01*
G01*
X415050Y384700D02*
G03*
X415050Y384700I-1250J0D01*
G01*
X119140Y653158D02*
G03*
X119140Y653158I-1250J0D01*
G01*
X281700Y247540D02*
G03*
X281700Y247540I-1250J0D01*
G01*
X83580Y653158D02*
G03*
X83580Y653158I-1250J0D01*
G01*
X119140Y518538D02*
G03*
X119140Y518538I-1250J0D01*
G01*
X200420Y382648D02*
G03*
X200420Y382648I-1250J0D01*
G01*
X164860Y247540D02*
G03*
X164860Y247540I-1250J0D01*
G01*
X246140D02*
G03*
X246140Y247540I-1250J0D01*
G01*
X83580Y518538D02*
G03*
X83580Y518538I-1250J0D01*
G01*
X164860Y382648D02*
G03*
X164860Y382648I-1250J0D01*
G01*
X119140D02*
G03*
X119140Y382648I-1250J0D01*
G01*
X83580D02*
G03*
X83580Y382648I-1250J0D01*
G01*
X379490Y384700D02*
G03*
X379490Y384700I-1250J0D01*
G01*
X200420Y247540D02*
G03*
X200420Y247540I-1250J0D01*
G01*
X564910Y429150D02*
G03*
X564910Y429150I-1250J0D01*
G01*
X333770Y521078D02*
G03*
X333770Y521078I-1250J0D01*
G01*
D11*
X500460Y54700D02*
G03*
X492760Y47000I0J-7700D01*
G01*
X594360D02*
G03*
X586660Y54700I-7700J0D01*
G01*
X129570D02*
G03*
X121870Y47000I0J-7700D01*
G01*
X223470D02*
G03*
X215770Y54700I-7700J0D01*
G01*
X972710Y171050D02*
G03*
X972710Y171050I-1000J0D01*
G01*
X1178450D02*
G03*
X1178450Y171050I-1000J0D01*
G01*
X561230D02*
G03*
X561230Y171050I-1000J0D01*
G01*
X766970D02*
G03*
X766970Y171050I-1000J0D01*
G01*
X500460Y54700D02*
X586660D01*
X492760Y3900D02*
Y47000D01*
Y3900D02*
X594360D01*
Y47000D01*
X129570Y54700D02*
X215770D01*
X121870Y3900D02*
Y47000D01*
Y3900D02*
X223470D01*
Y47000D01*
X1296379Y358891D02*
X1303999D01*
Y353811D02*
Y358891D01*
Y353811D02*
X1319239D01*
Y358891D01*
X1375119D01*
X1296379D02*
Y465571D01*
X1375119Y358891D02*
Y465571D01*
X1296379D02*
X1375119D01*
X1359879Y358891D02*
Y465571D01*
X1360133Y407151D02*
X1375119D01*
X1359879Y418349D02*
X1375119D01*
X1328420Y336552D02*
X1313185D01*
X1328420Y346708D01*
X1313185D01*
X1333505Y473712D02*
X1348740D01*
Y483868D01*
X1308100Y789938D02*
X1313178D01*
X1310639D01*
Y774703D01*
X1308100D01*
X1313178D01*
X1320796D02*
X1325874D01*
X1323335D01*
Y789938D01*
X1320796Y787398D01*
X1343649Y789938D02*
X1338570Y787398D01*
X1333492Y782320D01*
Y777242D01*
X1336031Y774703D01*
X1341109D01*
X1343649Y777242D01*
Y779781D01*
X1341109Y782320D01*
X1333492D01*
X648976Y789938D02*
X654054D01*
X651515D01*
Y774703D01*
X648976D01*
X654054D01*
X661672D02*
X666750D01*
X664211D01*
Y789938D01*
X661672Y787398D01*
X654054Y96517D02*
X648976D01*
X646437Y93978D01*
Y83822D01*
X648976Y81283D01*
X654054D01*
X656593Y83822D01*
Y93978D01*
X654054Y96517D01*
X661672Y81283D02*
X666750D01*
X664211D01*
Y96517D01*
X661672Y93978D01*
D12*
X97202Y836872D02*
X101202D01*
X97202Y828872D02*
X101202D01*
X134032Y836872D02*
X138032D01*
X134032Y828872D02*
X138032D01*
X98130Y771614D02*
X102130D01*
X98130Y763614D02*
X102130D01*
X133690Y763614D02*
X137690D01*
X133690Y771614D02*
X137690D01*
X85130Y793634D02*
X93130D01*
X85130D02*
Y799634D01*
X107130Y793634D02*
X115130D01*
Y799634D01*
X120690Y793634D02*
X128690D01*
X120690D02*
Y799634D01*
X142690Y793634D02*
X150690D01*
Y799634D01*
X134818Y228302D02*
X138818D01*
X134818Y220302D02*
X138818D01*
X97988Y228302D02*
X101988D01*
X97988Y220302D02*
X101988D01*
X133890Y293560D02*
X137890D01*
X133890Y285560D02*
X137890D01*
X98330Y285560D02*
X102330D01*
X98330Y293560D02*
X102330D01*
X120890Y257540D02*
Y263540D01*
X128890D01*
X150890Y257540D02*
Y263540D01*
X142890D02*
X150890D01*
X85330Y257540D02*
Y263540D01*
X93330D01*
X115330Y257540D02*
Y263540D01*
X107330D02*
X115330D01*
X430728Y636460D02*
X434728D01*
X430728Y628460D02*
X434728D01*
X393898Y636460D02*
X397898D01*
X393898Y628460D02*
X397898D01*
X429800Y701718D02*
X433800D01*
X429800Y693718D02*
X433800D01*
X394240Y693718D02*
X398240D01*
X394240Y701718D02*
X398240D01*
X416800Y665698D02*
Y671698D01*
X424800D01*
X446800Y665698D02*
Y671698D01*
X438800D02*
X446800D01*
X381240Y665698D02*
Y671698D01*
X389240D01*
X411240Y665698D02*
Y671698D01*
X403240D02*
X411240D01*
X215170Y115760D02*
X219170D01*
X215170Y107760D02*
X219170D01*
X171990Y115760D02*
X175990D01*
X171990Y107760D02*
X175990D01*
X257080Y115760D02*
X261080D01*
X257080Y107760D02*
X261080D01*
X298990Y115760D02*
X302990D01*
X298990Y107760D02*
X302990D01*
X394240Y559098D02*
X398240D01*
X394240Y567098D02*
X398240D01*
X429800Y567098D02*
X433800D01*
X429800Y559098D02*
X433800D01*
X97060Y336360D02*
X101060D01*
X97060Y344360D02*
X101060D01*
X97060Y200470D02*
X101060D01*
X97060Y208470D02*
X101060D01*
X179610Y200470D02*
X183610D01*
X179610Y208470D02*
X183610D01*
X312960Y473520D02*
X316960D01*
X312960Y481520D02*
X316960D01*
X394240Y609410D02*
X398240D01*
X394240Y617410D02*
X398240D01*
X394240Y474790D02*
X398240D01*
X394240Y482790D02*
X398240D01*
X394240Y337630D02*
X398240D01*
X394240Y345630D02*
X398240D01*
X135160Y606870D02*
X139160D01*
X135160Y614870D02*
X139160D01*
X97060Y854900D02*
X101060D01*
X97060Y846900D02*
X101060D01*
X133890Y854900D02*
X137890D01*
X133890Y846900D02*
X137890D01*
X579318Y519620D02*
X583318D01*
X579318Y511620D02*
X583318D01*
X431070Y617410D02*
X435070D01*
X431070Y609410D02*
X435070D01*
X342170Y208470D02*
X346170D01*
X342170Y200470D02*
X346170D01*
X1021590Y557400D02*
Y580400D01*
X1009590Y557400D02*
Y580400D01*
X1021590D01*
X1009590Y557400D02*
X1021590D01*
X1051590Y526400D02*
Y736400D01*
X979590Y526400D02*
Y736400D01*
X1039090Y563400D02*
Y568900D01*
Y552400D02*
Y563400D01*
X1021590Y568900D02*
X1039090D01*
X992090Y563400D02*
Y568900D01*
Y552400D02*
Y563400D01*
Y568900D02*
X1009590D01*
X1016590Y653900D02*
X1023590D01*
X1016590Y723900D02*
X1023590D01*
X1016590Y653900D02*
Y689400D01*
X1005590Y723900D02*
X1016590Y689400D01*
X979590Y526400D02*
X1015590D01*
X1051590D01*
X979590Y736400D02*
X1015590D01*
X1051590D01*
X616100Y667830D02*
X620100D01*
X616100Y675830D02*
X620100D01*
X579270Y667830D02*
X583270D01*
X579270Y675830D02*
X583270D01*
X615172Y733088D02*
X619172D01*
X615172Y741088D02*
X619172D01*
X579612Y741088D02*
X583612D01*
X579612Y733088D02*
X583612D01*
X624172Y711068D02*
X632172D01*
Y705068D02*
Y711068D01*
X602172D02*
X610172D01*
X602172Y705068D02*
Y711068D01*
X588612D02*
X596612D01*
Y705068D02*
Y711068D01*
X566612D02*
X574612D01*
X566612Y705068D02*
Y711068D01*
X1257810Y557400D02*
Y580400D01*
X1245810Y557400D02*
Y580400D01*
X1257810D01*
X1245810Y557400D02*
X1257810D01*
X1287810Y526400D02*
Y736400D01*
X1215810Y526400D02*
Y736400D01*
X1275310Y563400D02*
Y568900D01*
Y552400D02*
Y563400D01*
X1257810Y568900D02*
X1275310D01*
X1228310Y563400D02*
Y568900D01*
Y552400D02*
Y563400D01*
Y568900D02*
X1245810D01*
X1252810Y653900D02*
X1259810D01*
X1252810Y723900D02*
X1259810D01*
X1252810Y653900D02*
Y689400D01*
X1241810Y723900D02*
X1252810Y689400D01*
X1215810Y526400D02*
X1251810D01*
X1287810D01*
X1215810Y736400D02*
X1251810D01*
X1287810D01*
X1191800Y153480D02*
X1195800D01*
X1191800Y161480D02*
X1195800D01*
X1191800Y137350D02*
X1195800D01*
X1191800Y129350D02*
X1195800D01*
X84360Y89980D02*
X88360D01*
X84360Y97980D02*
X88360D01*
X133890Y344360D02*
X137890D01*
X133890Y336360D02*
X137890D01*
X297720Y208470D02*
X301720D01*
X297720Y200470D02*
X301720D01*
X379000Y208470D02*
X383000D01*
X379000Y200470D02*
X383000D01*
X298990Y89980D02*
X302990D01*
X298990Y97980D02*
X302990D01*
X98330Y480250D02*
X102330D01*
X98330Y472250D02*
X102330D01*
X257080Y89980D02*
X261080D01*
X257080Y97980D02*
X261080D01*
X135160Y480250D02*
X139160D01*
X135160Y472250D02*
X139160D01*
X574580Y312230D02*
X578580D01*
X574580Y320230D02*
X578580D01*
X215170Y89980D02*
X219170D01*
X215170Y97980D02*
X219170D01*
X340900Y107760D02*
X344900D01*
X340900Y115760D02*
X344900D01*
X579270Y652970D02*
X583270D01*
X579270Y644970D02*
X583270D01*
X128810Y89980D02*
X132810D01*
X128810Y97980D02*
X132810D01*
X579660Y386270D02*
X583660D01*
X579660Y378270D02*
X583660D01*
X179610Y344360D02*
X183610D01*
X179610Y336360D02*
X183610D01*
X260890Y208470D02*
X264890D01*
X260890Y200470D02*
X264890D01*
X216440Y208470D02*
X220440D01*
X216440Y200470D02*
X220440D01*
X424720Y107760D02*
X428720D01*
X424720Y115760D02*
X428720D01*
X98330Y614870D02*
X102330D01*
X98330Y606870D02*
X102330D01*
X84360Y107760D02*
X88360D01*
X84360Y115760D02*
X88360D01*
X133890Y208470D02*
X137890D01*
X133890Y200470D02*
X137890D01*
X340900Y89980D02*
X344900D01*
X340900Y97980D02*
X344900D01*
X431070Y345630D02*
X435070D01*
X431070Y337630D02*
X435070D01*
X216440Y344360D02*
X220440D01*
X216440Y336360D02*
X220440D01*
X171990Y89980D02*
X175990D01*
X171990Y97980D02*
X175990D01*
X128810Y107760D02*
X132810D01*
X128810Y115760D02*
X132810D01*
X1100330Y341500D02*
Y364500D01*
X1088330Y341500D02*
Y364500D01*
X1100330D01*
X1088330Y341500D02*
X1100330D01*
X1130330Y310500D02*
Y520500D01*
X1058330Y310500D02*
Y520500D01*
X1117830Y347500D02*
Y353000D01*
Y336500D02*
Y347500D01*
X1100330Y353000D02*
X1117830D01*
X1070830Y347500D02*
Y353000D01*
Y336500D02*
Y347500D01*
Y353000D02*
X1088330D01*
X1095330Y438000D02*
X1102330D01*
X1095330Y508000D02*
X1102330D01*
X1095330Y438000D02*
Y473500D01*
X1084330Y508000D02*
X1095330Y473500D01*
X1058330Y310500D02*
X1094330D01*
X1130330D01*
X1058330Y520500D02*
X1094330D01*
X1130330D01*
X321960Y537078D02*
X329960D01*
Y531078D02*
Y537078D01*
X299960D02*
X307960D01*
X299960Y531078D02*
Y537078D01*
X393898Y493840D02*
X397898D01*
X393898Y501840D02*
X397898D01*
X624220Y578500D02*
X632220D01*
Y572500D02*
Y578500D01*
X602220D02*
X610220D01*
X602220Y572500D02*
Y578500D01*
X438800Y537078D02*
X446800D01*
Y531078D02*
Y537078D01*
X416800D02*
X424800D01*
X416800Y531078D02*
Y537078D01*
X579660Y608520D02*
X583660D01*
X579660Y600520D02*
X583660D01*
X616148Y535262D02*
X620148D01*
X616148Y543262D02*
X620148D01*
X579318Y401912D02*
X583318D01*
X579318Y409912D02*
X583318D01*
X615220Y600520D02*
X619220D01*
X615220Y608520D02*
X619220D01*
X1179070Y557400D02*
Y580400D01*
X1167070Y557400D02*
Y580400D01*
X1179070D01*
X1167070Y557400D02*
X1179070D01*
X1209070Y526400D02*
Y736400D01*
X1137070Y526400D02*
Y736400D01*
X1196570Y563400D02*
Y568900D01*
Y552400D02*
Y563400D01*
X1179070Y568900D02*
X1196570D01*
X1149570Y563400D02*
Y568900D01*
Y552400D02*
Y563400D01*
Y568900D02*
X1167070D01*
X1174070Y653900D02*
X1181070D01*
X1174070Y723900D02*
X1181070D01*
X1174070Y653900D02*
Y689400D01*
X1163070Y723900D02*
X1174070Y689400D01*
X1137070Y526400D02*
X1173070D01*
X1209070D01*
X1137070Y736400D02*
X1173070D01*
X1209070D01*
X579318Y535262D02*
X583318D01*
X579318Y543262D02*
X583318D01*
X430728Y493840D02*
X434728D01*
X430728Y501840D02*
X434728D01*
X403240Y537078D02*
X411240D01*
Y531078D02*
Y537078D01*
X381240D02*
X389240D01*
X381240Y531078D02*
Y537078D01*
X1257810Y341500D02*
Y364500D01*
X1245810Y341500D02*
Y364500D01*
X1257810D01*
X1245810Y341500D02*
X1257810D01*
X1287810Y310500D02*
Y520500D01*
X1215810Y310500D02*
Y520500D01*
X1275310Y347500D02*
Y353000D01*
Y336500D02*
Y347500D01*
X1257810Y353000D02*
X1275310D01*
X1228310Y347500D02*
Y353000D01*
Y336500D02*
Y347500D01*
Y353000D02*
X1245810D01*
X1252810Y438000D02*
X1259810D01*
X1252810Y508000D02*
X1259810D01*
X1252810Y438000D02*
Y473500D01*
X1241810Y508000D02*
X1252810Y473500D01*
X1215810Y310500D02*
X1251810D01*
X1287810D01*
X1215810Y520500D02*
X1251810D01*
X1287810D01*
X624220Y445150D02*
X632220D01*
Y439150D02*
Y445150D01*
X602220D02*
X610220D01*
X602220Y439150D02*
Y445150D01*
X1179070Y341500D02*
Y364500D01*
X1167070Y341500D02*
Y364500D01*
X1179070D01*
X1167070Y341500D02*
X1179070D01*
X1209070Y310500D02*
Y520500D01*
X1137070Y310500D02*
Y520500D01*
X1196570Y347500D02*
Y353000D01*
Y336500D02*
Y347500D01*
X1179070Y353000D02*
X1196570D01*
X1149570Y347500D02*
Y353000D01*
Y336500D02*
Y347500D01*
Y353000D02*
X1167070D01*
X1174070Y438000D02*
X1181070D01*
X1174070Y508000D02*
X1181070D01*
X1174070Y438000D02*
Y473500D01*
X1163070Y508000D02*
X1174070Y473500D01*
X1137070Y310500D02*
X1173070D01*
X1209070D01*
X1137070Y520500D02*
X1173070D01*
X1209070D01*
X616148Y401912D02*
X620148D01*
X616148Y409912D02*
X620148D01*
X579660Y475170D02*
X583660D01*
X579660Y467170D02*
X583660D01*
X588660Y578500D02*
X596660D01*
Y572500D02*
Y578500D01*
X566660D02*
X574660D01*
X566660Y572500D02*
Y578500D01*
X615220Y467170D02*
X619220D01*
X615220Y475170D02*
X619220D01*
X1292130Y153480D02*
X1296130D01*
X1292130Y161480D02*
X1296130D01*
X1342930Y153480D02*
X1346930D01*
X1342930Y161480D02*
X1346930D01*
X706630Y341500D02*
Y364500D01*
X694630Y341500D02*
Y364500D01*
X706630D01*
X694630Y341500D02*
X706630D01*
X736630Y310500D02*
Y520500D01*
X664630Y310500D02*
Y520500D01*
X724130Y347500D02*
Y353000D01*
Y336500D02*
Y347500D01*
X706630Y353000D02*
X724130D01*
X677130Y347500D02*
Y353000D01*
Y336500D02*
Y347500D01*
Y353000D02*
X694630D01*
X701630Y438000D02*
X708630D01*
X701630Y508000D02*
X708630D01*
X701630Y438000D02*
Y473500D01*
X690630Y508000D02*
X701630Y473500D01*
X664630Y310500D02*
X700630D01*
X736630D01*
X664630Y520500D02*
X700630D01*
X736630D01*
X1342930Y137350D02*
X1346930D01*
X1342930Y129350D02*
X1346930D01*
X1292130Y288100D02*
X1296130D01*
X1292130Y296100D02*
X1296130D01*
X351170Y263540D02*
X359170D01*
Y257540D02*
Y263540D01*
X329170D02*
X337170D01*
X329170Y257540D02*
Y263540D01*
X342170Y293560D02*
X346170D01*
X342170Y285560D02*
X346170D01*
X1241330Y137350D02*
X1245330D01*
X1241330Y129350D02*
X1245330D01*
X1241330Y288100D02*
X1245330D01*
X1241330Y296100D02*
X1245330D01*
X386730Y263540D02*
X394730D01*
Y257540D02*
Y263540D01*
X364730D02*
X372730D01*
X364730Y257540D02*
Y263540D01*
X1342930Y288100D02*
X1346930D01*
X1342930Y296100D02*
X1346930D01*
X1292130Y137350D02*
X1296130D01*
X1292130Y129350D02*
X1296130D01*
X1241330Y153480D02*
X1245330D01*
X1241330Y161480D02*
X1245330D01*
X134818Y625920D02*
X138818D01*
X134818Y633920D02*
X138818D01*
X216098Y220302D02*
X220098D01*
X216098Y228302D02*
X220098D01*
X438800Y400700D02*
X446800D01*
Y394700D02*
Y400700D01*
X416800D02*
X424800D01*
X416800Y394700D02*
Y400700D01*
X142890Y669158D02*
X150890D01*
Y663158D02*
Y669158D01*
X120890D02*
X128890D01*
X120890Y663158D02*
Y669158D01*
X305450Y263540D02*
X313450D01*
Y257540D02*
Y263540D01*
X283450D02*
X291450D01*
X283450Y257540D02*
Y263540D01*
X97988Y491300D02*
X101988D01*
X97988Y499300D02*
X101988D01*
X97988Y625920D02*
X101988D01*
X97988Y633920D02*
X101988D01*
X942850Y557400D02*
Y580400D01*
X930850Y557400D02*
Y580400D01*
X942850D01*
X930850Y557400D02*
X942850D01*
X972850Y526400D02*
Y736400D01*
X900850Y526400D02*
Y736400D01*
X960350Y563400D02*
Y568900D01*
Y552400D02*
Y563400D01*
X942850Y568900D02*
X960350D01*
X913350Y563400D02*
Y568900D01*
Y552400D02*
Y563400D01*
Y568900D02*
X930850D01*
X937850Y653900D02*
X944850D01*
X937850Y723900D02*
X944850D01*
X937850Y653900D02*
Y689400D01*
X926850Y723900D02*
X937850Y689400D01*
X900850Y526400D02*
X936850D01*
X972850D01*
X900850Y736400D02*
X936850D01*
X972850D01*
X179610Y293560D02*
X183610D01*
X179610Y285560D02*
X183610D01*
X98330Y564558D02*
X102330D01*
X98330Y556558D02*
X102330D01*
X98330Y699178D02*
X102330D01*
X98330Y691178D02*
X102330D01*
X107330Y669158D02*
X115330D01*
Y663158D02*
Y669158D01*
X85330D02*
X93330D01*
X85330Y663158D02*
Y669158D01*
X864110Y557400D02*
Y580400D01*
X852110Y557400D02*
Y580400D01*
X864110D01*
X852110Y557400D02*
X864110D01*
X894110Y526400D02*
Y736400D01*
X822110Y526400D02*
Y736400D01*
X881610Y563400D02*
Y568900D01*
Y552400D02*
Y563400D01*
X864110Y568900D02*
X881610D01*
X834610Y563400D02*
Y568900D01*
Y552400D02*
Y563400D01*
Y568900D02*
X852110D01*
X859110Y653900D02*
X866110D01*
X859110Y723900D02*
X866110D01*
X859110Y653900D02*
Y689400D01*
X848110Y723900D02*
X859110Y689400D01*
X822110Y526400D02*
X858110D01*
X894110D01*
X822110Y736400D02*
X858110D01*
X894110D01*
X142890Y534538D02*
X150890D01*
Y528538D02*
Y534538D01*
X120890D02*
X128890D01*
X120890Y528538D02*
Y534538D01*
X341828Y220302D02*
X345828D01*
X341828Y228302D02*
X345828D01*
X215170Y285560D02*
X219170D01*
X215170Y293560D02*
X219170D01*
X429800Y422720D02*
X433800D01*
X429800Y430720D02*
X433800D01*
X179268Y355410D02*
X183268D01*
X179268Y363410D02*
X183268D01*
X98330Y428668D02*
X102330D01*
X98330Y420668D02*
X102330D01*
X785370Y341500D02*
Y364500D01*
X773370Y341500D02*
Y364500D01*
X785370D01*
X773370Y341500D02*
X785370D01*
X815370Y310500D02*
Y520500D01*
X743370Y310500D02*
Y520500D01*
X802870Y347500D02*
Y353000D01*
Y336500D02*
Y347500D01*
X785370Y353000D02*
X802870D01*
X755870Y347500D02*
Y353000D01*
Y336500D02*
Y347500D01*
Y353000D02*
X773370D01*
X780370Y438000D02*
X787370D01*
X780370Y508000D02*
X787370D01*
X780370Y438000D02*
Y473500D01*
X769370Y508000D02*
X780370Y473500D01*
X743370Y310500D02*
X779370D01*
X815370D01*
X743370Y520500D02*
X779370D01*
X815370D01*
X134818Y355410D02*
X138818D01*
X134818Y363410D02*
X138818D01*
X297378Y220302D02*
X301378D01*
X297378Y228302D02*
X301378D01*
X224170Y398648D02*
X232170D01*
Y392648D02*
Y398648D01*
X202170D02*
X210170D01*
X202170Y392648D02*
Y398648D01*
X785370Y557400D02*
Y580400D01*
X773370Y557400D02*
Y580400D01*
X785370D01*
X773370Y557400D02*
X785370D01*
X815370Y526400D02*
Y736400D01*
X743370Y526400D02*
Y736400D01*
X802870Y563400D02*
Y568900D01*
Y552400D02*
Y563400D01*
X785370Y568900D02*
X802870D01*
X755870Y563400D02*
Y568900D01*
Y552400D02*
Y563400D01*
Y568900D02*
X773370D01*
X780370Y653900D02*
X787370D01*
X780370Y723900D02*
X787370D01*
X780370Y653900D02*
Y689400D01*
X769370Y723900D02*
X780370Y689400D01*
X743370Y526400D02*
X779370D01*
X815370D01*
X743370Y736400D02*
X779370D01*
X815370D01*
X378658Y220302D02*
X382658D01*
X378658Y228302D02*
X382658D01*
X179268Y220302D02*
X183268D01*
X179268Y228302D02*
X183268D01*
X216098Y355410D02*
X220098D01*
X216098Y363410D02*
X220098D01*
X188610Y263540D02*
X196610D01*
Y257540D02*
Y263540D01*
X166610D02*
X174610D01*
X166610Y257540D02*
Y263540D01*
X706630Y557400D02*
Y580400D01*
X694630Y557400D02*
Y580400D01*
X706630D01*
X694630Y557400D02*
X706630D01*
X736630Y526400D02*
Y736400D01*
X664630Y526400D02*
Y736400D01*
X724130Y563400D02*
Y568900D01*
Y552400D02*
Y563400D01*
X706630Y568900D02*
X724130D01*
X677130Y563400D02*
Y568900D01*
Y552400D02*
Y563400D01*
Y568900D02*
X694630D01*
X701630Y653900D02*
X708630D01*
X701630Y723900D02*
X708630D01*
X701630Y653900D02*
Y689400D01*
X690630Y723900D02*
X701630Y689400D01*
X664630Y526400D02*
X700630D01*
X736630D01*
X664630Y736400D02*
X700630D01*
X736630D01*
X269890Y263540D02*
X277890D01*
Y257540D02*
Y263540D01*
X247890D02*
X255890D01*
X247890Y257540D02*
Y263540D01*
X133890Y691178D02*
X137890D01*
X133890Y699178D02*
X137890D01*
X1021590Y341500D02*
Y364500D01*
X1009590Y341500D02*
Y364500D01*
X1021590D01*
X1009590Y341500D02*
X1021590D01*
X1051590Y310500D02*
Y520500D01*
X979590Y310500D02*
Y520500D01*
X1039090Y347500D02*
Y353000D01*
Y336500D02*
Y347500D01*
X1021590Y353000D02*
X1039090D01*
X992090Y347500D02*
Y353000D01*
Y336500D02*
Y347500D01*
Y353000D02*
X1009590D01*
X1016590Y438000D02*
X1023590D01*
X1016590Y508000D02*
X1023590D01*
X1016590Y438000D02*
Y473500D01*
X1005590Y508000D02*
X1016590Y473500D01*
X979590Y310500D02*
X1015590D01*
X1051590D01*
X979590Y520500D02*
X1015590D01*
X1051590D01*
X133890Y556558D02*
X137890D01*
X133890Y564558D02*
X137890D01*
X134818Y491300D02*
X138818D01*
X134818Y499300D02*
X138818D01*
X393898Y357462D02*
X397898D01*
X393898Y365462D02*
X397898D01*
X864110Y341500D02*
Y364500D01*
X852110Y341500D02*
Y364500D01*
X864110D01*
X852110Y341500D02*
X864110D01*
X894110Y310500D02*
Y520500D01*
X822110Y310500D02*
Y520500D01*
X881610Y347500D02*
Y353000D01*
Y336500D02*
Y347500D01*
X864110Y353000D02*
X881610D01*
X834610Y347500D02*
Y353000D01*
Y336500D02*
Y347500D01*
Y353000D02*
X852110D01*
X859110Y438000D02*
X866110D01*
X859110Y508000D02*
X866110D01*
X859110Y438000D02*
Y473500D01*
X848110Y508000D02*
X859110Y473500D01*
X822110Y310500D02*
X858110D01*
X894110D01*
X822110Y520500D02*
X858110D01*
X894110D01*
X107330Y534538D02*
X115330D01*
Y528538D02*
Y534538D01*
X85330D02*
X93330D01*
X85330Y528538D02*
Y534538D01*
X942850Y341500D02*
Y364500D01*
X930850Y341500D02*
Y364500D01*
X942850D01*
X930850Y341500D02*
X942850D01*
X972850Y310500D02*
Y520500D01*
X900850Y310500D02*
Y520500D01*
X960350Y347500D02*
Y353000D01*
Y336500D02*
Y347500D01*
X942850Y353000D02*
X960350D01*
X913350Y347500D02*
Y353000D01*
Y336500D02*
Y347500D01*
Y353000D02*
X930850D01*
X937850Y438000D02*
X944850D01*
X937850Y508000D02*
X944850D01*
X937850Y438000D02*
Y473500D01*
X926850Y508000D02*
X937850Y473500D01*
X900850Y310500D02*
X936850D01*
X972850D01*
X900850Y520500D02*
X936850D01*
X972850D01*
X179610Y428668D02*
X183610D01*
X179610Y420668D02*
X183610D01*
X430728Y357462D02*
X434728D01*
X430728Y365462D02*
X434728D01*
X188610Y398648D02*
X196610D01*
Y392648D02*
Y398648D01*
X166610D02*
X174610D01*
X166610Y392648D02*
Y398648D01*
X260890Y293560D02*
X264890D01*
X260890Y285560D02*
X264890D01*
X260548Y220302D02*
X264548D01*
X260548Y228302D02*
X264548D01*
X142890Y398648D02*
X150890D01*
Y392648D02*
Y398648D01*
X120890D02*
X128890D01*
X120890Y392648D02*
Y398648D01*
X296450Y285560D02*
X300450D01*
X296450Y293560D02*
X300450D01*
X215170Y420668D02*
X219170D01*
X215170Y428668D02*
X219170D01*
X377730Y285560D02*
X381730D01*
X377730Y293560D02*
X381730D01*
X107330Y398648D02*
X115330D01*
Y392648D02*
Y398648D01*
X85330D02*
X93330D01*
X85330Y392648D02*
Y398648D01*
X403240Y400700D02*
X411240D01*
Y394700D02*
Y400700D01*
X381240D02*
X389240D01*
X381240Y394700D02*
Y400700D01*
X394240Y430720D02*
X398240D01*
X394240Y422720D02*
X398240D01*
X224170Y263540D02*
X232170D01*
Y257540D02*
Y263540D01*
X202170D02*
X210170D01*
X202170Y257540D02*
Y263540D01*
X133890Y420668D02*
X137890D01*
X133890Y428668D02*
X137890D01*
X97988Y355410D02*
X101988D01*
X97988Y363410D02*
X101988D01*
X588660Y445150D02*
X596660D01*
Y439150D02*
Y445150D01*
X566660D02*
X574660D01*
X566660Y439150D02*
Y445150D01*
X348520Y559098D02*
X352520D01*
X348520Y567098D02*
X352520D01*
X349448Y493840D02*
X353448D01*
X349448Y501840D02*
X353448D01*
X357520Y537078D02*
X365520D01*
Y531078D02*
Y537078D01*
X335520D02*
X343520D01*
X335520Y531078D02*
Y537078D01*
X1100330Y557400D02*
Y580400D01*
X1088330Y557400D02*
Y580400D01*
X1100330D01*
X1088330Y557400D02*
X1100330D01*
X1130330Y526400D02*
Y736400D01*
X1058330Y526400D02*
Y736400D01*
X1117830Y563400D02*
Y568900D01*
Y552400D02*
Y563400D01*
X1100330Y568900D02*
X1117830D01*
X1070830Y563400D02*
Y568900D01*
Y552400D02*
Y563400D01*
Y568900D02*
X1088330D01*
X1095330Y653900D02*
X1102330D01*
X1095330Y723900D02*
X1102330D01*
X1095330Y653900D02*
Y689400D01*
X1084330Y723900D02*
X1095330Y689400D01*
X1058330Y526400D02*
X1094330D01*
X1130330D01*
X1058330Y736400D02*
X1094330D01*
X1130330D01*
X312618Y493840D02*
X316618D01*
X312618Y501840D02*
X316618D01*
X312960Y567098D02*
X316960D01*
X312960Y559098D02*
X316960D01*
X574580Y153480D02*
X578580D01*
X574580Y161480D02*
X578580D01*
X1086390Y288100D02*
X1090390D01*
X1086390Y296100D02*
X1090390D01*
X624110Y153480D02*
X628110D01*
X624110Y161480D02*
X628110D01*
X725710Y137350D02*
X729710D01*
X725710Y129350D02*
X729710D01*
X674910Y153480D02*
X678910D01*
X674910Y161480D02*
X678910D01*
X931450Y137350D02*
X935450D01*
X931450Y129350D02*
X935450D01*
X779050Y137350D02*
X783050D01*
X779050Y129350D02*
X783050D01*
X931450Y288100D02*
X935450D01*
X931450Y296100D02*
X935450D01*
X829850Y137350D02*
X833850D01*
X829850Y129350D02*
X833850D01*
X674910Y288100D02*
X678910D01*
X674910Y296100D02*
X678910D01*
X1137190Y288100D02*
X1141190D01*
X1137190Y296100D02*
X1141190D01*
X1086390Y153480D02*
X1090390D01*
X1086390Y161480D02*
X1090390D01*
X725710Y288100D02*
X729710D01*
X725710Y296100D02*
X729710D01*
X931450Y153480D02*
X935450D01*
X931450Y161480D02*
X935450D01*
X574580Y288100D02*
X578580D01*
X574580Y296100D02*
X578580D01*
X880650Y137350D02*
X884650D01*
X880650Y129350D02*
X884650D01*
X984790Y137350D02*
X988790D01*
X984790Y129350D02*
X988790D01*
X829850Y288100D02*
X833850D01*
X829850Y296100D02*
X833850D01*
X624110Y288100D02*
X628110D01*
X624110Y296100D02*
X628110D01*
X624110Y137350D02*
X628110D01*
X624110Y129350D02*
X628110D01*
X984790Y288100D02*
X988790D01*
X984790Y296100D02*
X988790D01*
X779050Y153480D02*
X783050D01*
X779050Y161480D02*
X783050D01*
X880650Y153480D02*
X884650D01*
X880650Y161480D02*
X884650D01*
X1035590Y137350D02*
X1039590D01*
X1035590Y129350D02*
X1039590D01*
X1086390Y137350D02*
X1090390D01*
X1086390Y129350D02*
X1090390D01*
X1137190Y137350D02*
X1141190D01*
X1137190Y129350D02*
X1141190D01*
X1035590Y288100D02*
X1039590D01*
X1035590Y296100D02*
X1039590D01*
X725710Y153480D02*
X729710D01*
X725710Y161480D02*
X729710D01*
X574580Y137350D02*
X578580D01*
X574580Y129350D02*
X578580D01*
X779050Y288100D02*
X783050D01*
X779050Y296100D02*
X783050D01*
X674370Y4210D02*
X1304290D01*
X674370Y121050D02*
X1304290D01*
Y36360D02*
Y88900D01*
Y4210D02*
Y36360D01*
Y88900D02*
Y121050D01*
X674370Y36360D02*
Y88900D01*
Y4210D02*
Y36360D01*
Y88900D02*
Y121050D01*
X1137190Y153480D02*
X1141190D01*
X1137190Y161480D02*
X1141190D01*
X671830Y867010D02*
X1301750D01*
X671830Y750170D02*
X1301750D01*
X671830Y782320D02*
Y834860D01*
Y867010D01*
Y750170D02*
Y782320D01*
X1301750D02*
Y834860D01*
Y867010D01*
Y750170D02*
Y782320D01*
X1191800Y288100D02*
X1195800D01*
X1191800Y296100D02*
X1195800D01*
X829850Y153480D02*
X833850D01*
X829850Y161480D02*
X833850D01*
X1035590Y153480D02*
X1039590D01*
X1035590Y161480D02*
X1039590D01*
X984790Y153480D02*
X988790D01*
X984790Y161480D02*
X988790D01*
X880650Y288100D02*
X884650D01*
X880650Y296100D02*
X884650D01*
X674910Y137350D02*
X678910D01*
X674910Y129350D02*
X678910D01*
X616100Y652970D02*
X620100D01*
X616100Y644970D02*
X620100D01*
X616148Y519620D02*
X620148D01*
X616148Y511620D02*
X620148D01*
X349790Y481520D02*
X353790D01*
X349790Y473520D02*
X353790D01*
X431070Y482790D02*
X435070D01*
X431070Y474790D02*
X435070D01*
X492760Y101600D02*
Y685800D01*
X543560Y101600D02*
Y685800D01*
X492760Y101600D02*
X543560D01*
X492760Y685800D02*
X543560D01*
X10160Y101600D02*
X60960D01*
Y685800D01*
X10160Y101600D02*
Y685800D01*
X60960D01*
X461010Y304800D02*
Y457200D01*
X486410Y304800D02*
Y457200D01*
X461010D02*
X486410D01*
X461010Y304800D02*
X486410D01*
X616490Y386270D02*
X620490D01*
X616490Y378270D02*
X620490D01*
D13*
X139920Y737214D02*
Y747214D01*
X96100Y309960D02*
Y319960D01*
X392010Y718118D02*
Y728118D01*
Y583498D02*
Y593498D01*
X577382Y757488D02*
Y767488D01*
X970410Y280050D02*
X971410D01*
X970410Y176050D02*
X971410D01*
X970410D02*
Y280050D01*
X1169810D02*
X1170810D01*
X1169810Y176050D02*
X1170810D01*
Y280050D01*
X1176150D02*
X1177150D01*
X1176150Y176050D02*
X1177150D01*
X1176150D02*
Y280050D01*
X1375550D02*
X1376550D01*
X1375550Y176050D02*
X1376550D01*
Y280050D01*
X558930D02*
X559930D01*
X558930Y176050D02*
X559930D01*
X558930D02*
Y280050D01*
X758330D02*
X759330D01*
X758330Y176050D02*
X759330D01*
Y280050D01*
X764670D02*
X765670D01*
X764670Y176050D02*
X765670D01*
X764670D02*
Y280050D01*
X964070D02*
X965070D01*
X964070Y176050D02*
X965070D01*
Y280050D01*
X310730Y583498D02*
Y593498D01*
X577430Y624920D02*
Y634920D01*
X339940Y309960D02*
Y319960D01*
X177380Y309960D02*
Y319960D01*
X96100Y715578D02*
Y725578D01*
Y580958D02*
Y590958D01*
X392010Y447120D02*
Y457120D01*
X96100Y445068D02*
Y455068D01*
X258660Y309960D02*
Y319960D01*
X177380Y445068D02*
Y455068D01*
X577430Y491570D02*
Y501570D01*
X1348320Y325200D02*
Y335200D01*
X1313940Y82548D02*
X1310555D01*
X1308862Y80856D01*
Y74084D01*
X1310555Y72392D01*
X1313940D01*
X1315633Y74084D01*
Y80856D01*
X1313940Y82548D01*
X1319019Y72392D02*
X1322404D01*
X1320712D01*
Y82548D01*
X1319019Y80856D01*
X1334254Y82548D02*
X1330868Y80856D01*
X1327483Y77470D01*
Y74084D01*
X1329175Y72392D01*
X1332561D01*
X1334254Y74084D01*
Y75777D01*
X1332561Y77470D01*
X1327483D01*
X485984Y668020D02*
X477520D01*
X485984Y676484D01*
Y678600D01*
X483868Y680716D01*
X479636D01*
X477520Y678600D01*
X68580Y668020D02*
X72812D01*
X70696D01*
Y680716D01*
X68580Y678600D01*
D14*
X1312615Y524256D02*
X1325311D01*
Y530604D01*
X1323195Y532720D01*
X1321079D01*
X1318963Y530604D01*
Y524256D01*
Y530604D01*
X1316847Y532720D01*
X1314731D01*
X1312615Y530604D01*
Y524256D01*
X1325311Y543300D02*
Y539068D01*
X1323195Y536952D01*
X1318963D01*
X1316847Y539068D01*
Y543300D01*
X1318963Y545416D01*
X1321079D01*
Y536952D01*
X1316847Y551764D02*
Y555996D01*
X1318963Y558112D01*
X1325311D01*
Y551764D01*
X1323195Y549648D01*
X1321079Y551764D01*
Y558112D01*
X1329543Y566576D02*
Y568692D01*
X1327426Y570808D01*
X1316847D01*
Y564460D01*
X1318963Y562344D01*
X1323195D01*
X1325311Y564460D01*
Y570808D01*
Y575039D02*
Y579272D01*
Y577155D01*
X1312615D01*
Y575039D01*
X1325311Y591967D02*
Y587735D01*
X1323195Y585620D01*
X1318963D01*
X1316847Y587735D01*
Y591967D01*
X1318963Y594083D01*
X1321079D01*
Y585620D01*
X1325311Y598315D02*
X1312615D01*
X1325311Y606779D01*
X1312615D01*
X1325311Y613127D02*
Y617359D01*
X1323195Y619475D01*
X1318963D01*
X1316847Y617359D01*
Y613127D01*
X1318963Y611011D01*
X1323195D01*
X1325311Y613127D01*
X1312615Y632171D02*
X1325311D01*
Y625823D01*
X1323195Y623707D01*
X1318963D01*
X1316847Y625823D01*
Y632171D01*
X1325311Y642751D02*
Y638519D01*
X1323195Y636403D01*
X1318963D01*
X1316847Y638519D01*
Y642751D01*
X1318963Y644867D01*
X1321079D01*
Y636403D01*
X1316847Y661795D02*
X1325311D01*
X1321079D01*
X1318963Y663911D01*
X1316847Y666027D01*
Y668143D01*
X1325311Y680839D02*
Y676607D01*
X1323195Y674491D01*
X1318963D01*
X1316847Y676607D01*
Y680839D01*
X1318963Y682955D01*
X1321079D01*
Y674491D01*
X1316847Y687187D02*
X1325311Y691419D01*
X1316847Y695650D01*
X1325311Y712578D02*
X1316847D01*
X1312615Y716810D01*
X1316847Y721042D01*
X1325311D01*
X1318963D01*
Y712578D01*
X1350264Y524256D02*
Y528488D01*
Y526372D01*
X1337568D01*
X1339684Y524256D01*
Y534836D02*
X1337568Y536952D01*
Y541184D01*
X1339684Y543300D01*
X1348148D01*
X1350264Y541184D01*
Y536952D01*
X1348148Y534836D01*
X1339684D01*
X1350264Y547532D02*
X1348148D01*
Y549648D01*
X1350264D01*
Y547532D01*
Y566576D02*
Y558112D01*
X1341800Y566576D01*
X1339684D01*
X1337568Y564460D01*
Y560228D01*
X1339684Y558112D01*
Y570808D02*
X1337568Y572924D01*
Y577155D01*
X1339684Y579272D01*
X1348148D01*
X1350264Y577155D01*
Y572924D01*
X1348148Y570808D01*
X1339684D01*
X1350264Y591967D02*
Y583503D01*
X1341800Y591967D01*
X1339684D01*
X1337568Y589851D01*
Y585620D01*
X1339684Y583503D01*
Y596199D02*
X1337568Y598315D01*
Y602547D01*
X1339684Y604663D01*
X1341800D01*
X1343916Y602547D01*
Y600431D01*
Y602547D01*
X1346032Y604663D01*
X1348148D01*
X1350264Y602547D01*
Y598315D01*
X1348148Y596199D01*
D15*
X81857Y824864D02*
Y818516D01*
Y820632D01*
X86089Y824864D01*
X82915Y821690D01*
X86089Y818516D01*
X88205D02*
X90321D01*
X89263D01*
Y824864D01*
X88205Y823806D01*
X93495D02*
X94553Y824864D01*
X96669D01*
X97727Y823806D01*
Y819574D01*
X96669Y818516D01*
X94553D01*
X93495Y819574D01*
Y823806D01*
X99843Y818516D02*
Y824864D01*
X103017D01*
X104075Y823806D01*
Y821690D01*
X103017Y820632D01*
X99843D01*
X101959D02*
X104075Y818516D01*
X106191Y823806D02*
X107249Y824864D01*
X109365D01*
X110423Y823806D01*
Y822748D01*
X109365Y821690D01*
X108307D01*
X109365D01*
X110423Y820632D01*
Y819574D01*
X109365Y818516D01*
X107249D01*
X106191Y819574D01*
X116771Y818516D02*
X112539D01*
X116771Y822748D01*
Y823806D01*
X115713Y824864D01*
X113597D01*
X112539Y823806D01*
X121269Y824610D02*
Y818262D01*
Y820378D01*
X125501Y824610D01*
X122327Y821436D01*
X125501Y818262D01*
X127617D02*
X129733D01*
X128675D01*
Y824610D01*
X127617Y823552D01*
X132907D02*
X133965Y824610D01*
X136081D01*
X137139Y823552D01*
Y819320D01*
X136081Y818262D01*
X133965D01*
X132907Y819320D01*
Y823552D01*
X139255Y818262D02*
Y824610D01*
X142429D01*
X143487Y823552D01*
Y821436D01*
X142429Y820378D01*
X139255D01*
X141371D02*
X143487Y818262D01*
X145603Y823552D02*
X146661Y824610D01*
X148777D01*
X149835Y823552D01*
Y822494D01*
X148777Y821436D01*
X147719D01*
X148777D01*
X149835Y820378D01*
Y819320D01*
X148777Y818262D01*
X146661D01*
X145603Y819320D01*
X151951Y818262D02*
X154067D01*
X153009D01*
Y824610D01*
X151951Y823552D01*
X81857Y757808D02*
Y751460D01*
Y753576D01*
X86089Y757808D01*
X82915Y754634D01*
X86089Y751460D01*
X88205D02*
X90321D01*
X89263D01*
Y757808D01*
X88205Y756750D01*
X93495D02*
X94553Y757808D01*
X96669D01*
X97727Y756750D01*
Y752518D01*
X96669Y751460D01*
X94553D01*
X93495Y752518D01*
Y756750D01*
X99843Y751460D02*
Y757808D01*
X103017D01*
X104075Y756750D01*
Y754634D01*
X103017Y753576D01*
X99843D01*
X101959D02*
X104075Y751460D01*
X106191Y756750D02*
X107249Y757808D01*
X109365D01*
X110423Y756750D01*
Y755692D01*
X109365Y754634D01*
X108307D01*
X109365D01*
X110423Y753576D01*
Y752518D01*
X109365Y751460D01*
X107249D01*
X106191Y752518D01*
X112539Y756750D02*
X113597Y757808D01*
X115713D01*
X116771Y756750D01*
Y752518D01*
X115713Y751460D01*
X113597D01*
X112539Y752518D01*
Y756750D01*
X122243Y757554D02*
Y751206D01*
Y753322D01*
X126475Y757554D01*
X123301Y754380D01*
X126475Y751206D01*
X128591D02*
X130707D01*
X129649D01*
Y757554D01*
X128591Y756496D01*
X133881D02*
X134939Y757554D01*
X137055D01*
X138113Y756496D01*
Y752264D01*
X137055Y751206D01*
X134939D01*
X133881Y752264D01*
Y756496D01*
X140229Y751206D02*
Y757554D01*
X143403D01*
X144461Y756496D01*
Y754380D01*
X143403Y753322D01*
X140229D01*
X142345D02*
X144461Y751206D01*
X150809D02*
X146577D01*
X150809Y755438D01*
Y756496D01*
X149751Y757554D01*
X147635D01*
X146577Y756496D01*
X152925Y752264D02*
X153983Y751206D01*
X156099D01*
X157157Y752264D01*
Y756496D01*
X156099Y757554D01*
X153983D01*
X152925Y756496D01*
Y755438D01*
X153983Y754380D01*
X157157D01*
X86555Y783208D02*
Y776860D01*
Y778976D01*
X90787Y783208D01*
X87613Y780034D01*
X90787Y776860D01*
X92903D02*
X95019D01*
X93961D01*
Y783208D01*
X92903Y782150D01*
X98193D02*
X99251Y783208D01*
X101367D01*
X102425Y782150D01*
Y777918D01*
X101367Y776860D01*
X99251D01*
X98193Y777918D01*
Y782150D01*
X108773Y777918D02*
Y782150D01*
X107715Y783208D01*
X105599D01*
X104541Y782150D01*
Y777918D01*
X105599Y776860D01*
X107715D01*
X106657Y778976D02*
X108773Y776860D01*
X107715D02*
X108773Y777918D01*
X115121Y776860D02*
X110889D01*
X115121Y781092D01*
Y782150D01*
X114063Y783208D01*
X111947D01*
X110889Y782150D01*
X122665Y782954D02*
Y776606D01*
Y778722D01*
X126897Y782954D01*
X123723Y779780D01*
X126897Y776606D01*
X129013D02*
X131129D01*
X130071D01*
Y782954D01*
X129013Y781896D01*
X134303D02*
X135361Y782954D01*
X137477D01*
X138535Y781896D01*
Y777664D01*
X137477Y776606D01*
X135361D01*
X134303Y777664D01*
Y781896D01*
X144883Y777664D02*
Y781896D01*
X143825Y782954D01*
X141709D01*
X140651Y781896D01*
Y777664D01*
X141709Y776606D01*
X143825D01*
X142767Y778722D02*
X144883Y776606D01*
X143825D02*
X144883Y777664D01*
X146999Y776606D02*
X149115D01*
X148057D01*
Y782954D01*
X146999Y781896D01*
X85539Y745362D02*
Y739014D01*
Y741130D01*
X89771Y745362D01*
X86597Y742188D01*
X89771Y739014D01*
X91887D02*
X94003D01*
X92945D01*
Y745362D01*
X91887Y744304D01*
X97177D02*
X98235Y745362D01*
X100351D01*
X101409Y744304D01*
Y740072D01*
X100351Y739014D01*
X98235D01*
X97177Y740072D01*
Y744304D01*
X103525Y745362D02*
Y739014D01*
X106699D01*
X107757Y740072D01*
Y744304D01*
X106699Y745362D01*
X103525D01*
X114105Y739014D02*
X109873D01*
X114105Y743246D01*
Y744304D01*
X113047Y745362D01*
X110931D01*
X109873Y744304D01*
X468844Y9736D02*
X467786Y10794D01*
X465670D01*
X464612Y9736D01*
Y5504D01*
X465670Y4446D01*
X467786D01*
X468844Y5504D01*
X474134Y10794D02*
X472018D01*
X470960Y9736D01*
Y5504D01*
X472018Y4446D01*
X474134D01*
X475192Y5504D01*
Y9736D01*
X474134Y10794D01*
X477308Y4446D02*
Y10794D01*
X481540Y4446D01*
Y10794D01*
X487888D02*
X483656D01*
Y7620D01*
X485772Y8678D01*
X486830D01*
X487888Y7620D01*
Y5504D01*
X486830Y4446D01*
X484714D01*
X483656Y5504D01*
X15030Y737234D02*
Y731944D01*
X16088Y730886D01*
X18204D01*
X19262Y731944D01*
Y737234D01*
X25610Y730886D02*
X21378D01*
X25610Y735118D01*
Y736176D01*
X24552Y737234D01*
X22436D01*
X21378Y736176D01*
X610026Y657226D02*
Y663574D01*
X613200D01*
X614258Y662516D01*
Y660400D01*
X613200Y659342D01*
X610026D01*
X612142D02*
X614258Y657226D01*
X620606Y663574D02*
X618490Y662516D01*
X616374Y660400D01*
Y658284D01*
X617432Y657226D01*
X619548D01*
X620606Y658284D01*
Y659342D01*
X619548Y660400D01*
X616374D01*
X625896Y657226D02*
Y663574D01*
X622722Y660400D01*
X626954D01*
X424606Y598806D02*
Y605154D01*
X427780D01*
X428838Y604096D01*
Y601980D01*
X427780Y600922D01*
X424606D01*
X426722D02*
X428838Y598806D01*
X435186Y605154D02*
X433070Y604096D01*
X430954Y601980D01*
Y599864D01*
X432012Y598806D01*
X434128D01*
X435186Y599864D01*
Y600922D01*
X434128Y601980D01*
X430954D01*
X437302Y604096D02*
X438360Y605154D01*
X440476D01*
X441534Y604096D01*
Y603038D01*
X440476Y601980D01*
X439418D01*
X440476D01*
X441534Y600922D01*
Y599864D01*
X440476Y598806D01*
X438360D01*
X437302Y599864D01*
X609684Y523876D02*
Y530224D01*
X612859D01*
X613917Y529166D01*
Y527050D01*
X612859Y525992D01*
X609684D01*
X611800D02*
X613917Y523876D01*
X620264Y530224D02*
X618148Y529166D01*
X616032Y527050D01*
Y524934D01*
X617090Y523876D01*
X619206D01*
X620264Y524934D01*
Y525992D01*
X619206Y527050D01*
X616032D01*
X626612Y523876D02*
X622380D01*
X626612Y528108D01*
Y529166D01*
X625554Y530224D01*
X623438D01*
X622380Y529166D01*
X426934Y464186D02*
Y470534D01*
X430108D01*
X431166Y469476D01*
Y467360D01*
X430108Y466302D01*
X426934D01*
X429050D02*
X431166Y464186D01*
X437514Y470534D02*
X435398Y469476D01*
X433282Y467360D01*
Y465244D01*
X434340Y464186D01*
X436456D01*
X437514Y465244D01*
Y466302D01*
X436456Y467360D01*
X433282D01*
X439630Y464186D02*
X441746D01*
X440688D01*
Y470534D01*
X439630Y469476D01*
X610026Y390526D02*
Y396874D01*
X613200D01*
X614258Y395816D01*
Y393700D01*
X613200Y392642D01*
X610026D01*
X612142D02*
X614258Y390526D01*
X620606Y396874D02*
X618490Y395816D01*
X616374Y393700D01*
Y391584D01*
X617432Y390526D01*
X619548D01*
X620606Y391584D01*
Y392642D01*
X619548Y393700D01*
X616374D01*
X622722Y395816D02*
X623780Y396874D01*
X625896D01*
X626954Y395816D01*
Y391584D01*
X625896Y390526D01*
X623780D01*
X622722Y391584D01*
Y395816D01*
X343326Y462916D02*
Y469264D01*
X346500D01*
X347558Y468206D01*
Y466090D01*
X346500Y465032D01*
X343326D01*
X345442D02*
X347558Y462916D01*
X353906Y469264D02*
X349674D01*
Y466090D01*
X351790Y467148D01*
X352848D01*
X353906Y466090D01*
Y463974D01*
X352848Y462916D01*
X350732D01*
X349674Y463974D01*
X356022D02*
X357080Y462916D01*
X359196D01*
X360254Y463974D01*
Y468206D01*
X359196Y469264D01*
X357080D01*
X356022Y468206D01*
Y467148D01*
X357080Y466090D01*
X360254D01*
X90596Y860426D02*
Y866774D01*
X93770D01*
X94828Y865716D01*
Y863600D01*
X93770Y862542D01*
X90596D01*
X92712D02*
X94828Y860426D01*
X101176Y866774D02*
X96944D01*
Y863600D01*
X99060Y864658D01*
X100118D01*
X101176Y863600D01*
Y861484D01*
X100118Y860426D01*
X98002D01*
X96944Y861484D01*
X103292Y865716D02*
X104350Y866774D01*
X106466D01*
X107524Y865716D01*
Y864658D01*
X106466Y863600D01*
X107524Y862542D01*
Y861484D01*
X106466Y860426D01*
X104350D01*
X103292Y861484D01*
Y862542D01*
X104350Y863600D01*
X103292Y864658D01*
Y865716D01*
X104350Y863600D02*
X106466D01*
X425876Y327026D02*
Y333374D01*
X429050D01*
X430108Y332316D01*
Y330200D01*
X429050Y329142D01*
X425876D01*
X427992D02*
X430108Y327026D01*
X436456Y333374D02*
X432224D01*
Y330200D01*
X434340Y331258D01*
X435398D01*
X436456Y330200D01*
Y328084D01*
X435398Y327026D01*
X433282D01*
X432224Y328084D01*
X438572Y333374D02*
X442804D01*
Y332316D01*
X438572Y328084D01*
Y327026D01*
X128696Y596266D02*
Y602614D01*
X131870D01*
X132928Y601556D01*
Y599440D01*
X131870Y598382D01*
X128696D01*
X130812D02*
X132928Y596266D01*
X139276Y602614D02*
X135044D01*
Y599440D01*
X137160Y600498D01*
X138218D01*
X139276Y599440D01*
Y597324D01*
X138218Y596266D01*
X136102D01*
X135044Y597324D01*
X145624Y602614D02*
X143508Y601556D01*
X141392Y599440D01*
Y597324D01*
X142450Y596266D01*
X144566D01*
X145624Y597324D01*
Y598382D01*
X144566Y599440D01*
X141392D01*
X128696Y189866D02*
Y196214D01*
X131870D01*
X132928Y195156D01*
Y193040D01*
X131870Y191982D01*
X128696D01*
X130812D02*
X132928Y189866D01*
X139276Y196214D02*
X135044D01*
Y193040D01*
X137160Y194098D01*
X138218D01*
X139276Y193040D01*
Y190924D01*
X138218Y189866D01*
X136102D01*
X135044Y190924D01*
X145624Y196214D02*
X141392D01*
Y193040D01*
X143508Y194098D01*
X144566D01*
X145624Y193040D01*
Y190924D01*
X144566Y189866D01*
X142450D01*
X141392Y190924D01*
X128696Y461646D02*
Y467994D01*
X131870D01*
X132928Y466936D01*
Y464820D01*
X131870Y463762D01*
X128696D01*
X130812D02*
X132928Y461646D01*
X139276Y467994D02*
X135044D01*
Y464820D01*
X137160Y465878D01*
X138218D01*
X139276Y464820D01*
Y462704D01*
X138218Y461646D01*
X136102D01*
X135044Y462704D01*
X144566Y461646D02*
Y467994D01*
X141392Y464820D01*
X145624D01*
X209976Y189866D02*
Y196214D01*
X213150D01*
X214208Y195156D01*
Y193040D01*
X213150Y191982D01*
X209976D01*
X212092D02*
X214208Y189866D01*
X220556Y196214D02*
X216324D01*
Y193040D01*
X218440Y194098D01*
X219498D01*
X220556Y193040D01*
Y190924D01*
X219498Y189866D01*
X217382D01*
X216324Y190924D01*
X222672Y195156D02*
X223730Y196214D01*
X225846D01*
X226904Y195156D01*
Y194098D01*
X225846Y193040D01*
X224788D01*
X225846D01*
X226904Y191982D01*
Y190924D01*
X225846Y189866D01*
X223730D01*
X222672Y190924D01*
X127426Y325756D02*
Y332104D01*
X130600D01*
X131658Y331046D01*
Y328930D01*
X130600Y327872D01*
X127426D01*
X129542D02*
X131658Y325756D01*
X138006Y332104D02*
X133774D01*
Y328930D01*
X135890Y329988D01*
X136948D01*
X138006Y328930D01*
Y326814D01*
X136948Y325756D01*
X134832D01*
X133774Y326814D01*
X144354Y325756D02*
X140122D01*
X144354Y329988D01*
Y331046D01*
X143296Y332104D01*
X141180D01*
X140122Y331046D01*
X293584Y189866D02*
Y196214D01*
X296758D01*
X297816Y195156D01*
Y193040D01*
X296758Y191982D01*
X293584D01*
X295700D02*
X297816Y189866D01*
X304164Y196214D02*
X299932D01*
Y193040D01*
X302048Y194098D01*
X303106D01*
X304164Y193040D01*
Y190924D01*
X303106Y189866D01*
X300990D01*
X299932Y190924D01*
X306280Y189866D02*
X308396D01*
X307338D01*
Y196214D01*
X306280Y195156D01*
X209976Y325756D02*
Y332104D01*
X213150D01*
X214208Y331046D01*
Y328930D01*
X213150Y327872D01*
X209976D01*
X212092D02*
X214208Y325756D01*
X220556Y332104D02*
X216324D01*
Y328930D01*
X218440Y329988D01*
X219498D01*
X220556Y328930D01*
Y326814D01*
X219498Y325756D01*
X217382D01*
X216324Y326814D01*
X222672Y331046D02*
X223730Y332104D01*
X225846D01*
X226904Y331046D01*
Y326814D01*
X225846Y325756D01*
X223730D01*
X222672Y326814D01*
Y331046D01*
X372536Y189866D02*
Y196214D01*
X375710D01*
X376768Y195156D01*
Y193040D01*
X375710Y191982D01*
X372536D01*
X374652D02*
X376768Y189866D01*
X382058D02*
Y196214D01*
X378884Y193040D01*
X383116D01*
X385232Y190924D02*
X386290Y189866D01*
X388406D01*
X389464Y190924D01*
Y195156D01*
X388406Y196214D01*
X386290D01*
X385232Y195156D01*
Y194098D01*
X386290Y193040D01*
X389464D01*
X573196Y657226D02*
Y663574D01*
X576370D01*
X577428Y662516D01*
Y660400D01*
X576370Y659342D01*
X573196D01*
X575312D02*
X577428Y657226D01*
X582718D02*
Y663574D01*
X579544Y660400D01*
X583776D01*
X585892Y662516D02*
X586950Y663574D01*
X589066D01*
X590124Y662516D01*
Y661458D01*
X589066Y660400D01*
X590124Y659342D01*
Y658284D01*
X589066Y657226D01*
X586950D01*
X585892Y658284D01*
Y659342D01*
X586950Y660400D01*
X585892Y661458D01*
Y662516D01*
X586950Y660400D02*
X589066D01*
X389046Y598806D02*
Y605154D01*
X392220D01*
X393278Y604096D01*
Y601980D01*
X392220Y600922D01*
X389046D01*
X391162D02*
X393278Y598806D01*
X398568D02*
Y605154D01*
X395394Y601980D01*
X399626D01*
X401742Y605154D02*
X405974D01*
Y604096D01*
X401742Y599864D01*
Y598806D01*
X572854Y523876D02*
Y530224D01*
X576029D01*
X577086Y529166D01*
Y527050D01*
X576029Y525992D01*
X572854D01*
X574971D02*
X577086Y523876D01*
X582376D02*
Y530224D01*
X579202Y527050D01*
X583434D01*
X589782Y530224D02*
X587666Y529166D01*
X585550Y527050D01*
Y524934D01*
X586608Y523876D01*
X588724D01*
X589782Y524934D01*
Y525992D01*
X588724Y527050D01*
X585550D01*
X389046Y464186D02*
Y470534D01*
X392220D01*
X393278Y469476D01*
Y467360D01*
X392220Y466302D01*
X389046D01*
X391162D02*
X393278Y464186D01*
X398568D02*
Y470534D01*
X395394Y467360D01*
X399626D01*
X405974Y470534D02*
X401742D01*
Y467360D01*
X403858Y468418D01*
X404916D01*
X405974Y467360D01*
Y465244D01*
X404916Y464186D01*
X402800D01*
X401742Y465244D01*
X573196Y390526D02*
Y396874D01*
X576370D01*
X577428Y395816D01*
Y393700D01*
X576370Y392642D01*
X573196D01*
X575312D02*
X577428Y390526D01*
X582718D02*
Y396874D01*
X579544Y393700D01*
X583776D01*
X589066Y390526D02*
Y396874D01*
X585892Y393700D01*
X590124D01*
X306496Y462916D02*
Y469264D01*
X309670D01*
X310728Y468206D01*
Y466090D01*
X309670Y465032D01*
X306496D01*
X308612D02*
X310728Y462916D01*
X316018D02*
Y469264D01*
X312844Y466090D01*
X317076D01*
X319192Y468206D02*
X320250Y469264D01*
X322366D01*
X323424Y468206D01*
Y467148D01*
X322366Y466090D01*
X321308D01*
X322366D01*
X323424Y465032D01*
Y463974D01*
X322366Y462916D01*
X320250D01*
X319192Y463974D01*
X126156Y860426D02*
Y866774D01*
X129330D01*
X130388Y865716D01*
Y863600D01*
X129330Y862542D01*
X126156D01*
X128272D02*
X130388Y860426D01*
X135678D02*
Y866774D01*
X132504Y863600D01*
X136736D01*
X143084Y860426D02*
X138852D01*
X143084Y864658D01*
Y865716D01*
X142026Y866774D01*
X139910D01*
X138852Y865716D01*
X388834Y327026D02*
Y333374D01*
X392008D01*
X393066Y332316D01*
Y330200D01*
X392008Y329142D01*
X388834D01*
X390950D02*
X393066Y327026D01*
X398356D02*
Y333374D01*
X395182Y330200D01*
X399414D01*
X401530Y327026D02*
X403646D01*
X402588D01*
Y333374D01*
X401530Y332316D01*
X91866Y596266D02*
Y602614D01*
X95040D01*
X96098Y601556D01*
Y599440D01*
X95040Y598382D01*
X91866D01*
X93982D02*
X96098Y596266D01*
X101388D02*
Y602614D01*
X98214Y599440D01*
X102446D01*
X104562Y601556D02*
X105620Y602614D01*
X107736D01*
X108794Y601556D01*
Y597324D01*
X107736Y596266D01*
X105620D01*
X104562Y597324D01*
Y601556D01*
X90596Y189866D02*
Y196214D01*
X93770D01*
X94828Y195156D01*
Y193040D01*
X93770Y191982D01*
X90596D01*
X92712D02*
X94828Y189866D01*
X96944Y195156D02*
X98002Y196214D01*
X100118D01*
X101176Y195156D01*
Y194098D01*
X100118Y193040D01*
X99060D01*
X100118D01*
X101176Y191982D01*
Y190924D01*
X100118Y189866D01*
X98002D01*
X96944Y190924D01*
X103292D02*
X104350Y189866D01*
X106466D01*
X107524Y190924D01*
Y195156D01*
X106466Y196214D01*
X104350D01*
X103292Y195156D01*
Y194098D01*
X104350Y193040D01*
X107524D01*
X91866Y461646D02*
Y467994D01*
X95040D01*
X96098Y466936D01*
Y464820D01*
X95040Y463762D01*
X91866D01*
X93982D02*
X96098Y461646D01*
X98214Y466936D02*
X99272Y467994D01*
X101388D01*
X102446Y466936D01*
Y465878D01*
X101388Y464820D01*
X100330D01*
X101388D01*
X102446Y463762D01*
Y462704D01*
X101388Y461646D01*
X99272D01*
X98214Y462704D01*
X104562Y466936D02*
X105620Y467994D01*
X107736D01*
X108794Y466936D01*
Y465878D01*
X107736Y464820D01*
X108794Y463762D01*
Y462704D01*
X107736Y461646D01*
X105620D01*
X104562Y462704D01*
Y463762D01*
X105620Y464820D01*
X104562Y465878D01*
Y466936D01*
X105620Y464820D02*
X107736D01*
X173146Y189866D02*
Y196214D01*
X176320D01*
X177378Y195156D01*
Y193040D01*
X176320Y191982D01*
X173146D01*
X175262D02*
X177378Y189866D01*
X179494Y195156D02*
X180552Y196214D01*
X182668D01*
X183726Y195156D01*
Y194098D01*
X182668Y193040D01*
X181610D01*
X182668D01*
X183726Y191982D01*
Y190924D01*
X182668Y189866D01*
X180552D01*
X179494Y190924D01*
X185842Y196214D02*
X190074D01*
Y195156D01*
X185842Y190924D01*
Y189866D01*
X90596Y325756D02*
Y332104D01*
X93770D01*
X94828Y331046D01*
Y328930D01*
X93770Y327872D01*
X90596D01*
X92712D02*
X94828Y325756D01*
X96944Y331046D02*
X98002Y332104D01*
X100118D01*
X101176Y331046D01*
Y329988D01*
X100118Y328930D01*
X99060D01*
X100118D01*
X101176Y327872D01*
Y326814D01*
X100118Y325756D01*
X98002D01*
X96944Y326814D01*
X107524Y332104D02*
X105408Y331046D01*
X103292Y328930D01*
Y326814D01*
X104350Y325756D01*
X106466D01*
X107524Y326814D01*
Y327872D01*
X106466Y328930D01*
X103292D01*
X255696Y189866D02*
Y196214D01*
X258870D01*
X259928Y195156D01*
Y193040D01*
X258870Y191982D01*
X255696D01*
X257812D02*
X259928Y189866D01*
X262044Y195156D02*
X263102Y196214D01*
X265218D01*
X266276Y195156D01*
Y194098D01*
X265218Y193040D01*
X264160D01*
X265218D01*
X266276Y191982D01*
Y190924D01*
X265218Y189866D01*
X263102D01*
X262044Y190924D01*
X272624Y196214D02*
X268392D01*
Y193040D01*
X270508Y194098D01*
X271566D01*
X272624Y193040D01*
Y190924D01*
X271566Y189866D01*
X269450D01*
X268392Y190924D01*
X173146Y325756D02*
Y332104D01*
X176320D01*
X177378Y331046D01*
Y328930D01*
X176320Y327872D01*
X173146D01*
X175262D02*
X177378Y325756D01*
X179494Y331046D02*
X180552Y332104D01*
X182668D01*
X183726Y331046D01*
Y329988D01*
X182668Y328930D01*
X181610D01*
X182668D01*
X183726Y327872D01*
Y326814D01*
X182668Y325756D01*
X180552D01*
X179494Y326814D01*
X189016Y325756D02*
Y332104D01*
X185842Y328930D01*
X190074D01*
X335706Y189866D02*
Y196214D01*
X338880D01*
X339938Y195156D01*
Y193040D01*
X338880Y191982D01*
X335706D01*
X337822D02*
X339938Y189866D01*
X342054Y195156D02*
X343112Y196214D01*
X345228D01*
X346286Y195156D01*
Y194098D01*
X345228Y193040D01*
X344170D01*
X345228D01*
X346286Y191982D01*
Y190924D01*
X345228Y189866D01*
X343112D01*
X342054Y190924D01*
X348402Y195156D02*
X349460Y196214D01*
X351576D01*
X352634Y195156D01*
Y194098D01*
X351576Y193040D01*
X350518D01*
X351576D01*
X352634Y191982D01*
Y190924D01*
X351576Y189866D01*
X349460D01*
X348402Y190924D01*
X418256Y121286D02*
Y127634D01*
X421430D01*
X422488Y126576D01*
Y124460D01*
X421430Y123402D01*
X418256D01*
X420372D02*
X422488Y121286D01*
X428836D02*
X424604D01*
X428836Y125518D01*
Y126576D01*
X427778Y127634D01*
X425662D01*
X424604Y126576D01*
X430952D02*
X432010Y127634D01*
X434126D01*
X435184Y126576D01*
Y125518D01*
X434126Y124460D01*
X435184Y123402D01*
Y122344D01*
X434126Y121286D01*
X432010D01*
X430952Y122344D01*
Y123402D01*
X432010Y124460D01*
X430952Y125518D01*
Y126576D01*
X432010Y124460D02*
X434126D01*
X330626Y78106D02*
Y84454D01*
X333800D01*
X334858Y83396D01*
Y81280D01*
X333800Y80222D01*
X330626D01*
X332742D02*
X334858Y78106D01*
X341206D02*
X336974D01*
X341206Y82338D01*
Y83396D01*
X340148Y84454D01*
X338032D01*
X336974Y83396D01*
X343322Y84454D02*
X347554D01*
Y83396D01*
X343322Y79164D01*
Y78106D01*
X334436Y121286D02*
Y127634D01*
X337610D01*
X338668Y126576D01*
Y124460D01*
X337610Y123402D01*
X334436D01*
X336552D02*
X338668Y121286D01*
X345016D02*
X340784D01*
X345016Y125518D01*
Y126576D01*
X343958Y127634D01*
X341842D01*
X340784Y126576D01*
X351364Y127634D02*
X349248Y126576D01*
X347132Y124460D01*
Y122344D01*
X348190Y121286D01*
X350306D01*
X351364Y122344D01*
Y123402D01*
X350306Y124460D01*
X347132D01*
X292526Y78106D02*
Y84454D01*
X295700D01*
X296758Y83396D01*
Y81280D01*
X295700Y80222D01*
X292526D01*
X294642D02*
X296758Y78106D01*
X303106D02*
X298874D01*
X303106Y82338D01*
Y83396D01*
X302048Y84454D01*
X299932D01*
X298874Y83396D01*
X309454Y84454D02*
X305222D01*
Y81280D01*
X307338Y82338D01*
X308396D01*
X309454Y81280D01*
Y79164D01*
X308396Y78106D01*
X306280D01*
X305222Y79164D01*
X568116Y325756D02*
Y332104D01*
X571290D01*
X572348Y331046D01*
Y328930D01*
X571290Y327872D01*
X568116D01*
X570232D02*
X572348Y325756D01*
X578696D02*
X574464D01*
X578696Y329988D01*
Y331046D01*
X577638Y332104D01*
X575522D01*
X574464Y331046D01*
X583986Y325756D02*
Y332104D01*
X580812Y328930D01*
X585044D01*
X251886Y78106D02*
Y84454D01*
X255060D01*
X256118Y83396D01*
Y81280D01*
X255060Y80222D01*
X251886D01*
X254002D02*
X256118Y78106D01*
X262466D02*
X258234D01*
X262466Y82338D01*
Y83396D01*
X261408Y84454D01*
X259292D01*
X258234Y83396D01*
X264582D02*
X265640Y84454D01*
X267756D01*
X268814Y83396D01*
Y82338D01*
X267756Y81280D01*
X266698D01*
X267756D01*
X268814Y80222D01*
Y79164D01*
X267756Y78106D01*
X265640D01*
X264582Y79164D01*
X77896Y78106D02*
Y84454D01*
X81070D01*
X82128Y83396D01*
Y81280D01*
X81070Y80222D01*
X77896D01*
X80012D02*
X82128Y78106D01*
X88476D02*
X84244D01*
X88476Y82338D01*
Y83396D01*
X87418Y84454D01*
X85302D01*
X84244Y83396D01*
X94824Y78106D02*
X90592D01*
X94824Y82338D01*
Y83396D01*
X93766Y84454D01*
X91650D01*
X90592Y83396D01*
X123404Y78106D02*
Y84454D01*
X126578D01*
X127636Y83396D01*
Y81280D01*
X126578Y80222D01*
X123404D01*
X125520D02*
X127636Y78106D01*
X133984D02*
X129752D01*
X133984Y82338D01*
Y83396D01*
X132926Y84454D01*
X130810D01*
X129752Y83396D01*
X136100Y78106D02*
X138216D01*
X137158D01*
Y84454D01*
X136100Y83396D01*
X165526Y78106D02*
Y84454D01*
X168700D01*
X169758Y83396D01*
Y81280D01*
X168700Y80222D01*
X165526D01*
X167642D02*
X169758Y78106D01*
X176106D02*
X171874D01*
X176106Y82338D01*
Y83396D01*
X175048Y84454D01*
X172932D01*
X171874Y83396D01*
X178222D02*
X179280Y84454D01*
X181396D01*
X182454Y83396D01*
Y79164D01*
X181396Y78106D01*
X179280D01*
X178222Y79164D01*
Y83396D01*
X205425Y78106D02*
Y84454D01*
X208599D01*
X209657Y83396D01*
Y81280D01*
X208599Y80222D01*
X205425D01*
X207541D02*
X209657Y78106D01*
X211773D02*
X213889D01*
X212831D01*
Y84454D01*
X211773Y83396D01*
X217063Y79164D02*
X218121Y78106D01*
X220237D01*
X221295Y79164D01*
Y83396D01*
X220237Y84454D01*
X218121D01*
X217063Y83396D01*
Y82338D01*
X218121Y81280D01*
X221295D01*
X73345Y125096D02*
Y131444D01*
X76519D01*
X77577Y130386D01*
Y128270D01*
X76519Y127212D01*
X73345D01*
X75461D02*
X77577Y125096D01*
X79693D02*
X81809D01*
X80751D01*
Y131444D01*
X79693Y130386D01*
X84983D02*
X86041Y131444D01*
X88157D01*
X89215Y130386D01*
Y129328D01*
X88157Y128270D01*
X89215Y127212D01*
Y126154D01*
X88157Y125096D01*
X86041D01*
X84983Y126154D01*
Y127212D01*
X86041Y128270D01*
X84983Y129328D01*
Y130386D01*
X86041Y128270D02*
X88157D01*
X122875Y121286D02*
Y127634D01*
X126049D01*
X127107Y126576D01*
Y124460D01*
X126049Y123402D01*
X122875D01*
X124991D02*
X127107Y121286D01*
X129223D02*
X131339D01*
X130281D01*
Y127634D01*
X129223Y126576D01*
X134513Y127634D02*
X138745D01*
Y126576D01*
X134513Y122344D01*
Y121286D01*
X164785D02*
Y127634D01*
X167959D01*
X169017Y126576D01*
Y124460D01*
X167959Y123402D01*
X164785D01*
X166901D02*
X169017Y121286D01*
X171133D02*
X173249D01*
X172191D01*
Y127634D01*
X171133Y126576D01*
X180655Y127634D02*
X178539Y126576D01*
X176423Y124460D01*
Y122344D01*
X177481Y121286D01*
X179597D01*
X180655Y122344D01*
Y123402D01*
X179597Y124460D01*
X176423D01*
X209235Y120016D02*
Y126364D01*
X212409D01*
X213467Y125306D01*
Y123190D01*
X212409Y122132D01*
X209235D01*
X211351D02*
X213467Y120016D01*
X215583D02*
X217699D01*
X216641D01*
Y126364D01*
X215583Y125306D01*
X225105Y126364D02*
X220873D01*
Y123190D01*
X222989Y124248D01*
X224047D01*
X225105Y123190D01*
Y121074D01*
X224047Y120016D01*
X221931D01*
X220873Y121074D01*
X249875Y121286D02*
Y127634D01*
X253049D01*
X254107Y126576D01*
Y124460D01*
X253049Y123402D01*
X249875D01*
X251991D02*
X254107Y121286D01*
X256223D02*
X258339D01*
X257281D01*
Y127634D01*
X256223Y126576D01*
X264687Y121286D02*
Y127634D01*
X261513Y124460D01*
X265745D01*
X293055Y121286D02*
Y127634D01*
X296229D01*
X297287Y126576D01*
Y124460D01*
X296229Y123402D01*
X293055D01*
X295171D02*
X297287Y121286D01*
X299403D02*
X301519D01*
X300461D01*
Y127634D01*
X299403Y126576D01*
X304693D02*
X305751Y127634D01*
X307867D01*
X308925Y126576D01*
Y125518D01*
X307867Y124460D01*
X306809D01*
X307867D01*
X308925Y123402D01*
Y122344D01*
X307867Y121286D01*
X305751D01*
X304693Y122344D01*
X602860Y686434D02*
Y680086D01*
Y682202D01*
X607092Y686434D01*
X603918Y683260D01*
X607092Y680086D01*
X609208D02*
X611324D01*
X610266D01*
Y686434D01*
X609208Y685376D01*
X618730Y686434D02*
X616614Y685376D01*
X614498Y683260D01*
Y681144D01*
X615556Y680086D01*
X617672D01*
X618730Y681144D01*
Y682202D01*
X617672Y683260D01*
X614498D01*
X620846Y680086D02*
Y686434D01*
X624020D01*
X625078Y685376D01*
Y683260D01*
X624020Y682202D01*
X620846D01*
X622962D02*
X625078Y680086D01*
X627194Y685376D02*
X628252Y686434D01*
X630368D01*
X631426Y685376D01*
Y684318D01*
X630368Y683260D01*
X629310D01*
X630368D01*
X631426Y682202D01*
Y681144D01*
X630368Y680086D01*
X628252D01*
X627194Y681144D01*
X637774Y680086D02*
X633542D01*
X637774Y684318D01*
Y685376D01*
X636716Y686434D01*
X634600D01*
X633542Y685376D01*
X562442Y686434D02*
Y680086D01*
Y682202D01*
X566674Y686434D01*
X563500Y683260D01*
X566674Y680086D01*
X568790D02*
X570906D01*
X569848D01*
Y686434D01*
X568790Y685376D01*
X578312Y686434D02*
X576196Y685376D01*
X574080Y683260D01*
Y681144D01*
X575138Y680086D01*
X577254D01*
X578312Y681144D01*
Y682202D01*
X577254Y683260D01*
X574080D01*
X580428Y680086D02*
Y686434D01*
X583602D01*
X584660Y685376D01*
Y683260D01*
X583602Y682202D01*
X580428D01*
X582544D02*
X584660Y680086D01*
X586776Y685376D02*
X587834Y686434D01*
X589950D01*
X591008Y685376D01*
Y684318D01*
X589950Y683260D01*
X588892D01*
X589950D01*
X591008Y682202D01*
Y681144D01*
X589950Y680086D01*
X587834D01*
X586776Y681144D01*
X593124Y680086D02*
X595240D01*
X594182D01*
Y686434D01*
X593124Y685376D01*
X602255Y752962D02*
Y746614D01*
Y748730D01*
X606487Y752962D01*
X603313Y749788D01*
X606487Y746614D01*
X608603D02*
X610719D01*
X609661D01*
Y752962D01*
X608603Y751904D01*
X618125Y752962D02*
X616009Y751904D01*
X613893Y749788D01*
Y747672D01*
X614951Y746614D01*
X617067D01*
X618125Y747672D01*
Y748730D01*
X617067Y749788D01*
X613893D01*
X620241Y746614D02*
Y752962D01*
X623415D01*
X624473Y751904D01*
Y749788D01*
X623415Y748730D01*
X620241D01*
X622357D02*
X624473Y746614D01*
X626589Y751904D02*
X627646Y752962D01*
X629762D01*
X630821Y751904D01*
Y750846D01*
X629762Y749788D01*
X628704D01*
X629762D01*
X630821Y748730D01*
Y747672D01*
X629762Y746614D01*
X627646D01*
X626589Y747672D01*
X632937Y751904D02*
X633994Y752962D01*
X636110D01*
X637169Y751904D01*
Y747672D01*
X636110Y746614D01*
X633994D01*
X632937Y747672D01*
Y751904D01*
X561938Y752962D02*
Y746614D01*
Y748730D01*
X566170Y752962D01*
X562996Y749788D01*
X566170Y746614D01*
X568286D02*
X570402D01*
X569344D01*
Y752962D01*
X568286Y751904D01*
X577808Y752962D02*
X575692Y751904D01*
X573576Y749788D01*
Y747672D01*
X574634Y746614D01*
X576750D01*
X577808Y747672D01*
Y748730D01*
X576750Y749788D01*
X573576D01*
X579924Y746614D02*
Y752962D01*
X583098D01*
X584156Y751904D01*
Y749788D01*
X583098Y748730D01*
X579924D01*
X582040D02*
X584156Y746614D01*
X590504D02*
X586272D01*
X590504Y750846D01*
Y751904D01*
X589446Y752962D01*
X587330D01*
X586272Y751904D01*
X592620Y747672D02*
X593678Y746614D01*
X595794D01*
X596852Y747672D01*
Y751904D01*
X595794Y752962D01*
X593678D01*
X592620Y751904D01*
Y750846D01*
X593678Y749788D01*
X596852D01*
X601619Y728832D02*
Y722484D01*
Y724600D01*
X605851Y728832D01*
X602677Y725658D01*
X605851Y722484D01*
X607967D02*
X610083D01*
X609025D01*
Y728832D01*
X607967Y727774D01*
X617489Y728832D02*
X615373Y727774D01*
X613257Y725658D01*
Y723542D01*
X614315Y722484D01*
X616431D01*
X617489Y723542D01*
Y724600D01*
X616431Y725658D01*
X613257D01*
X623837Y723542D02*
Y727774D01*
X622779Y728832D01*
X620663D01*
X619605Y727774D01*
Y723542D01*
X620663Y722484D01*
X622779D01*
X621721Y724600D02*
X623837Y722484D01*
X622779D02*
X623837Y723542D01*
X630185Y722484D02*
X625952D01*
X630185Y726716D01*
Y727774D01*
X629127Y728832D01*
X627010D01*
X625952Y727774D01*
X565847Y728832D02*
Y722484D01*
Y724600D01*
X570079Y728832D01*
X566905Y725658D01*
X570079Y722484D01*
X572195D02*
X574311D01*
X573253D01*
Y728832D01*
X572195Y727774D01*
X581717Y728832D02*
X579601Y727774D01*
X577485Y725658D01*
Y723542D01*
X578543Y722484D01*
X580659D01*
X581717Y723542D01*
Y724600D01*
X580659Y725658D01*
X577485D01*
X588065Y723542D02*
Y727774D01*
X587007Y728832D01*
X584891D01*
X583833Y727774D01*
Y723542D01*
X584891Y722484D01*
X587007D01*
X585949Y724600D02*
X588065Y722484D01*
X587007D02*
X588065Y723542D01*
X590181Y722484D02*
X592296D01*
X591239D01*
Y728832D01*
X590181Y727774D01*
X1216135Y746124D02*
Y739776D01*
Y741892D01*
X1220367Y746124D01*
X1217193Y742950D01*
X1220367Y739776D01*
X1222483D02*
X1224599D01*
X1223541D01*
Y746124D01*
X1222483Y745066D01*
X1232005Y746124D02*
X1229889Y745066D01*
X1227773Y742950D01*
Y740834D01*
X1228831Y739776D01*
X1230947D01*
X1232005Y740834D01*
Y741892D01*
X1230947Y742950D01*
X1227773D01*
X1234121Y746124D02*
Y739776D01*
Y741892D01*
X1238353Y746124D01*
X1235179Y742950D01*
X1238353Y739776D01*
X1240469D02*
X1242585D01*
X1241527D01*
Y746124D01*
X1240469Y745066D01*
X601932Y765662D02*
Y759314D01*
Y761430D01*
X606164Y765662D01*
X602990Y762488D01*
X606164Y759314D01*
X608280D02*
X610396D01*
X609338D01*
Y765662D01*
X608280Y764604D01*
X617802Y765662D02*
X615686Y764604D01*
X613569Y762488D01*
Y760372D01*
X614627Y759314D01*
X616744D01*
X617802Y760372D01*
Y761430D01*
X616744Y762488D01*
X613569D01*
X619917Y765662D02*
Y759314D01*
X623091D01*
X624149Y760372D01*
Y764604D01*
X623091Y765662D01*
X619917D01*
X630497Y759314D02*
X626265D01*
X630497Y763546D01*
Y764604D01*
X629439Y765662D01*
X627323D01*
X626265Y764604D01*
X417488Y647064D02*
Y640716D01*
Y642832D01*
X421720Y647064D01*
X418546Y643890D01*
X421720Y640716D01*
X423836D02*
X425952D01*
X424894D01*
Y647064D01*
X423836Y646006D01*
X433358Y647064D02*
X429126D01*
Y643890D01*
X431242Y644948D01*
X432300D01*
X433358Y643890D01*
Y641774D01*
X432300Y640716D01*
X430184D01*
X429126Y641774D01*
X435474Y640716D02*
Y647064D01*
X438648D01*
X439706Y646006D01*
Y643890D01*
X438648Y642832D01*
X435474D01*
X437590D02*
X439706Y640716D01*
X441822Y646006D02*
X442880Y647064D01*
X444996D01*
X446054Y646006D01*
Y644948D01*
X444996Y643890D01*
X443938D01*
X444996D01*
X446054Y642832D01*
Y641774D01*
X444996Y640716D01*
X442880D01*
X441822Y641774D01*
X452402Y640716D02*
X448170D01*
X452402Y644948D01*
Y646006D01*
X451344Y647064D01*
X449228D01*
X448170Y646006D01*
X377071Y647064D02*
Y640716D01*
Y642832D01*
X381303Y647064D01*
X378129Y643890D01*
X381303Y640716D01*
X383419D02*
X385535D01*
X384477D01*
Y647064D01*
X383419Y646006D01*
X392940Y647064D02*
X388709D01*
Y643890D01*
X390825Y644948D01*
X391883D01*
X392940Y643890D01*
Y641774D01*
X391883Y640716D01*
X389767D01*
X388709Y641774D01*
X395056Y640716D02*
Y647064D01*
X398231D01*
X399288Y646006D01*
Y643890D01*
X398231Y642832D01*
X395056D01*
X397173D02*
X399288Y640716D01*
X401404Y646006D02*
X402462Y647064D01*
X404578D01*
X405636Y646006D01*
Y644948D01*
X404578Y643890D01*
X403520D01*
X404578D01*
X405636Y642832D01*
Y641774D01*
X404578Y640716D01*
X402462D01*
X401404Y641774D01*
X407752Y640716D02*
X409868D01*
X408810D01*
Y647064D01*
X407752Y646006D01*
X416883Y713592D02*
Y707244D01*
Y709360D01*
X421115Y713592D01*
X417941Y710418D01*
X421115Y707244D01*
X423231D02*
X425347D01*
X424289D01*
Y713592D01*
X423231Y712534D01*
X432753Y713592D02*
X428521D01*
Y710418D01*
X430637Y711476D01*
X431695D01*
X432753Y710418D01*
Y708302D01*
X431695Y707244D01*
X429579D01*
X428521Y708302D01*
X434869Y707244D02*
Y713592D01*
X438043D01*
X439101Y712534D01*
Y710418D01*
X438043Y709360D01*
X434869D01*
X436985D02*
X439101Y707244D01*
X441217Y712534D02*
X442275Y713592D01*
X444391D01*
X445449Y712534D01*
Y711476D01*
X444391Y710418D01*
X443333D01*
X444391D01*
X445449Y709360D01*
Y708302D01*
X444391Y707244D01*
X442275D01*
X441217Y708302D01*
X447565Y712534D02*
X448623Y713592D01*
X450739D01*
X451797Y712534D01*
Y708302D01*
X450739Y707244D01*
X448623D01*
X447565Y708302D01*
Y712534D01*
X376566Y713592D02*
Y707244D01*
Y709360D01*
X380798Y713592D01*
X377624Y710418D01*
X380798Y707244D01*
X382914D02*
X385030D01*
X383972D01*
Y713592D01*
X382914Y712534D01*
X392436Y713592D02*
X388204D01*
Y710418D01*
X390320Y711476D01*
X391378D01*
X392436Y710418D01*
Y708302D01*
X391378Y707244D01*
X389262D01*
X388204Y708302D01*
X394552Y707244D02*
Y713592D01*
X397726D01*
X398784Y712534D01*
Y710418D01*
X397726Y709360D01*
X394552D01*
X396668D02*
X398784Y707244D01*
X405132D02*
X400900D01*
X405132Y711476D01*
Y712534D01*
X404074Y713592D01*
X401958D01*
X400900Y712534D01*
X407248Y708302D02*
X408306Y707244D01*
X410422D01*
X411480Y708302D01*
Y712534D01*
X410422Y713592D01*
X408306D01*
X407248Y712534D01*
Y711476D01*
X408306Y710418D01*
X411480D01*
X416247Y689462D02*
Y683114D01*
Y685230D01*
X420479Y689462D01*
X417305Y686288D01*
X420479Y683114D01*
X422595D02*
X424711D01*
X423653D01*
Y689462D01*
X422595Y688404D01*
X432117Y689462D02*
X427885D01*
Y686288D01*
X430001Y687346D01*
X431059D01*
X432117Y686288D01*
Y684172D01*
X431059Y683114D01*
X428943D01*
X427885Y684172D01*
X438465D02*
Y688404D01*
X437407Y689462D01*
X435291D01*
X434233Y688404D01*
Y684172D01*
X435291Y683114D01*
X437407D01*
X436349Y685230D02*
X438465Y683114D01*
X437407D02*
X438465Y684172D01*
X444813Y683114D02*
X440581D01*
X444813Y687346D01*
Y688404D01*
X443755Y689462D01*
X441639D01*
X440581Y688404D01*
X380475Y689462D02*
Y683114D01*
Y685230D01*
X384707Y689462D01*
X381533Y686288D01*
X384707Y683114D01*
X386823D02*
X388939D01*
X387881D01*
Y689462D01*
X386823Y688404D01*
X396345Y689462D02*
X392113D01*
Y686288D01*
X394229Y687346D01*
X395287D01*
X396345Y686288D01*
Y684172D01*
X395287Y683114D01*
X393171D01*
X392113Y684172D01*
X402693D02*
Y688404D01*
X401635Y689462D01*
X399519D01*
X398461Y688404D01*
Y684172D01*
X399519Y683114D01*
X401635D01*
X400577Y685230D02*
X402693Y683114D01*
X401635D02*
X402693Y684172D01*
X404809Y683114D02*
X406925D01*
X405867D01*
Y689462D01*
X404809Y688404D01*
X1292226Y311895D02*
X1298574D01*
X1296458D01*
X1292226Y316127D01*
X1295400Y312953D01*
X1298574Y316127D01*
Y318243D02*
Y320359D01*
Y319301D01*
X1292226D01*
X1293284Y318243D01*
X1292226Y327765D02*
Y323533D01*
X1295400D01*
X1294342Y325649D01*
Y326707D01*
X1295400Y327765D01*
X1297516D01*
X1298574Y326707D01*
Y324591D01*
X1297516Y323533D01*
X1292226Y329881D02*
X1298574D01*
X1296458D01*
X1292226Y334113D01*
X1295400Y330939D01*
X1298574Y334113D01*
Y336229D02*
Y338345D01*
Y337287D01*
X1292226D01*
X1293284Y336229D01*
X416560Y726292D02*
Y719944D01*
Y722060D01*
X420792Y726292D01*
X417618Y723118D01*
X420792Y719944D01*
X422908D02*
X425024D01*
X423966D01*
Y726292D01*
X422908Y725234D01*
X432430Y726292D02*
X428198D01*
Y723118D01*
X430314Y724176D01*
X431372D01*
X432430Y723118D01*
Y721002D01*
X431372Y719944D01*
X429256D01*
X428198Y721002D01*
X434546Y726292D02*
Y719944D01*
X437720D01*
X438778Y721002D01*
Y725234D01*
X437720Y726292D01*
X434546D01*
X445126Y719944D02*
X440894D01*
X445126Y724176D01*
Y725234D01*
X444068Y726292D01*
X441952D01*
X440894Y725234D01*
X602908Y553866D02*
Y547518D01*
Y549634D01*
X607140Y553866D01*
X603966Y550692D01*
X607140Y547518D01*
X609256D02*
X611372D01*
X610314D01*
Y553866D01*
X609256Y552808D01*
X617720Y547518D02*
Y553866D01*
X614546Y550692D01*
X618778D01*
X620894Y547518D02*
Y553866D01*
X624068D01*
X625126Y552808D01*
Y550692D01*
X624068Y549634D01*
X620894D01*
X623010D02*
X625126Y547518D01*
X627242Y552808D02*
X628300Y553866D01*
X630416D01*
X631474Y552808D01*
Y551750D01*
X630416Y550692D01*
X629358D01*
X630416D01*
X631474Y549634D01*
Y548576D01*
X630416Y547518D01*
X628300D01*
X627242Y548576D01*
X637822Y547518D02*
X633590D01*
X637822Y551750D01*
Y552808D01*
X636764Y553866D01*
X634648D01*
X633590Y552808D01*
X562491Y553866D02*
Y547518D01*
Y549634D01*
X566723Y553866D01*
X563549Y550692D01*
X566723Y547518D01*
X568839D02*
X570955D01*
X569897D01*
Y553866D01*
X568839Y552808D01*
X577303Y547518D02*
Y553866D01*
X574129Y550692D01*
X578360D01*
X580476Y547518D02*
Y553866D01*
X583651D01*
X584709Y552808D01*
Y550692D01*
X583651Y549634D01*
X580476D01*
X582593D02*
X584709Y547518D01*
X586824Y552808D02*
X587882Y553866D01*
X589998D01*
X591056Y552808D01*
Y551750D01*
X589998Y550692D01*
X588940D01*
X589998D01*
X591056Y549634D01*
Y548576D01*
X589998Y547518D01*
X587882D01*
X586824Y548576D01*
X593172Y547518D02*
X595288D01*
X594230D01*
Y553866D01*
X593172Y552808D01*
X602303Y620394D02*
Y614046D01*
Y616162D01*
X606535Y620394D01*
X603361Y617220D01*
X606535Y614046D01*
X608651D02*
X610767D01*
X609709D01*
Y620394D01*
X608651Y619336D01*
X617115Y614046D02*
Y620394D01*
X613941Y617220D01*
X618173D01*
X620289Y614046D02*
Y620394D01*
X623463D01*
X624521Y619336D01*
Y617220D01*
X623463Y616162D01*
X620289D01*
X622405D02*
X624521Y614046D01*
X626637Y619336D02*
X627695Y620394D01*
X629811D01*
X630869Y619336D01*
Y618278D01*
X629811Y617220D01*
X628753D01*
X629811D01*
X630869Y616162D01*
Y615104D01*
X629811Y614046D01*
X627695D01*
X626637Y615104D01*
X632985Y619336D02*
X634043Y620394D01*
X636159D01*
X637217Y619336D01*
Y615104D01*
X636159Y614046D01*
X634043D01*
X632985Y615104D01*
Y619336D01*
X561986Y620394D02*
Y614046D01*
Y616162D01*
X566218Y620394D01*
X563044Y617220D01*
X566218Y614046D01*
X568334D02*
X570450D01*
X569392D01*
Y620394D01*
X568334Y619336D01*
X576798Y614046D02*
Y620394D01*
X573624Y617220D01*
X577856D01*
X579972Y614046D02*
Y620394D01*
X583146D01*
X584204Y619336D01*
Y617220D01*
X583146Y616162D01*
X579972D01*
X582088D02*
X584204Y614046D01*
X590552D02*
X586320D01*
X590552Y618278D01*
Y619336D01*
X589494Y620394D01*
X587378D01*
X586320Y619336D01*
X592668Y615104D02*
X593726Y614046D01*
X595842D01*
X596900Y615104D01*
Y619336D01*
X595842Y620394D01*
X593726D01*
X592668Y619336D01*
Y618278D01*
X593726Y617220D01*
X596900D01*
X601667Y596264D02*
Y589916D01*
Y592032D01*
X605899Y596264D01*
X602725Y593090D01*
X605899Y589916D01*
X608015D02*
X610131D01*
X609073D01*
Y596264D01*
X608015Y595206D01*
X616479Y589916D02*
Y596264D01*
X613305Y593090D01*
X617537D01*
X623885Y590974D02*
Y595206D01*
X622827Y596264D01*
X620711D01*
X619653Y595206D01*
Y590974D01*
X620711Y589916D01*
X622827D01*
X621769Y592032D02*
X623885Y589916D01*
X622827D02*
X623885Y590974D01*
X630233Y589916D02*
X626001D01*
X630233Y594148D01*
Y595206D01*
X629175Y596264D01*
X627059D01*
X626001Y595206D01*
X565895Y596264D02*
Y589916D01*
Y592032D01*
X570127Y596264D01*
X566953Y593090D01*
X570127Y589916D01*
X572243D02*
X574359D01*
X573301D01*
Y596264D01*
X572243Y595206D01*
X580707Y589916D02*
Y596264D01*
X577533Y593090D01*
X581765D01*
X588113Y590974D02*
Y595206D01*
X587055Y596264D01*
X584939D01*
X583881Y595206D01*
Y590974D01*
X584939Y589916D01*
X587055D01*
X585997Y592032D02*
X588113Y589916D01*
X587055D02*
X588113Y590974D01*
X590229Y589916D02*
X592345D01*
X591287D01*
Y596264D01*
X590229Y595206D01*
X1137395Y746124D02*
Y739776D01*
Y741892D01*
X1141627Y746124D01*
X1138453Y742950D01*
X1141627Y739776D01*
X1143743D02*
X1145859D01*
X1144801D01*
Y746124D01*
X1143743Y745066D01*
X1152207Y739776D02*
Y746124D01*
X1149033Y742950D01*
X1153265D01*
X1155381Y746124D02*
Y739776D01*
Y741892D01*
X1159613Y746124D01*
X1156439Y742950D01*
X1159613Y739776D01*
X1161729D02*
X1163845D01*
X1162787D01*
Y746124D01*
X1161729Y745066D01*
X601980Y633094D02*
Y626746D01*
Y628862D01*
X606212Y633094D01*
X603038Y629920D01*
X606212Y626746D01*
X608328D02*
X610444D01*
X609386D01*
Y633094D01*
X608328Y632036D01*
X616792Y626746D02*
Y633094D01*
X613618Y629920D01*
X617850D01*
X619966Y633094D02*
Y626746D01*
X623140D01*
X624198Y627804D01*
Y632036D01*
X623140Y633094D01*
X619966D01*
X630546Y626746D02*
X626314D01*
X630546Y630978D01*
Y632036D01*
X629488Y633094D01*
X627372D01*
X626314Y632036D01*
X417488Y512444D02*
Y506096D01*
Y508212D01*
X421720Y512444D01*
X418546Y509270D01*
X421720Y506096D01*
X423836D02*
X425952D01*
X424894D01*
Y512444D01*
X423836Y511386D01*
X429126D02*
X430184Y512444D01*
X432300D01*
X433358Y511386D01*
Y510328D01*
X432300Y509270D01*
X431242D01*
X432300D01*
X433358Y508212D01*
Y507154D01*
X432300Y506096D01*
X430184D01*
X429126Y507154D01*
X435474Y506096D02*
Y512444D01*
X438648D01*
X439706Y511386D01*
Y509270D01*
X438648Y508212D01*
X435474D01*
X437590D02*
X439706Y506096D01*
X441822Y511386D02*
X442880Y512444D01*
X444996D01*
X446054Y511386D01*
Y510328D01*
X444996Y509270D01*
X443938D01*
X444996D01*
X446054Y508212D01*
Y507154D01*
X444996Y506096D01*
X442880D01*
X441822Y507154D01*
X452402Y506096D02*
X448170D01*
X452402Y510328D01*
Y511386D01*
X451344Y512444D01*
X449228D01*
X448170Y511386D01*
X377071Y512444D02*
Y506096D01*
Y508212D01*
X381303Y512444D01*
X378129Y509270D01*
X381303Y506096D01*
X383419D02*
X385535D01*
X384477D01*
Y512444D01*
X383419Y511386D01*
X388709D02*
X389767Y512444D01*
X391883D01*
X392940Y511386D01*
Y510328D01*
X391883Y509270D01*
X390825D01*
X391883D01*
X392940Y508212D01*
Y507154D01*
X391883Y506096D01*
X389767D01*
X388709Y507154D01*
X395056Y506096D02*
Y512444D01*
X398231D01*
X399288Y511386D01*
Y509270D01*
X398231Y508212D01*
X395056D01*
X397173D02*
X399288Y506096D01*
X401404Y511386D02*
X402462Y512444D01*
X404578D01*
X405636Y511386D01*
Y510328D01*
X404578Y509270D01*
X403520D01*
X404578D01*
X405636Y508212D01*
Y507154D01*
X404578Y506096D01*
X402462D01*
X401404Y507154D01*
X407752Y506096D02*
X409868D01*
X408810D01*
Y512444D01*
X407752Y511386D01*
X416883Y578972D02*
Y572624D01*
Y574740D01*
X421115Y578972D01*
X417941Y575798D01*
X421115Y572624D01*
X423231D02*
X425347D01*
X424289D01*
Y578972D01*
X423231Y577914D01*
X428521D02*
X429579Y578972D01*
X431695D01*
X432753Y577914D01*
Y576856D01*
X431695Y575798D01*
X430637D01*
X431695D01*
X432753Y574740D01*
Y573682D01*
X431695Y572624D01*
X429579D01*
X428521Y573682D01*
X434869Y572624D02*
Y578972D01*
X438043D01*
X439101Y577914D01*
Y575798D01*
X438043Y574740D01*
X434869D01*
X436985D02*
X439101Y572624D01*
X441217Y577914D02*
X442275Y578972D01*
X444391D01*
X445449Y577914D01*
Y576856D01*
X444391Y575798D01*
X443333D01*
X444391D01*
X445449Y574740D01*
Y573682D01*
X444391Y572624D01*
X442275D01*
X441217Y573682D01*
X447565Y577914D02*
X448623Y578972D01*
X450739D01*
X451797Y577914D01*
Y573682D01*
X450739Y572624D01*
X448623D01*
X447565Y573682D01*
Y577914D01*
X376566Y578972D02*
Y572624D01*
Y574740D01*
X380798Y578972D01*
X377624Y575798D01*
X380798Y572624D01*
X382914D02*
X385030D01*
X383972D01*
Y578972D01*
X382914Y577914D01*
X388204D02*
X389262Y578972D01*
X391378D01*
X392436Y577914D01*
Y576856D01*
X391378Y575798D01*
X390320D01*
X391378D01*
X392436Y574740D01*
Y573682D01*
X391378Y572624D01*
X389262D01*
X388204Y573682D01*
X394552Y572624D02*
Y578972D01*
X397726D01*
X398784Y577914D01*
Y575798D01*
X397726Y574740D01*
X394552D01*
X396668D02*
X398784Y572624D01*
X405132D02*
X400900D01*
X405132Y576856D01*
Y577914D01*
X404074Y578972D01*
X401958D01*
X400900Y577914D01*
X407248Y573682D02*
X408306Y572624D01*
X410422D01*
X411480Y573682D01*
Y577914D01*
X410422Y578972D01*
X408306D01*
X407248Y577914D01*
Y576856D01*
X408306Y575798D01*
X411480D01*
X416247Y554842D02*
Y548494D01*
Y550610D01*
X420479Y554842D01*
X417305Y551668D01*
X420479Y548494D01*
X422595D02*
X424711D01*
X423653D01*
Y554842D01*
X422595Y553784D01*
X427885D02*
X428943Y554842D01*
X431059D01*
X432117Y553784D01*
Y552726D01*
X431059Y551668D01*
X430001D01*
X431059D01*
X432117Y550610D01*
Y549552D01*
X431059Y548494D01*
X428943D01*
X427885Y549552D01*
X438465D02*
Y553784D01*
X437407Y554842D01*
X435291D01*
X434233Y553784D01*
Y549552D01*
X435291Y548494D01*
X437407D01*
X436349Y550610D02*
X438465Y548494D01*
X437407D02*
X438465Y549552D01*
X444813Y548494D02*
X440581D01*
X444813Y552726D01*
Y553784D01*
X443755Y554842D01*
X441639D01*
X440581Y553784D01*
X380475Y554842D02*
Y548494D01*
Y550610D01*
X384707Y554842D01*
X381533Y551668D01*
X384707Y548494D01*
X386823D02*
X388939D01*
X387881D01*
Y554842D01*
X386823Y553784D01*
X392113D02*
X393171Y554842D01*
X395287D01*
X396345Y553784D01*
Y552726D01*
X395287Y551668D01*
X394229D01*
X395287D01*
X396345Y550610D01*
Y549552D01*
X395287Y548494D01*
X393171D01*
X392113Y549552D01*
X402693D02*
Y553784D01*
X401635Y554842D01*
X399519D01*
X398461Y553784D01*
Y549552D01*
X399519Y548494D01*
X401635D01*
X400577Y550610D02*
X402693Y548494D01*
X401635D02*
X402693Y549552D01*
X404809Y548494D02*
X406925D01*
X405867D01*
Y554842D01*
X404809Y553784D01*
X1160023Y307506D02*
X1155534Y303017D01*
X1157030Y304513D01*
X1163015D01*
X1158527Y304513D01*
Y300025D01*
X1160023Y298528D02*
X1161519Y297032D01*
X1160771Y297780D01*
X1165260Y302269D01*
X1163764D01*
X1167504Y298528D02*
X1169000D01*
X1170497Y297032D01*
Y295536D01*
X1169748Y294788D01*
X1168252D01*
X1167504Y295536D01*
X1168252Y294788D01*
X1168252Y293292D01*
X1167504Y292544D01*
X1166008D01*
X1164512Y294040D01*
Y295536D01*
X1172741Y294788D02*
X1168252Y290299D01*
X1169748Y291795D01*
X1175733D01*
X1171245Y291795D01*
Y287307D01*
X1172741Y285811D02*
X1174237Y284314D01*
X1173489Y285062D01*
X1177978Y289551D01*
X1176481D01*
X416560Y591672D02*
Y585324D01*
Y587440D01*
X420792Y591672D01*
X417618Y588498D01*
X420792Y585324D01*
X422908D02*
X425024D01*
X423966D01*
Y591672D01*
X422908Y590614D01*
X428198D02*
X429256Y591672D01*
X431372D01*
X432430Y590614D01*
Y589556D01*
X431372Y588498D01*
X430314D01*
X431372D01*
X432430Y587440D01*
Y586382D01*
X431372Y585324D01*
X429256D01*
X428198Y586382D01*
X434546Y591672D02*
Y585324D01*
X437720D01*
X438778Y586382D01*
Y590614D01*
X437720Y591672D01*
X434546D01*
X445126Y585324D02*
X440894D01*
X445126Y589556D01*
Y590614D01*
X444068Y591672D01*
X441952D01*
X440894Y590614D01*
X602908Y420516D02*
Y414168D01*
Y416284D01*
X607140Y420516D01*
X603966Y417342D01*
X607140Y414168D01*
X609256D02*
X611372D01*
X610314D01*
Y420516D01*
X609256Y419458D01*
X618778Y414168D02*
X614546D01*
X618778Y418400D01*
Y419458D01*
X617720Y420516D01*
X615604D01*
X614546Y419458D01*
X620894Y414168D02*
Y420516D01*
X624068D01*
X625126Y419458D01*
Y417342D01*
X624068Y416284D01*
X620894D01*
X623010D02*
X625126Y414168D01*
X627242Y419458D02*
X628300Y420516D01*
X630416D01*
X631474Y419458D01*
Y418400D01*
X630416Y417342D01*
X629358D01*
X630416D01*
X631474Y416284D01*
Y415226D01*
X630416Y414168D01*
X628300D01*
X627242Y415226D01*
X637822Y414168D02*
X633590D01*
X637822Y418400D01*
Y419458D01*
X636764Y420516D01*
X634648D01*
X633590Y419458D01*
X562491Y420516D02*
Y414168D01*
Y416284D01*
X566723Y420516D01*
X563549Y417342D01*
X566723Y414168D01*
X568839D02*
X570955D01*
X569897D01*
Y420516D01*
X568839Y419458D01*
X578360Y414168D02*
X574129D01*
X578360Y418400D01*
Y419458D01*
X577303Y420516D01*
X575187D01*
X574129Y419458D01*
X580476Y414168D02*
Y420516D01*
X583651D01*
X584709Y419458D01*
Y417342D01*
X583651Y416284D01*
X580476D01*
X582593D02*
X584709Y414168D01*
X586824Y419458D02*
X587882Y420516D01*
X589998D01*
X591056Y419458D01*
Y418400D01*
X589998Y417342D01*
X588940D01*
X589998D01*
X591056Y416284D01*
Y415226D01*
X589998Y414168D01*
X587882D01*
X586824Y415226D01*
X593172Y414168D02*
X595288D01*
X594230D01*
Y420516D01*
X593172Y419458D01*
X602303Y487044D02*
Y480696D01*
Y482812D01*
X606535Y487044D01*
X603361Y483870D01*
X606535Y480696D01*
X608651D02*
X610767D01*
X609709D01*
Y487044D01*
X608651Y485986D01*
X618173Y480696D02*
X613941D01*
X618173Y484928D01*
Y485986D01*
X617115Y487044D01*
X614999D01*
X613941Y485986D01*
X620289Y480696D02*
Y487044D01*
X623463D01*
X624521Y485986D01*
Y483870D01*
X623463Y482812D01*
X620289D01*
X622405D02*
X624521Y480696D01*
X626637Y485986D02*
X627695Y487044D01*
X629811D01*
X630869Y485986D01*
Y484928D01*
X629811Y483870D01*
X628753D01*
X629811D01*
X630869Y482812D01*
Y481754D01*
X629811Y480696D01*
X627695D01*
X626637Y481754D01*
X632985Y485986D02*
X634043Y487044D01*
X636159D01*
X637217Y485986D01*
Y481754D01*
X636159Y480696D01*
X634043D01*
X632985Y481754D01*
Y485986D01*
X561986Y487044D02*
Y480696D01*
Y482812D01*
X566218Y487044D01*
X563044Y483870D01*
X566218Y480696D01*
X568334D02*
X570450D01*
X569392D01*
Y487044D01*
X568334Y485986D01*
X577856Y480696D02*
X573624D01*
X577856Y484928D01*
Y485986D01*
X576798Y487044D01*
X574682D01*
X573624Y485986D01*
X579972Y480696D02*
Y487044D01*
X583146D01*
X584204Y485986D01*
Y483870D01*
X583146Y482812D01*
X579972D01*
X582088D02*
X584204Y480696D01*
X590552D02*
X586320D01*
X590552Y484928D01*
Y485986D01*
X589494Y487044D01*
X587378D01*
X586320Y485986D01*
X592668Y481754D02*
X593726Y480696D01*
X595842D01*
X596900Y481754D01*
Y485986D01*
X595842Y487044D01*
X593726D01*
X592668Y485986D01*
Y484928D01*
X593726Y483870D01*
X596900D01*
X601667Y462914D02*
Y456566D01*
Y458682D01*
X605899Y462914D01*
X602725Y459740D01*
X605899Y456566D01*
X608015D02*
X610131D01*
X609073D01*
Y462914D01*
X608015Y461856D01*
X617537Y456566D02*
X613305D01*
X617537Y460798D01*
Y461856D01*
X616479Y462914D01*
X614363D01*
X613305Y461856D01*
X623885Y457624D02*
Y461856D01*
X622827Y462914D01*
X620711D01*
X619653Y461856D01*
Y457624D01*
X620711Y456566D01*
X622827D01*
X621769Y458682D02*
X623885Y456566D01*
X622827D02*
X623885Y457624D01*
X630233Y456566D02*
X626001D01*
X630233Y460798D01*
Y461856D01*
X629175Y462914D01*
X627059D01*
X626001Y461856D01*
X565895Y462914D02*
Y456566D01*
Y458682D01*
X570127Y462914D01*
X566953Y459740D01*
X570127Y456566D01*
X572243D02*
X574359D01*
X573301D01*
Y462914D01*
X572243Y461856D01*
X581765Y456566D02*
X577533D01*
X581765Y460798D01*
Y461856D01*
X580707Y462914D01*
X578591D01*
X577533Y461856D01*
X588113Y457624D02*
Y461856D01*
X587055Y462914D01*
X584939D01*
X583881Y461856D01*
Y457624D01*
X584939Y456566D01*
X587055D01*
X585997Y458682D02*
X588113Y456566D01*
X587055D02*
X588113Y457624D01*
X590229Y456566D02*
X592345D01*
X591287D01*
Y462914D01*
X590229Y461856D01*
X1058655Y746124D02*
Y739776D01*
Y741892D01*
X1062887Y746124D01*
X1059713Y742950D01*
X1062887Y739776D01*
X1065003D02*
X1067119D01*
X1066061D01*
Y746124D01*
X1065003Y745066D01*
X1074525Y739776D02*
X1070293D01*
X1074525Y744008D01*
Y745066D01*
X1073467Y746124D01*
X1071351D01*
X1070293Y745066D01*
X1076641Y746124D02*
Y739776D01*
Y741892D01*
X1080873Y746124D01*
X1077699Y742950D01*
X1080873Y739776D01*
X1082989D02*
X1085105D01*
X1084047D01*
Y746124D01*
X1082989Y745066D01*
X601980Y499744D02*
Y493396D01*
Y495512D01*
X606212Y499744D01*
X603038Y496570D01*
X606212Y493396D01*
X608328D02*
X610444D01*
X609386D01*
Y499744D01*
X608328Y498686D01*
X617850Y493396D02*
X613618D01*
X617850Y497628D01*
Y498686D01*
X616792Y499744D01*
X614676D01*
X613618Y498686D01*
X619966Y499744D02*
Y493396D01*
X623140D01*
X624198Y494454D01*
Y498686D01*
X623140Y499744D01*
X619966D01*
X630546Y493396D02*
X626314D01*
X630546Y497628D01*
Y498686D01*
X629488Y499744D01*
X627372D01*
X626314Y498686D01*
X336208Y512444D02*
Y506096D01*
Y508212D01*
X340440Y512444D01*
X337266Y509270D01*
X340440Y506096D01*
X342556D02*
X344672D01*
X343614D01*
Y512444D01*
X342556Y511386D01*
X347846Y506096D02*
X349962D01*
X348904D01*
Y512444D01*
X347846Y511386D01*
X353136Y506096D02*
Y512444D01*
X356310D01*
X357368Y511386D01*
Y509270D01*
X356310Y508212D01*
X353136D01*
X355252D02*
X357368Y506096D01*
X359484Y511386D02*
X360542Y512444D01*
X362658D01*
X363716Y511386D01*
Y510328D01*
X362658Y509270D01*
X361600D01*
X362658D01*
X363716Y508212D01*
Y507154D01*
X362658Y506096D01*
X360542D01*
X359484Y507154D01*
X370064Y506096D02*
X365832D01*
X370064Y510328D01*
Y511386D01*
X369006Y512444D01*
X366890D01*
X365832Y511386D01*
X295791Y512444D02*
Y506096D01*
Y508212D01*
X300023Y512444D01*
X296849Y509270D01*
X300023Y506096D01*
X302139D02*
X304255D01*
X303197D01*
Y512444D01*
X302139Y511386D01*
X307429Y506096D02*
X309545D01*
X308487D01*
Y512444D01*
X307429Y511386D01*
X312719Y506096D02*
Y512444D01*
X315893D01*
X316950Y511386D01*
Y509270D01*
X315893Y508212D01*
X312719D01*
X314834D02*
X316950Y506096D01*
X319067Y511386D02*
X320125Y512444D01*
X322240D01*
X323298Y511386D01*
Y510328D01*
X322240Y509270D01*
X321182D01*
X322240D01*
X323298Y508212D01*
Y507154D01*
X322240Y506096D01*
X320125D01*
X319067Y507154D01*
X325414Y506096D02*
X327530D01*
X326472D01*
Y512444D01*
X325414Y511386D01*
X335603Y578972D02*
Y572624D01*
Y574740D01*
X339835Y578972D01*
X336661Y575798D01*
X339835Y572624D01*
X341951D02*
X344067D01*
X343009D01*
Y578972D01*
X341951Y577914D01*
X347241Y572624D02*
X349357D01*
X348299D01*
Y578972D01*
X347241Y577914D01*
X352531Y572624D02*
Y578972D01*
X355705D01*
X356763Y577914D01*
Y575798D01*
X355705Y574740D01*
X352531D01*
X354647D02*
X356763Y572624D01*
X358879Y577914D02*
X359937Y578972D01*
X362053D01*
X363111Y577914D01*
Y576856D01*
X362053Y575798D01*
X360995D01*
X362053D01*
X363111Y574740D01*
Y573682D01*
X362053Y572624D01*
X359937D01*
X358879Y573682D01*
X365227Y577914D02*
X366285Y578972D01*
X368401D01*
X369459Y577914D01*
Y573682D01*
X368401Y572624D01*
X366285D01*
X365227Y573682D01*
Y577914D01*
X295286Y578972D02*
Y572624D01*
Y574740D01*
X299518Y578972D01*
X296344Y575798D01*
X299518Y572624D01*
X301634D02*
X303750D01*
X302692D01*
Y578972D01*
X301634Y577914D01*
X306924Y572624D02*
X309040D01*
X307982D01*
Y578972D01*
X306924Y577914D01*
X312214Y572624D02*
Y578972D01*
X315388D01*
X316446Y577914D01*
Y575798D01*
X315388Y574740D01*
X312214D01*
X314330D02*
X316446Y572624D01*
X322794D02*
X318562D01*
X322794Y576856D01*
Y577914D01*
X321736Y578972D01*
X319620D01*
X318562Y577914D01*
X324910Y573682D02*
X325968Y572624D01*
X328084D01*
X329142Y573682D01*
Y577914D01*
X328084Y578972D01*
X325968D01*
X324910Y577914D01*
Y576856D01*
X325968Y575798D01*
X329142D01*
X334967Y554842D02*
Y548494D01*
Y550610D01*
X339199Y554842D01*
X336025Y551668D01*
X339199Y548494D01*
X341315D02*
X343431D01*
X342373D01*
Y554842D01*
X341315Y553784D01*
X346605Y548494D02*
X348721D01*
X347663D01*
Y554842D01*
X346605Y553784D01*
X356127Y549552D02*
Y553784D01*
X355069Y554842D01*
X352953D01*
X351895Y553784D01*
Y549552D01*
X352953Y548494D01*
X355069D01*
X354011Y550610D02*
X356127Y548494D01*
X355069D02*
X356127Y549552D01*
X362475Y548494D02*
X358243D01*
X362475Y552726D01*
Y553784D01*
X361417Y554842D01*
X359301D01*
X358243Y553784D01*
X299195Y554842D02*
Y548494D01*
Y550610D01*
X303427Y554842D01*
X300253Y551668D01*
X303427Y548494D01*
X305543D02*
X307659D01*
X306601D01*
Y554842D01*
X305543Y553784D01*
X310833Y548494D02*
X312949D01*
X311891D01*
Y554842D01*
X310833Y553784D01*
X320355Y549552D02*
Y553784D01*
X319297Y554842D01*
X317181D01*
X316123Y553784D01*
Y549552D01*
X317181Y548494D01*
X319297D01*
X318239Y550610D02*
X320355Y548494D01*
X319297D02*
X320355Y549552D01*
X322471Y548494D02*
X324587D01*
X323529D01*
Y554842D01*
X322471Y553784D01*
X1054987Y305862D02*
X1050498Y301373D01*
X1051994Y302869D01*
X1057980D01*
X1053491Y302869D01*
Y298381D01*
X1054987Y296884D02*
X1056483Y295388D01*
X1055735Y296136D01*
X1060224Y300625D01*
X1058728D01*
Y293144D02*
X1060224Y291647D01*
X1059476Y292396D01*
X1063964Y296884D01*
X1062468D01*
X1066957Y293892D02*
X1062468Y289403D01*
X1063964Y290899D01*
X1069949D01*
X1065461Y290899D01*
Y286411D01*
X1066957Y284914D02*
X1068453Y283418D01*
X1067705Y284166D01*
X1072194Y288655D01*
X1070697D01*
X335280Y591672D02*
Y585324D01*
Y587440D01*
X339512Y591672D01*
X336338Y588498D01*
X339512Y585324D01*
X341628D02*
X343744D01*
X342686D01*
Y591672D01*
X341628Y590614D01*
X346918Y585324D02*
X349034D01*
X347976D01*
Y591672D01*
X346918Y590614D01*
X352208Y591672D02*
Y585324D01*
X355382D01*
X356440Y586382D01*
Y590614D01*
X355382Y591672D01*
X352208D01*
X362788Y585324D02*
X358556D01*
X362788Y589556D01*
Y590614D01*
X361730Y591672D01*
X359614D01*
X358556Y590614D01*
X979915Y746124D02*
Y739776D01*
Y741892D01*
X984147Y746124D01*
X980973Y742950D01*
X984147Y739776D01*
X986263D02*
X988379D01*
X987321D01*
Y746124D01*
X986263Y745066D01*
X991553D02*
X992611Y746124D01*
X994727D01*
X995785Y745066D01*
Y740834D01*
X994727Y739776D01*
X992611D01*
X991553Y740834D01*
Y745066D01*
X997901Y746124D02*
Y739776D01*
Y741892D01*
X1002133Y746124D01*
X998959Y742950D01*
X1002133Y739776D01*
X1004249D02*
X1006365D01*
X1005307D01*
Y746124D01*
X1004249Y745066D01*
X417488Y376066D02*
Y369718D01*
Y371834D01*
X421720Y376066D01*
X418546Y372892D01*
X421720Y369718D01*
X423836Y370776D02*
X424894Y369718D01*
X427010D01*
X428068Y370776D01*
Y375008D01*
X427010Y376066D01*
X424894D01*
X423836Y375008D01*
Y373950D01*
X424894Y372892D01*
X428068D01*
X430184Y369718D02*
Y376066D01*
X433358D01*
X434416Y375008D01*
Y372892D01*
X433358Y371834D01*
X430184D01*
X432300D02*
X434416Y369718D01*
X436532Y375008D02*
X437590Y376066D01*
X439706D01*
X440764Y375008D01*
Y373950D01*
X439706Y372892D01*
X438648D01*
X439706D01*
X440764Y371834D01*
Y370776D01*
X439706Y369718D01*
X437590D01*
X436532Y370776D01*
X447112Y369718D02*
X442880D01*
X447112Y373950D01*
Y375008D01*
X446054Y376066D01*
X443938D01*
X442880Y375008D01*
X377071Y376066D02*
Y369718D01*
Y371834D01*
X381303Y376066D01*
X378129Y372892D01*
X381303Y369718D01*
X383419Y370776D02*
X384477Y369718D01*
X386593D01*
X387651Y370776D01*
Y375008D01*
X386593Y376066D01*
X384477D01*
X383419Y375008D01*
Y373950D01*
X384477Y372892D01*
X387651D01*
X389767Y369718D02*
Y376066D01*
X392940D01*
X393998Y375008D01*
Y372892D01*
X392940Y371834D01*
X389767D01*
X391883D02*
X393998Y369718D01*
X396115Y375008D02*
X397173Y376066D01*
X399288D01*
X400346Y375008D01*
Y373950D01*
X399288Y372892D01*
X398231D01*
X399288D01*
X400346Y371834D01*
Y370776D01*
X399288Y369718D01*
X397173D01*
X396115Y370776D01*
X402462Y369718D02*
X404578D01*
X403520D01*
Y376066D01*
X402462Y375008D01*
X416883Y442594D02*
Y436246D01*
Y438362D01*
X421115Y442594D01*
X417941Y439420D01*
X421115Y436246D01*
X423231Y437304D02*
X424289Y436246D01*
X426405D01*
X427463Y437304D01*
Y441536D01*
X426405Y442594D01*
X424289D01*
X423231Y441536D01*
Y440478D01*
X424289Y439420D01*
X427463D01*
X429579Y436246D02*
Y442594D01*
X432753D01*
X433811Y441536D01*
Y439420D01*
X432753Y438362D01*
X429579D01*
X431695D02*
X433811Y436246D01*
X435927Y441536D02*
X436985Y442594D01*
X439101D01*
X440159Y441536D01*
Y440478D01*
X439101Y439420D01*
X438043D01*
X439101D01*
X440159Y438362D01*
Y437304D01*
X439101Y436246D01*
X436985D01*
X435927Y437304D01*
X442275Y441536D02*
X443333Y442594D01*
X445449D01*
X446507Y441536D01*
Y437304D01*
X445449Y436246D01*
X443333D01*
X442275Y437304D01*
Y441536D01*
X376566Y442594D02*
Y436246D01*
Y438362D01*
X380798Y442594D01*
X377624Y439420D01*
X380798Y436246D01*
X382914Y437304D02*
X383972Y436246D01*
X386088D01*
X387146Y437304D01*
Y441536D01*
X386088Y442594D01*
X383972D01*
X382914Y441536D01*
Y440478D01*
X383972Y439420D01*
X387146D01*
X389262Y436246D02*
Y442594D01*
X392436D01*
X393494Y441536D01*
Y439420D01*
X392436Y438362D01*
X389262D01*
X391378D02*
X393494Y436246D01*
X399842D02*
X395610D01*
X399842Y440478D01*
Y441536D01*
X398784Y442594D01*
X396668D01*
X395610Y441536D01*
X401958Y437304D02*
X403016Y436246D01*
X405132D01*
X406190Y437304D01*
Y441536D01*
X405132Y442594D01*
X403016D01*
X401958Y441536D01*
Y440478D01*
X403016Y439420D01*
X406190D01*
X416247Y418464D02*
Y412116D01*
Y414232D01*
X420479Y418464D01*
X417305Y415290D01*
X420479Y412116D01*
X422595Y413174D02*
X423653Y412116D01*
X425769D01*
X426827Y413174D01*
Y417406D01*
X425769Y418464D01*
X423653D01*
X422595Y417406D01*
Y416348D01*
X423653Y415290D01*
X426827D01*
X433175Y413174D02*
Y417406D01*
X432117Y418464D01*
X430001D01*
X428943Y417406D01*
Y413174D01*
X430001Y412116D01*
X432117D01*
X431059Y414232D02*
X433175Y412116D01*
X432117D02*
X433175Y413174D01*
X439523Y412116D02*
X435291D01*
X439523Y416348D01*
Y417406D01*
X438465Y418464D01*
X436349D01*
X435291Y417406D01*
X380475Y418464D02*
Y412116D01*
Y414232D01*
X384707Y418464D01*
X381533Y415290D01*
X384707Y412116D01*
X386823Y413174D02*
X387881Y412116D01*
X389997D01*
X391055Y413174D01*
Y417406D01*
X389997Y418464D01*
X387881D01*
X386823Y417406D01*
Y416348D01*
X387881Y415290D01*
X391055D01*
X397403Y413174D02*
Y417406D01*
X396345Y418464D01*
X394229D01*
X393171Y417406D01*
Y413174D01*
X394229Y412116D01*
X396345D01*
X395287Y414232D02*
X397403Y412116D01*
X396345D02*
X397403Y413174D01*
X399519Y412116D02*
X401635D01*
X400577D01*
Y418464D01*
X399519Y417406D01*
X1010286Y285330D02*
X1016634D01*
X1014518D01*
X1010286Y289562D01*
X1013460Y286388D01*
X1016634Y289562D01*
X1015576Y291678D02*
X1016634Y292736D01*
Y294852D01*
X1015576Y295910D01*
X1011344D01*
X1010286Y294852D01*
Y292736D01*
X1011344Y291678D01*
X1012402D01*
X1013460Y292736D01*
Y295910D01*
X1010286Y298026D02*
X1016634D01*
X1014518D01*
X1010286Y302258D01*
X1013460Y299084D01*
X1016634Y302258D01*
Y304374D02*
Y306490D01*
Y305432D01*
X1010286D01*
X1011344Y304374D01*
X416560Y455294D02*
Y448946D01*
Y451062D01*
X420792Y455294D01*
X417618Y452120D01*
X420792Y448946D01*
X422908Y450004D02*
X423966Y448946D01*
X426082D01*
X427140Y450004D01*
Y454236D01*
X426082Y455294D01*
X423966D01*
X422908Y454236D01*
Y453178D01*
X423966Y452120D01*
X427140D01*
X429256Y455294D02*
Y448946D01*
X432430D01*
X433488Y450004D01*
Y454236D01*
X432430Y455294D01*
X429256D01*
X439836Y448946D02*
X435604D01*
X439836Y453178D01*
Y454236D01*
X438778Y455294D01*
X436662D01*
X435604Y454236D01*
X121578Y644524D02*
Y638176D01*
Y640292D01*
X125810Y644524D01*
X122636Y641350D01*
X125810Y638176D01*
X127926Y643466D02*
X128984Y644524D01*
X131100D01*
X132158Y643466D01*
Y642408D01*
X131100Y641350D01*
X132158Y640292D01*
Y639234D01*
X131100Y638176D01*
X128984D01*
X127926Y639234D01*
Y640292D01*
X128984Y641350D01*
X127926Y642408D01*
Y643466D01*
X128984Y641350D02*
X131100D01*
X134274Y638176D02*
Y644524D01*
X137448D01*
X138506Y643466D01*
Y641350D01*
X137448Y640292D01*
X134274D01*
X136390D02*
X138506Y638176D01*
X140622Y643466D02*
X141680Y644524D01*
X143796D01*
X144854Y643466D01*
Y642408D01*
X143796Y641350D01*
X142738D01*
X143796D01*
X144854Y640292D01*
Y639234D01*
X143796Y638176D01*
X141680D01*
X140622Y639234D01*
X151202Y638176D02*
X146970D01*
X151202Y642408D01*
Y643466D01*
X150144Y644524D01*
X148028D01*
X146970Y643466D01*
X81161Y644524D02*
Y638176D01*
Y640292D01*
X85393Y644524D01*
X82219Y641350D01*
X85393Y638176D01*
X87509Y643466D02*
X88567Y644524D01*
X90683D01*
X91741Y643466D01*
Y642408D01*
X90683Y641350D01*
X91741Y640292D01*
Y639234D01*
X90683Y638176D01*
X88567D01*
X87509Y639234D01*
Y640292D01*
X88567Y641350D01*
X87509Y642408D01*
Y643466D01*
X88567Y641350D02*
X90683D01*
X93857Y638176D02*
Y644524D01*
X97030D01*
X98089Y643466D01*
Y641350D01*
X97030Y640292D01*
X93857D01*
X95972D02*
X98089Y638176D01*
X100204Y643466D02*
X101263Y644524D01*
X103378D01*
X104437Y643466D01*
Y642408D01*
X103378Y641350D01*
X102320D01*
X103378D01*
X104437Y640292D01*
Y639234D01*
X103378Y638176D01*
X101263D01*
X100204Y639234D01*
X106552Y638176D02*
X108668D01*
X107610D01*
Y644524D01*
X106552Y643466D01*
X120973Y711052D02*
Y704704D01*
Y706820D01*
X125205Y711052D01*
X122031Y707878D01*
X125205Y704704D01*
X127321Y709994D02*
X128379Y711052D01*
X130495D01*
X131553Y709994D01*
Y708936D01*
X130495Y707878D01*
X131553Y706820D01*
Y705762D01*
X130495Y704704D01*
X128379D01*
X127321Y705762D01*
Y706820D01*
X128379Y707878D01*
X127321Y708936D01*
Y709994D01*
X128379Y707878D02*
X130495D01*
X133669Y704704D02*
Y711052D01*
X136843D01*
X137901Y709994D01*
Y707878D01*
X136843Y706820D01*
X133669D01*
X135785D02*
X137901Y704704D01*
X140017Y709994D02*
X141075Y711052D01*
X143191D01*
X144249Y709994D01*
Y708936D01*
X143191Y707878D01*
X142133D01*
X143191D01*
X144249Y706820D01*
Y705762D01*
X143191Y704704D01*
X141075D01*
X140017Y705762D01*
X146365Y709994D02*
X147423Y711052D01*
X149539D01*
X150597Y709994D01*
Y705762D01*
X149539Y704704D01*
X147423D01*
X146365Y705762D01*
Y709994D01*
X80656Y711052D02*
Y704704D01*
Y706820D01*
X84888Y711052D01*
X81714Y707878D01*
X84888Y704704D01*
X87004Y709994D02*
X88062Y711052D01*
X90178D01*
X91236Y709994D01*
Y708936D01*
X90178Y707878D01*
X91236Y706820D01*
Y705762D01*
X90178Y704704D01*
X88062D01*
X87004Y705762D01*
Y706820D01*
X88062Y707878D01*
X87004Y708936D01*
Y709994D01*
X88062Y707878D02*
X90178D01*
X93352Y704704D02*
Y711052D01*
X96526D01*
X97584Y709994D01*
Y707878D01*
X96526Y706820D01*
X93352D01*
X95468D02*
X97584Y704704D01*
X103932D02*
X99700D01*
X103932Y708936D01*
Y709994D01*
X102874Y711052D01*
X100758D01*
X99700Y709994D01*
X106048Y705762D02*
X107106Y704704D01*
X109222D01*
X110280Y705762D01*
Y709994D01*
X109222Y711052D01*
X107106D01*
X106048Y709994D01*
Y708936D01*
X107106Y707878D01*
X110280D01*
X120337Y686922D02*
Y680574D01*
Y682690D01*
X124569Y686922D01*
X121395Y683748D01*
X124569Y680574D01*
X126685Y685864D02*
X127743Y686922D01*
X129859D01*
X130917Y685864D01*
Y684806D01*
X129859Y683748D01*
X130917Y682690D01*
Y681632D01*
X129859Y680574D01*
X127743D01*
X126685Y681632D01*
Y682690D01*
X127743Y683748D01*
X126685Y684806D01*
Y685864D01*
X127743Y683748D02*
X129859D01*
X137265Y681632D02*
Y685864D01*
X136207Y686922D01*
X134091D01*
X133033Y685864D01*
Y681632D01*
X134091Y680574D01*
X136207D01*
X135149Y682690D02*
X137265Y680574D01*
X136207D02*
X137265Y681632D01*
X143613Y680574D02*
X139381D01*
X143613Y684806D01*
Y685864D01*
X142555Y686922D01*
X140439D01*
X139381Y685864D01*
X84565Y686922D02*
Y680574D01*
Y682690D01*
X88797Y686922D01*
X85623Y683748D01*
X88797Y680574D01*
X90913Y685864D02*
X91971Y686922D01*
X94087D01*
X95145Y685864D01*
Y684806D01*
X94087Y683748D01*
X95145Y682690D01*
Y681632D01*
X94087Y680574D01*
X91971D01*
X90913Y681632D01*
Y682690D01*
X91971Y683748D01*
X90913Y684806D01*
Y685864D01*
X91971Y683748D02*
X94087D01*
X101493Y681632D02*
Y685864D01*
X100435Y686922D01*
X98319D01*
X97261Y685864D01*
Y681632D01*
X98319Y680574D01*
X100435D01*
X99377Y682690D02*
X101493Y680574D01*
X100435D02*
X101493Y681632D01*
X103609Y680574D02*
X105725D01*
X104667D01*
Y686922D01*
X103609Y685864D01*
X901280Y746124D02*
Y739776D01*
Y741892D01*
X905512Y746124D01*
X902338Y742950D01*
X905512Y739776D01*
X907628Y745066D02*
X908686Y746124D01*
X910802D01*
X911860Y745066D01*
Y744008D01*
X910802Y742950D01*
X911860Y741892D01*
Y740834D01*
X910802Y739776D01*
X908686D01*
X907628Y740834D01*
Y741892D01*
X908686Y742950D01*
X907628Y744008D01*
Y745066D01*
X908686Y742950D02*
X910802D01*
X913976Y746124D02*
Y739776D01*
Y741892D01*
X918208Y746124D01*
X915034Y742950D01*
X918208Y739776D01*
X920324D02*
X922440D01*
X921382D01*
Y746124D01*
X920324Y745066D01*
X120650Y723752D02*
Y717404D01*
Y719520D01*
X124882Y723752D01*
X121708Y720578D01*
X124882Y717404D01*
X126998Y722694D02*
X128056Y723752D01*
X130172D01*
X131230Y722694D01*
Y721636D01*
X130172Y720578D01*
X131230Y719520D01*
Y718462D01*
X130172Y717404D01*
X128056D01*
X126998Y718462D01*
Y719520D01*
X128056Y720578D01*
X126998Y721636D01*
Y722694D01*
X128056Y720578D02*
X130172D01*
X133346Y723752D02*
Y717404D01*
X136520D01*
X137578Y718462D01*
Y722694D01*
X136520Y723752D01*
X133346D01*
X143926Y717404D02*
X139694D01*
X143926Y721636D01*
Y722694D01*
X142868Y723752D01*
X140752D01*
X139694Y722694D01*
X121578Y238906D02*
Y232558D01*
Y234674D01*
X125810Y238906D01*
X122636Y235732D01*
X125810Y232558D01*
X127926Y238906D02*
X132158D01*
Y237848D01*
X127926Y233616D01*
Y232558D01*
X134274D02*
Y238906D01*
X137448D01*
X138506Y237848D01*
Y235732D01*
X137448Y234674D01*
X134274D01*
X136390D02*
X138506Y232558D01*
X140622Y237848D02*
X141680Y238906D01*
X143796D01*
X144854Y237848D01*
Y236790D01*
X143796Y235732D01*
X142738D01*
X143796D01*
X144854Y234674D01*
Y233616D01*
X143796Y232558D01*
X141680D01*
X140622Y233616D01*
X151202Y232558D02*
X146970D01*
X151202Y236790D01*
Y237848D01*
X150144Y238906D01*
X148028D01*
X146970Y237848D01*
X81161Y238906D02*
Y232558D01*
Y234674D01*
X85393Y238906D01*
X82219Y235732D01*
X85393Y232558D01*
X87509Y238906D02*
X91741D01*
Y237848D01*
X87509Y233616D01*
Y232558D01*
X93857D02*
Y238906D01*
X97030D01*
X98089Y237848D01*
Y235732D01*
X97030Y234674D01*
X93857D01*
X95972D02*
X98089Y232558D01*
X100204Y237848D02*
X101263Y238906D01*
X103378D01*
X104437Y237848D01*
Y236790D01*
X103378Y235732D01*
X102320D01*
X103378D01*
X104437Y234674D01*
Y233616D01*
X103378Y232558D01*
X101263D01*
X100204Y233616D01*
X106552Y232558D02*
X108668D01*
X107610D01*
Y238906D01*
X106552Y237848D01*
X120973Y305434D02*
Y299086D01*
Y301202D01*
X125205Y305434D01*
X122031Y302260D01*
X125205Y299086D01*
X127321Y305434D02*
X131553D01*
Y304376D01*
X127321Y300144D01*
Y299086D01*
X133669D02*
Y305434D01*
X136843D01*
X137901Y304376D01*
Y302260D01*
X136843Y301202D01*
X133669D01*
X135785D02*
X137901Y299086D01*
X140017Y304376D02*
X141075Y305434D01*
X143191D01*
X144249Y304376D01*
Y303318D01*
X143191Y302260D01*
X142133D01*
X143191D01*
X144249Y301202D01*
Y300144D01*
X143191Y299086D01*
X141075D01*
X140017Y300144D01*
X146365Y304376D02*
X147423Y305434D01*
X149539D01*
X150597Y304376D01*
Y300144D01*
X149539Y299086D01*
X147423D01*
X146365Y300144D01*
Y304376D01*
X80656Y305434D02*
Y299086D01*
Y301202D01*
X84888Y305434D01*
X81714Y302260D01*
X84888Y299086D01*
X87004Y305434D02*
X91236D01*
Y304376D01*
X87004Y300144D01*
Y299086D01*
X93352D02*
Y305434D01*
X96526D01*
X97584Y304376D01*
Y302260D01*
X96526Y301202D01*
X93352D01*
X95468D02*
X97584Y299086D01*
X103932D02*
X99700D01*
X103932Y303318D01*
Y304376D01*
X102874Y305434D01*
X100758D01*
X99700Y304376D01*
X106048Y300144D02*
X107106Y299086D01*
X109222D01*
X110280Y300144D01*
Y304376D01*
X109222Y305434D01*
X107106D01*
X106048Y304376D01*
Y303318D01*
X107106Y302260D01*
X110280D01*
X120337Y281304D02*
Y274956D01*
Y277072D01*
X124569Y281304D01*
X121395Y278130D01*
X124569Y274956D01*
X126685Y281304D02*
X130917D01*
Y280246D01*
X126685Y276014D01*
Y274956D01*
X137265Y276014D02*
Y280246D01*
X136207Y281304D01*
X134091D01*
X133033Y280246D01*
Y276014D01*
X134091Y274956D01*
X136207D01*
X135149Y277072D02*
X137265Y274956D01*
X136207D02*
X137265Y276014D01*
X143613Y274956D02*
X139381D01*
X143613Y279188D01*
Y280246D01*
X142555Y281304D01*
X140439D01*
X139381Y280246D01*
X84565Y281304D02*
Y274956D01*
Y277072D01*
X88797Y281304D01*
X85623Y278130D01*
X88797Y274956D01*
X90913Y281304D02*
X95145D01*
Y280246D01*
X90913Y276014D01*
Y274956D01*
X101493Y276014D02*
Y280246D01*
X100435Y281304D01*
X98319D01*
X97261Y280246D01*
Y276014D01*
X98319Y274956D01*
X100435D01*
X99377Y277072D02*
X101493Y274956D01*
X100435D02*
X101493Y276014D01*
X103609Y274956D02*
X105725D01*
X104667D01*
Y281304D01*
X103609Y280246D01*
X906146Y285330D02*
X912494D01*
X910378D01*
X906146Y289562D01*
X909320Y286388D01*
X912494Y289562D01*
X906146Y291678D02*
Y295910D01*
X907204D01*
X911436Y291678D01*
X912494D01*
X906146Y298026D02*
X912494D01*
X910378D01*
X906146Y302258D01*
X909320Y299084D01*
X912494Y302258D01*
Y304374D02*
Y306490D01*
Y305432D01*
X906146D01*
X907204Y304374D01*
X120650Y318134D02*
Y311786D01*
Y313902D01*
X124882Y318134D01*
X121708Y314960D01*
X124882Y311786D01*
X126998Y318134D02*
X131230D01*
Y317076D01*
X126998Y312844D01*
Y311786D01*
X133346Y318134D02*
Y311786D01*
X136520D01*
X137578Y312844D01*
Y317076D01*
X136520Y318134D01*
X133346D01*
X143926Y311786D02*
X139694D01*
X143926Y316018D01*
Y317076D01*
X142868Y318134D01*
X140752D01*
X139694Y317076D01*
X121578Y509904D02*
Y503556D01*
Y505672D01*
X125810Y509904D01*
X122636Y506730D01*
X125810Y503556D01*
X132158Y509904D02*
X130042Y508846D01*
X127926Y506730D01*
Y504614D01*
X128984Y503556D01*
X131100D01*
X132158Y504614D01*
Y505672D01*
X131100Y506730D01*
X127926D01*
X134274Y503556D02*
Y509904D01*
X137448D01*
X138506Y508846D01*
Y506730D01*
X137448Y505672D01*
X134274D01*
X136390D02*
X138506Y503556D01*
X140622Y508846D02*
X141680Y509904D01*
X143796D01*
X144854Y508846D01*
Y507788D01*
X143796Y506730D01*
X142738D01*
X143796D01*
X144854Y505672D01*
Y504614D01*
X143796Y503556D01*
X141680D01*
X140622Y504614D01*
X151202Y503556D02*
X146970D01*
X151202Y507788D01*
Y508846D01*
X150144Y509904D01*
X148028D01*
X146970Y508846D01*
X81161Y509904D02*
Y503556D01*
Y505672D01*
X85393Y509904D01*
X82219Y506730D01*
X85393Y503556D01*
X91741Y509904D02*
X89625Y508846D01*
X87509Y506730D01*
Y504614D01*
X88567Y503556D01*
X90683D01*
X91741Y504614D01*
Y505672D01*
X90683Y506730D01*
X87509D01*
X93857Y503556D02*
Y509904D01*
X97030D01*
X98089Y508846D01*
Y506730D01*
X97030Y505672D01*
X93857D01*
X95972D02*
X98089Y503556D01*
X100204Y508846D02*
X101263Y509904D01*
X103378D01*
X104437Y508846D01*
Y507788D01*
X103378Y506730D01*
X102320D01*
X103378D01*
X104437Y505672D01*
Y504614D01*
X103378Y503556D01*
X101263D01*
X100204Y504614D01*
X106552Y503556D02*
X108668D01*
X107610D01*
Y509904D01*
X106552Y508846D01*
X120973Y576432D02*
Y570084D01*
Y572200D01*
X125205Y576432D01*
X122031Y573258D01*
X125205Y570084D01*
X131553Y576432D02*
X129437Y575374D01*
X127321Y573258D01*
Y571142D01*
X128379Y570084D01*
X130495D01*
X131553Y571142D01*
Y572200D01*
X130495Y573258D01*
X127321D01*
X133669Y570084D02*
Y576432D01*
X136843D01*
X137901Y575374D01*
Y573258D01*
X136843Y572200D01*
X133669D01*
X135785D02*
X137901Y570084D01*
X140017Y575374D02*
X141075Y576432D01*
X143191D01*
X144249Y575374D01*
Y574316D01*
X143191Y573258D01*
X142133D01*
X143191D01*
X144249Y572200D01*
Y571142D01*
X143191Y570084D01*
X141075D01*
X140017Y571142D01*
X146365Y575374D02*
X147423Y576432D01*
X149539D01*
X150597Y575374D01*
Y571142D01*
X149539Y570084D01*
X147423D01*
X146365Y571142D01*
Y575374D01*
X80656Y576432D02*
Y570084D01*
Y572200D01*
X84888Y576432D01*
X81714Y573258D01*
X84888Y570084D01*
X91236Y576432D02*
X89120Y575374D01*
X87004Y573258D01*
Y571142D01*
X88062Y570084D01*
X90178D01*
X91236Y571142D01*
Y572200D01*
X90178Y573258D01*
X87004D01*
X93352Y570084D02*
Y576432D01*
X96526D01*
X97584Y575374D01*
Y573258D01*
X96526Y572200D01*
X93352D01*
X95468D02*
X97584Y570084D01*
X103932D02*
X99700D01*
X103932Y574316D01*
Y575374D01*
X102874Y576432D01*
X100758D01*
X99700Y575374D01*
X106048Y571142D02*
X107106Y570084D01*
X109222D01*
X110280Y571142D01*
Y575374D01*
X109222Y576432D01*
X107106D01*
X106048Y575374D01*
Y574316D01*
X107106Y573258D01*
X110280D01*
X120337Y552302D02*
Y545954D01*
Y548070D01*
X124569Y552302D01*
X121395Y549128D01*
X124569Y545954D01*
X130917Y552302D02*
X128801Y551244D01*
X126685Y549128D01*
Y547012D01*
X127743Y545954D01*
X129859D01*
X130917Y547012D01*
Y548070D01*
X129859Y549128D01*
X126685D01*
X137265Y547012D02*
Y551244D01*
X136207Y552302D01*
X134091D01*
X133033Y551244D01*
Y547012D01*
X134091Y545954D01*
X136207D01*
X135149Y548070D02*
X137265Y545954D01*
X136207D02*
X137265Y547012D01*
X143613Y545954D02*
X139381D01*
X143613Y550186D01*
Y551244D01*
X142555Y552302D01*
X140439D01*
X139381Y551244D01*
X84565Y552302D02*
Y545954D01*
Y548070D01*
X88797Y552302D01*
X85623Y549128D01*
X88797Y545954D01*
X95145Y552302D02*
X93029Y551244D01*
X90913Y549128D01*
Y547012D01*
X91971Y545954D01*
X94087D01*
X95145Y547012D01*
Y548070D01*
X94087Y549128D01*
X90913D01*
X101493Y547012D02*
Y551244D01*
X100435Y552302D01*
X98319D01*
X97261Y551244D01*
Y547012D01*
X98319Y545954D01*
X100435D01*
X99377Y548070D02*
X101493Y545954D01*
X100435D02*
X101493Y547012D01*
X103609Y545954D02*
X105725D01*
X104667D01*
Y552302D01*
X103609Y551244D01*
X822540Y746124D02*
Y739776D01*
Y741892D01*
X826772Y746124D01*
X823598Y742950D01*
X826772Y739776D01*
X833120Y746124D02*
X831004Y745066D01*
X828888Y742950D01*
Y740834D01*
X829946Y739776D01*
X832062D01*
X833120Y740834D01*
Y741892D01*
X832062Y742950D01*
X828888D01*
X835236Y746124D02*
Y739776D01*
Y741892D01*
X839468Y746124D01*
X836294Y742950D01*
X839468Y739776D01*
X841584D02*
X843700D01*
X842642D01*
Y746124D01*
X841584Y745066D01*
X120650Y589132D02*
Y582784D01*
Y584900D01*
X124882Y589132D01*
X121708Y585958D01*
X124882Y582784D01*
X131230Y589132D02*
X129114Y588074D01*
X126998Y585958D01*
Y583842D01*
X128056Y582784D01*
X130172D01*
X131230Y583842D01*
Y584900D01*
X130172Y585958D01*
X126998D01*
X133346Y589132D02*
Y582784D01*
X136520D01*
X137578Y583842D01*
Y588074D01*
X136520Y589132D01*
X133346D01*
X143926Y582784D02*
X139694D01*
X143926Y587016D01*
Y588074D01*
X142868Y589132D01*
X140752D01*
X139694Y588074D01*
X202858Y238906D02*
Y232558D01*
Y234674D01*
X207090Y238906D01*
X203916Y235732D01*
X207090Y232558D01*
X213438Y238906D02*
X209206D01*
Y235732D01*
X211322Y236790D01*
X212380D01*
X213438Y235732D01*
Y233616D01*
X212380Y232558D01*
X210264D01*
X209206Y233616D01*
X215554Y232558D02*
Y238906D01*
X218728D01*
X219786Y237848D01*
Y235732D01*
X218728Y234674D01*
X215554D01*
X217670D02*
X219786Y232558D01*
X221902Y237848D02*
X222960Y238906D01*
X225076D01*
X226134Y237848D01*
Y236790D01*
X225076Y235732D01*
X224018D01*
X225076D01*
X226134Y234674D01*
Y233616D01*
X225076Y232558D01*
X222960D01*
X221902Y233616D01*
X232482Y232558D02*
X228250D01*
X232482Y236790D01*
Y237848D01*
X231424Y238906D01*
X229308D01*
X228250Y237848D01*
X162441Y238906D02*
Y232558D01*
Y234674D01*
X166673Y238906D01*
X163499Y235732D01*
X166673Y232558D01*
X173021Y238906D02*
X168789D01*
Y235732D01*
X170905Y236790D01*
X171963D01*
X173021Y235732D01*
Y233616D01*
X171963Y232558D01*
X169847D01*
X168789Y233616D01*
X175137Y232558D02*
Y238906D01*
X178311D01*
X179368Y237848D01*
Y235732D01*
X178311Y234674D01*
X175137D01*
X177253D02*
X179368Y232558D01*
X181485Y237848D02*
X182542Y238906D01*
X184659D01*
X185716Y237848D01*
Y236790D01*
X184659Y235732D01*
X183601D01*
X184659D01*
X185716Y234674D01*
Y233616D01*
X184659Y232558D01*
X182542D01*
X181485Y233616D01*
X187832Y232558D02*
X189948D01*
X188890D01*
Y238906D01*
X187832Y237848D01*
X202253Y305434D02*
Y299086D01*
Y301202D01*
X206485Y305434D01*
X203311Y302260D01*
X206485Y299086D01*
X212833Y305434D02*
X208601D01*
Y302260D01*
X210717Y303318D01*
X211775D01*
X212833Y302260D01*
Y300144D01*
X211775Y299086D01*
X209659D01*
X208601Y300144D01*
X214949Y299086D02*
Y305434D01*
X218123D01*
X219181Y304376D01*
Y302260D01*
X218123Y301202D01*
X214949D01*
X217065D02*
X219181Y299086D01*
X221297Y304376D02*
X222355Y305434D01*
X224471D01*
X225529Y304376D01*
Y303318D01*
X224471Y302260D01*
X223413D01*
X224471D01*
X225529Y301202D01*
Y300144D01*
X224471Y299086D01*
X222355D01*
X221297Y300144D01*
X227645Y304376D02*
X228703Y305434D01*
X230819D01*
X231877Y304376D01*
Y300144D01*
X230819Y299086D01*
X228703D01*
X227645Y300144D01*
Y304376D01*
X161936Y305434D02*
Y299086D01*
Y301202D01*
X166168Y305434D01*
X162994Y302260D01*
X166168Y299086D01*
X172516Y305434D02*
X168284D01*
Y302260D01*
X170400Y303318D01*
X171458D01*
X172516Y302260D01*
Y300144D01*
X171458Y299086D01*
X169342D01*
X168284Y300144D01*
X174632Y299086D02*
Y305434D01*
X177806D01*
X178864Y304376D01*
Y302260D01*
X177806Y301202D01*
X174632D01*
X176748D02*
X178864Y299086D01*
X185212D02*
X180980D01*
X185212Y303318D01*
Y304376D01*
X184154Y305434D01*
X182038D01*
X180980Y304376D01*
X187328Y300144D02*
X188386Y299086D01*
X190502D01*
X191560Y300144D01*
Y304376D01*
X190502Y305434D01*
X188386D01*
X187328Y304376D01*
Y303318D01*
X188386Y302260D01*
X191560D01*
X201617Y281304D02*
Y274956D01*
Y277072D01*
X205849Y281304D01*
X202675Y278130D01*
X205849Y274956D01*
X212197Y281304D02*
X207965D01*
Y278130D01*
X210081Y279188D01*
X211139D01*
X212197Y278130D01*
Y276014D01*
X211139Y274956D01*
X209023D01*
X207965Y276014D01*
X218545D02*
Y280246D01*
X217487Y281304D01*
X215371D01*
X214313Y280246D01*
Y276014D01*
X215371Y274956D01*
X217487D01*
X216429Y277072D02*
X218545Y274956D01*
X217487D02*
X218545Y276014D01*
X224893Y274956D02*
X220661D01*
X224893Y279188D01*
Y280246D01*
X223835Y281304D01*
X221719D01*
X220661Y280246D01*
X165845Y281304D02*
Y274956D01*
Y277072D01*
X170077Y281304D01*
X166903Y278130D01*
X170077Y274956D01*
X176425Y281304D02*
X172193D01*
Y278130D01*
X174309Y279188D01*
X175367D01*
X176425Y278130D01*
Y276014D01*
X175367Y274956D01*
X173251D01*
X172193Y276014D01*
X182773D02*
Y280246D01*
X181715Y281304D01*
X179599D01*
X178541Y280246D01*
Y276014D01*
X179599Y274956D01*
X181715D01*
X180657Y277072D02*
X182773Y274956D01*
X181715D02*
X182773Y276014D01*
X184889Y274956D02*
X187005D01*
X185947D01*
Y281304D01*
X184889Y280246D01*
X855346Y285330D02*
X861694D01*
X859578D01*
X855346Y289562D01*
X858520Y286388D01*
X861694Y289562D01*
X855346Y295910D02*
Y291678D01*
X858520D01*
X857462Y293794D01*
Y294852D01*
X858520Y295910D01*
X860636D01*
X861694Y294852D01*
Y292736D01*
X860636Y291678D01*
X855346Y298026D02*
X861694D01*
X859578D01*
X855346Y302258D01*
X858520Y299084D01*
X861694Y302258D01*
Y304374D02*
Y306490D01*
Y305432D01*
X855346D01*
X856404Y304374D01*
X201930Y318134D02*
Y311786D01*
Y313902D01*
X206162Y318134D01*
X202988Y314960D01*
X206162Y311786D01*
X212510Y318134D02*
X208278D01*
Y314960D01*
X210394Y316018D01*
X211452D01*
X212510Y314960D01*
Y312844D01*
X211452Y311786D01*
X209336D01*
X208278Y312844D01*
X214626Y318134D02*
Y311786D01*
X217800D01*
X218858Y312844D01*
Y317076D01*
X217800Y318134D01*
X214626D01*
X225206Y311786D02*
X220974D01*
X225206Y316018D01*
Y317076D01*
X224148Y318134D01*
X222032D01*
X220974Y317076D01*
X121578Y374014D02*
Y367666D01*
Y369782D01*
X125810Y374014D01*
X122636Y370840D01*
X125810Y367666D01*
X131100D02*
Y374014D01*
X127926Y370840D01*
X132158D01*
X134274Y367666D02*
Y374014D01*
X137448D01*
X138506Y372956D01*
Y370840D01*
X137448Y369782D01*
X134274D01*
X136390D02*
X138506Y367666D01*
X140622Y372956D02*
X141680Y374014D01*
X143796D01*
X144854Y372956D01*
Y371898D01*
X143796Y370840D01*
X142738D01*
X143796D01*
X144854Y369782D01*
Y368724D01*
X143796Y367666D01*
X141680D01*
X140622Y368724D01*
X151202Y367666D02*
X146970D01*
X151202Y371898D01*
Y372956D01*
X150144Y374014D01*
X148028D01*
X146970Y372956D01*
X81161Y374014D02*
Y367666D01*
Y369782D01*
X85393Y374014D01*
X82219Y370840D01*
X85393Y367666D01*
X90683D02*
Y374014D01*
X87509Y370840D01*
X91741D01*
X93857Y367666D02*
Y374014D01*
X97030D01*
X98089Y372956D01*
Y370840D01*
X97030Y369782D01*
X93857D01*
X95972D02*
X98089Y367666D01*
X100204Y372956D02*
X101263Y374014D01*
X103378D01*
X104437Y372956D01*
Y371898D01*
X103378Y370840D01*
X102320D01*
X103378D01*
X104437Y369782D01*
Y368724D01*
X103378Y367666D01*
X101263D01*
X100204Y368724D01*
X106552Y367666D02*
X108668D01*
X107610D01*
Y374014D01*
X106552Y372956D01*
X120973Y440542D02*
Y434194D01*
Y436310D01*
X125205Y440542D01*
X122031Y437368D01*
X125205Y434194D01*
X130495D02*
Y440542D01*
X127321Y437368D01*
X131553D01*
X133669Y434194D02*
Y440542D01*
X136843D01*
X137901Y439484D01*
Y437368D01*
X136843Y436310D01*
X133669D01*
X135785D02*
X137901Y434194D01*
X140017Y439484D02*
X141075Y440542D01*
X143191D01*
X144249Y439484D01*
Y438426D01*
X143191Y437368D01*
X142133D01*
X143191D01*
X144249Y436310D01*
Y435252D01*
X143191Y434194D01*
X141075D01*
X140017Y435252D01*
X146365Y439484D02*
X147423Y440542D01*
X149539D01*
X150597Y439484D01*
Y435252D01*
X149539Y434194D01*
X147423D01*
X146365Y435252D01*
Y439484D01*
X80656Y440542D02*
Y434194D01*
Y436310D01*
X84888Y440542D01*
X81714Y437368D01*
X84888Y434194D01*
X90178D02*
Y440542D01*
X87004Y437368D01*
X91236D01*
X93352Y434194D02*
Y440542D01*
X96526D01*
X97584Y439484D01*
Y437368D01*
X96526Y436310D01*
X93352D01*
X95468D02*
X97584Y434194D01*
X103932D02*
X99700D01*
X103932Y438426D01*
Y439484D01*
X102874Y440542D01*
X100758D01*
X99700Y439484D01*
X106048Y435252D02*
X107106Y434194D01*
X109222D01*
X110280Y435252D01*
Y439484D01*
X109222Y440542D01*
X107106D01*
X106048Y439484D01*
Y438426D01*
X107106Y437368D01*
X110280D01*
X120337Y416412D02*
Y410064D01*
Y412180D01*
X124569Y416412D01*
X121395Y413238D01*
X124569Y410064D01*
X129859D02*
Y416412D01*
X126685Y413238D01*
X130917D01*
X137265Y411122D02*
Y415354D01*
X136207Y416412D01*
X134091D01*
X133033Y415354D01*
Y411122D01*
X134091Y410064D01*
X136207D01*
X135149Y412180D02*
X137265Y410064D01*
X136207D02*
X137265Y411122D01*
X143613Y410064D02*
X139381D01*
X143613Y414296D01*
Y415354D01*
X142555Y416412D01*
X140439D01*
X139381Y415354D01*
X84565Y416412D02*
Y410064D01*
Y412180D01*
X88797Y416412D01*
X85623Y413238D01*
X88797Y410064D01*
X94087D02*
Y416412D01*
X90913Y413238D01*
X95145D01*
X101493Y411122D02*
Y415354D01*
X100435Y416412D01*
X98319D01*
X97261Y415354D01*
Y411122D01*
X98319Y410064D01*
X100435D01*
X99377Y412180D02*
X101493Y410064D01*
X100435D02*
X101493Y411122D01*
X103609Y410064D02*
X105725D01*
X104667D01*
Y416412D01*
X103609Y415354D01*
X743800Y746124D02*
Y739776D01*
Y741892D01*
X748032Y746124D01*
X744858Y742950D01*
X748032Y739776D01*
X753322D02*
Y746124D01*
X750148Y742950D01*
X754380D01*
X756496Y746124D02*
Y739776D01*
Y741892D01*
X760728Y746124D01*
X757554Y742950D01*
X760728Y739776D01*
X762844D02*
X764960D01*
X763902D01*
Y746124D01*
X762844Y745066D01*
X120650Y453242D02*
Y446894D01*
Y449010D01*
X124882Y453242D01*
X121708Y450068D01*
X124882Y446894D01*
X130172D02*
Y453242D01*
X126998Y450068D01*
X131230D01*
X133346Y453242D02*
Y446894D01*
X136520D01*
X137578Y447952D01*
Y452184D01*
X136520Y453242D01*
X133346D01*
X143926Y446894D02*
X139694D01*
X143926Y451126D01*
Y452184D01*
X142868Y453242D01*
X140752D01*
X139694Y452184D01*
X284138Y238906D02*
Y232558D01*
Y234674D01*
X288370Y238906D01*
X285196Y235732D01*
X288370Y232558D01*
X290486Y237848D02*
X291544Y238906D01*
X293660D01*
X294718Y237848D01*
Y236790D01*
X293660Y235732D01*
X292602D01*
X293660D01*
X294718Y234674D01*
Y233616D01*
X293660Y232558D01*
X291544D01*
X290486Y233616D01*
X296834Y232558D02*
Y238906D01*
X300008D01*
X301066Y237848D01*
Y235732D01*
X300008Y234674D01*
X296834D01*
X298950D02*
X301066Y232558D01*
X303182Y237848D02*
X304240Y238906D01*
X306356D01*
X307414Y237848D01*
Y236790D01*
X306356Y235732D01*
X305298D01*
X306356D01*
X307414Y234674D01*
Y233616D01*
X306356Y232558D01*
X304240D01*
X303182Y233616D01*
X313762Y232558D02*
X309530D01*
X313762Y236790D01*
Y237848D01*
X312704Y238906D01*
X310588D01*
X309530Y237848D01*
X243721Y238906D02*
Y232558D01*
Y234674D01*
X247953Y238906D01*
X244779Y235732D01*
X247953Y232558D01*
X250069Y237848D02*
X251127Y238906D01*
X253243D01*
X254301Y237848D01*
Y236790D01*
X253243Y235732D01*
X252185D01*
X253243D01*
X254301Y234674D01*
Y233616D01*
X253243Y232558D01*
X251127D01*
X250069Y233616D01*
X256417Y232558D02*
Y238906D01*
X259590D01*
X260648Y237848D01*
Y235732D01*
X259590Y234674D01*
X256417D01*
X258533D02*
X260648Y232558D01*
X262764Y237848D02*
X263822Y238906D01*
X265938D01*
X266996Y237848D01*
Y236790D01*
X265938Y235732D01*
X264881D01*
X265938D01*
X266996Y234674D01*
Y233616D01*
X265938Y232558D01*
X263822D01*
X262764Y233616D01*
X269112Y232558D02*
X271228D01*
X270170D01*
Y238906D01*
X269112Y237848D01*
X283533Y305434D02*
Y299086D01*
Y301202D01*
X287765Y305434D01*
X284591Y302260D01*
X287765Y299086D01*
X289881Y304376D02*
X290939Y305434D01*
X293055D01*
X294113Y304376D01*
Y303318D01*
X293055Y302260D01*
X291997D01*
X293055D01*
X294113Y301202D01*
Y300144D01*
X293055Y299086D01*
X290939D01*
X289881Y300144D01*
X296229Y299086D02*
Y305434D01*
X299403D01*
X300461Y304376D01*
Y302260D01*
X299403Y301202D01*
X296229D01*
X298345D02*
X300461Y299086D01*
X302577Y304376D02*
X303635Y305434D01*
X305751D01*
X306809Y304376D01*
Y303318D01*
X305751Y302260D01*
X304693D01*
X305751D01*
X306809Y301202D01*
Y300144D01*
X305751Y299086D01*
X303635D01*
X302577Y300144D01*
X308925Y304376D02*
X309983Y305434D01*
X312099D01*
X313157Y304376D01*
Y300144D01*
X312099Y299086D01*
X309983D01*
X308925Y300144D01*
Y304376D01*
X243216Y305434D02*
Y299086D01*
Y301202D01*
X247448Y305434D01*
X244274Y302260D01*
X247448Y299086D01*
X249564Y304376D02*
X250622Y305434D01*
X252738D01*
X253796Y304376D01*
Y303318D01*
X252738Y302260D01*
X251680D01*
X252738D01*
X253796Y301202D01*
Y300144D01*
X252738Y299086D01*
X250622D01*
X249564Y300144D01*
X255912Y299086D02*
Y305434D01*
X259086D01*
X260144Y304376D01*
Y302260D01*
X259086Y301202D01*
X255912D01*
X258028D02*
X260144Y299086D01*
X266492D02*
X262260D01*
X266492Y303318D01*
Y304376D01*
X265434Y305434D01*
X263318D01*
X262260Y304376D01*
X268608Y300144D02*
X269666Y299086D01*
X271782D01*
X272840Y300144D01*
Y304376D01*
X271782Y305434D01*
X269666D01*
X268608Y304376D01*
Y303318D01*
X269666Y302260D01*
X272840D01*
X282897Y281304D02*
Y274956D01*
Y277072D01*
X287129Y281304D01*
X283955Y278130D01*
X287129Y274956D01*
X289245Y280246D02*
X290303Y281304D01*
X292419D01*
X293477Y280246D01*
Y279188D01*
X292419Y278130D01*
X291361D01*
X292419D01*
X293477Y277072D01*
Y276014D01*
X292419Y274956D01*
X290303D01*
X289245Y276014D01*
X299825D02*
Y280246D01*
X298767Y281304D01*
X296651D01*
X295593Y280246D01*
Y276014D01*
X296651Y274956D01*
X298767D01*
X297709Y277072D02*
X299825Y274956D01*
X298767D02*
X299825Y276014D01*
X306173Y274956D02*
X301941D01*
X306173Y279188D01*
Y280246D01*
X305115Y281304D01*
X302999D01*
X301941Y280246D01*
X247125Y281304D02*
Y274956D01*
Y277072D01*
X251357Y281304D01*
X248183Y278130D01*
X251357Y274956D01*
X253473Y280246D02*
X254531Y281304D01*
X256647D01*
X257705Y280246D01*
Y279188D01*
X256647Y278130D01*
X255589D01*
X256647D01*
X257705Y277072D01*
Y276014D01*
X256647Y274956D01*
X254531D01*
X253473Y276014D01*
X264053D02*
Y280246D01*
X262995Y281304D01*
X260879D01*
X259821Y280246D01*
Y276014D01*
X260879Y274956D01*
X262995D01*
X261937Y277072D02*
X264053Y274956D01*
X262995D02*
X264053Y276014D01*
X266169Y274956D02*
X268285D01*
X267227D01*
Y281304D01*
X266169Y280246D01*
X802006Y285330D02*
X808354D01*
X806238D01*
X802006Y289562D01*
X805180Y286388D01*
X808354Y289562D01*
X803064Y291678D02*
X802006Y292736D01*
Y294852D01*
X803064Y295910D01*
X804122D01*
X805180Y294852D01*
Y293794D01*
Y294852D01*
X806238Y295910D01*
X807296D01*
X808354Y294852D01*
Y292736D01*
X807296Y291678D01*
X802006Y298026D02*
X808354D01*
X806238D01*
X802006Y302258D01*
X805180Y299084D01*
X808354Y302258D01*
Y304374D02*
Y306490D01*
Y305432D01*
X802006D01*
X803064Y304374D01*
X283210Y318134D02*
Y311786D01*
Y313902D01*
X287442Y318134D01*
X284268Y314960D01*
X287442Y311786D01*
X289558Y317076D02*
X290616Y318134D01*
X292732D01*
X293790Y317076D01*
Y316018D01*
X292732Y314960D01*
X291674D01*
X292732D01*
X293790Y313902D01*
Y312844D01*
X292732Y311786D01*
X290616D01*
X289558Y312844D01*
X295906Y318134D02*
Y311786D01*
X299080D01*
X300138Y312844D01*
Y317076D01*
X299080Y318134D01*
X295906D01*
X306486Y311786D02*
X302254D01*
X306486Y316018D01*
Y317076D01*
X305428Y318134D01*
X303312D01*
X302254Y317076D01*
X202858Y374014D02*
Y367666D01*
Y369782D01*
X207090Y374014D01*
X203916Y370840D01*
X207090Y367666D01*
X213438D02*
X209206D01*
X213438Y371898D01*
Y372956D01*
X212380Y374014D01*
X210264D01*
X209206Y372956D01*
X215554Y367666D02*
Y374014D01*
X218728D01*
X219786Y372956D01*
Y370840D01*
X218728Y369782D01*
X215554D01*
X217670D02*
X219786Y367666D01*
X221902Y372956D02*
X222960Y374014D01*
X225076D01*
X226134Y372956D01*
Y371898D01*
X225076Y370840D01*
X224018D01*
X225076D01*
X226134Y369782D01*
Y368724D01*
X225076Y367666D01*
X222960D01*
X221902Y368724D01*
X232482Y367666D02*
X228250D01*
X232482Y371898D01*
Y372956D01*
X231424Y374014D01*
X229308D01*
X228250Y372956D01*
X162441Y374014D02*
Y367666D01*
Y369782D01*
X166673Y374014D01*
X163499Y370840D01*
X166673Y367666D01*
X173021D02*
X168789D01*
X173021Y371898D01*
Y372956D01*
X171963Y374014D01*
X169847D01*
X168789Y372956D01*
X175137Y367666D02*
Y374014D01*
X178311D01*
X179368Y372956D01*
Y370840D01*
X178311Y369782D01*
X175137D01*
X177253D02*
X179368Y367666D01*
X181485Y372956D02*
X182542Y374014D01*
X184659D01*
X185716Y372956D01*
Y371898D01*
X184659Y370840D01*
X183601D01*
X184659D01*
X185716Y369782D01*
Y368724D01*
X184659Y367666D01*
X182542D01*
X181485Y368724D01*
X187832Y367666D02*
X189948D01*
X188890D01*
Y374014D01*
X187832Y372956D01*
X202253Y440542D02*
Y434194D01*
Y436310D01*
X206485Y440542D01*
X203311Y437368D01*
X206485Y434194D01*
X212833D02*
X208601D01*
X212833Y438426D01*
Y439484D01*
X211775Y440542D01*
X209659D01*
X208601Y439484D01*
X214949Y434194D02*
Y440542D01*
X218123D01*
X219181Y439484D01*
Y437368D01*
X218123Y436310D01*
X214949D01*
X217065D02*
X219181Y434194D01*
X221297Y439484D02*
X222355Y440542D01*
X224471D01*
X225529Y439484D01*
Y438426D01*
X224471Y437368D01*
X223413D01*
X224471D01*
X225529Y436310D01*
Y435252D01*
X224471Y434194D01*
X222355D01*
X221297Y435252D01*
X227645Y439484D02*
X228703Y440542D01*
X230819D01*
X231877Y439484D01*
Y435252D01*
X230819Y434194D01*
X228703D01*
X227645Y435252D01*
Y439484D01*
X161936Y440542D02*
Y434194D01*
Y436310D01*
X166168Y440542D01*
X162994Y437368D01*
X166168Y434194D01*
X172516D02*
X168284D01*
X172516Y438426D01*
Y439484D01*
X171458Y440542D01*
X169342D01*
X168284Y439484D01*
X174632Y434194D02*
Y440542D01*
X177806D01*
X178864Y439484D01*
Y437368D01*
X177806Y436310D01*
X174632D01*
X176748D02*
X178864Y434194D01*
X185212D02*
X180980D01*
X185212Y438426D01*
Y439484D01*
X184154Y440542D01*
X182038D01*
X180980Y439484D01*
X187328Y435252D02*
X188386Y434194D01*
X190502D01*
X191560Y435252D01*
Y439484D01*
X190502Y440542D01*
X188386D01*
X187328Y439484D01*
Y438426D01*
X188386Y437368D01*
X191560D01*
X201617Y416412D02*
Y410064D01*
Y412180D01*
X205849Y416412D01*
X202675Y413238D01*
X205849Y410064D01*
X212197D02*
X207965D01*
X212197Y414296D01*
Y415354D01*
X211139Y416412D01*
X209023D01*
X207965Y415354D01*
X218545Y411122D02*
Y415354D01*
X217487Y416412D01*
X215371D01*
X214313Y415354D01*
Y411122D01*
X215371Y410064D01*
X217487D01*
X216429Y412180D02*
X218545Y410064D01*
X217487D02*
X218545Y411122D01*
X224893Y410064D02*
X220661D01*
X224893Y414296D01*
Y415354D01*
X223835Y416412D01*
X221719D01*
X220661Y415354D01*
X165845Y416412D02*
Y410064D01*
Y412180D01*
X170077Y416412D01*
X166903Y413238D01*
X170077Y410064D01*
X176425D02*
X172193D01*
X176425Y414296D01*
Y415354D01*
X175367Y416412D01*
X173251D01*
X172193Y415354D01*
X182773Y411122D02*
Y415354D01*
X181715Y416412D01*
X179599D01*
X178541Y415354D01*
Y411122D01*
X179599Y410064D01*
X181715D01*
X180657Y412180D02*
X182773Y410064D01*
X181715D02*
X182773Y411122D01*
X184889Y410064D02*
X187005D01*
X185947D01*
Y416412D01*
X184889Y415354D01*
X665060Y746124D02*
Y739776D01*
Y741892D01*
X669292Y746124D01*
X666118Y742950D01*
X669292Y739776D01*
X675640D02*
X671408D01*
X675640Y744008D01*
Y745066D01*
X674582Y746124D01*
X672466D01*
X671408Y745066D01*
X677756Y746124D02*
Y739776D01*
Y741892D01*
X681988Y746124D01*
X678814Y742950D01*
X681988Y739776D01*
X684104D02*
X686220D01*
X685162D01*
Y746124D01*
X684104Y745066D01*
X201930Y453242D02*
Y446894D01*
Y449010D01*
X206162Y453242D01*
X202988Y450068D01*
X206162Y446894D01*
X212510D02*
X208278D01*
X212510Y451126D01*
Y452184D01*
X211452Y453242D01*
X209336D01*
X208278Y452184D01*
X214626Y453242D02*
Y446894D01*
X217800D01*
X218858Y447952D01*
Y452184D01*
X217800Y453242D01*
X214626D01*
X225206Y446894D02*
X220974D01*
X225206Y451126D01*
Y452184D01*
X224148Y453242D01*
X222032D01*
X220974Y452184D01*
X365418Y238906D02*
Y232558D01*
Y234674D01*
X369650Y238906D01*
X366476Y235732D01*
X369650Y232558D01*
X371766D02*
X373882D01*
X372824D01*
Y238906D01*
X371766Y237848D01*
X377056Y232558D02*
Y238906D01*
X380230D01*
X381288Y237848D01*
Y235732D01*
X380230Y234674D01*
X377056D01*
X379172D02*
X381288Y232558D01*
X383404Y237848D02*
X384462Y238906D01*
X386578D01*
X387636Y237848D01*
Y236790D01*
X386578Y235732D01*
X385520D01*
X386578D01*
X387636Y234674D01*
Y233616D01*
X386578Y232558D01*
X384462D01*
X383404Y233616D01*
X393984Y232558D02*
X389752D01*
X393984Y236790D01*
Y237848D01*
X392926Y238906D01*
X390810D01*
X389752Y237848D01*
X325001Y238906D02*
Y232558D01*
Y234674D01*
X329233Y238906D01*
X326059Y235732D01*
X329233Y232558D01*
X331349D02*
X333465D01*
X332407D01*
Y238906D01*
X331349Y237848D01*
X336639Y232558D02*
Y238906D01*
X339813D01*
X340871Y237848D01*
Y235732D01*
X339813Y234674D01*
X336639D01*
X338755D02*
X340871Y232558D01*
X342986Y237848D02*
X344044Y238906D01*
X346161D01*
X347219Y237848D01*
Y236790D01*
X346161Y235732D01*
X345103D01*
X346161D01*
X347219Y234674D01*
Y233616D01*
X346161Y232558D01*
X344044D01*
X342986Y233616D01*
X349334Y232558D02*
X351450D01*
X350392D01*
Y238906D01*
X349334Y237848D01*
X364813Y305434D02*
Y299086D01*
Y301202D01*
X369045Y305434D01*
X365871Y302260D01*
X369045Y299086D01*
X371161D02*
X373277D01*
X372219D01*
Y305434D01*
X371161Y304376D01*
X376451Y299086D02*
Y305434D01*
X379625D01*
X380683Y304376D01*
Y302260D01*
X379625Y301202D01*
X376451D01*
X378567D02*
X380683Y299086D01*
X382799Y304376D02*
X383857Y305434D01*
X385973D01*
X387031Y304376D01*
Y303318D01*
X385973Y302260D01*
X384915D01*
X385973D01*
X387031Y301202D01*
Y300144D01*
X385973Y299086D01*
X383857D01*
X382799Y300144D01*
X389147Y304376D02*
X390205Y305434D01*
X392321D01*
X393379Y304376D01*
Y300144D01*
X392321Y299086D01*
X390205D01*
X389147Y300144D01*
Y304376D01*
X324496Y305434D02*
Y299086D01*
Y301202D01*
X328728Y305434D01*
X325554Y302260D01*
X328728Y299086D01*
X330844D02*
X332960D01*
X331902D01*
Y305434D01*
X330844Y304376D01*
X336134Y299086D02*
Y305434D01*
X339308D01*
X340366Y304376D01*
Y302260D01*
X339308Y301202D01*
X336134D01*
X338250D02*
X340366Y299086D01*
X346714D02*
X342482D01*
X346714Y303318D01*
Y304376D01*
X345656Y305434D01*
X343540D01*
X342482Y304376D01*
X348830Y300144D02*
X349888Y299086D01*
X352004D01*
X353062Y300144D01*
Y304376D01*
X352004Y305434D01*
X349888D01*
X348830Y304376D01*
Y303318D01*
X349888Y302260D01*
X353062D01*
X364177Y281304D02*
Y274956D01*
Y277072D01*
X368409Y281304D01*
X365235Y278130D01*
X368409Y274956D01*
X370525D02*
X372641D01*
X371583D01*
Y281304D01*
X370525Y280246D01*
X380047Y276014D02*
Y280246D01*
X378989Y281304D01*
X376873D01*
X375815Y280246D01*
Y276014D01*
X376873Y274956D01*
X378989D01*
X377931Y277072D02*
X380047Y274956D01*
X378989D02*
X380047Y276014D01*
X386395Y274956D02*
X382163D01*
X386395Y279188D01*
Y280246D01*
X385337Y281304D01*
X383221D01*
X382163Y280246D01*
X328405Y281304D02*
Y274956D01*
Y277072D01*
X332637Y281304D01*
X329463Y278130D01*
X332637Y274956D01*
X334753D02*
X336869D01*
X335811D01*
Y281304D01*
X334753Y280246D01*
X344275Y276014D02*
Y280246D01*
X343217Y281304D01*
X341101D01*
X340043Y280246D01*
Y276014D01*
X341101Y274956D01*
X343217D01*
X342159Y277072D02*
X344275Y274956D01*
X343217D02*
X344275Y276014D01*
X346391Y274956D02*
X348507D01*
X347449D01*
Y281304D01*
X346391Y280246D01*
X654686Y312529D02*
X661034D01*
X658918D01*
X654686Y316761D01*
X657860Y313587D01*
X661034Y316761D01*
Y318877D02*
Y320993D01*
Y319935D01*
X654686D01*
X655744Y318877D01*
X654686Y324167D02*
X661034D01*
X658918D01*
X654686Y328399D01*
X657860Y325225D01*
X661034Y328399D01*
Y330515D02*
Y332631D01*
Y331573D01*
X654686D01*
X655744Y330515D01*
X364490Y318134D02*
Y311786D01*
Y313902D01*
X368722Y318134D01*
X365548Y314960D01*
X368722Y311786D01*
X370838D02*
X372954D01*
X371896D01*
Y318134D01*
X370838Y317076D01*
X376128Y318134D02*
Y311786D01*
X379302D01*
X380360Y312844D01*
Y317076D01*
X379302Y318134D01*
X376128D01*
X386708Y311786D02*
X382476D01*
X386708Y316018D01*
Y317076D01*
X385650Y318134D01*
X383534D01*
X382476Y317076D01*
X1369696Y284589D02*
Y286705D01*
Y285647D01*
X1376044D01*
Y284589D01*
Y286705D01*
X1369696Y289879D02*
X1376044D01*
Y293053D01*
X1374986Y294111D01*
X1370754D01*
X1369696Y293053D01*
Y289879D01*
Y296227D02*
X1374986D01*
X1376044Y297285D01*
Y299401D01*
X1374986Y300459D01*
X1369696D01*
X1376044Y302575D02*
Y304691D01*
Y303633D01*
X1369696D01*
X1370754Y302575D01*
X1331176Y172084D02*
X1333292D01*
X1332234D01*
Y165736D01*
X1331176D01*
X1333292D01*
X1336466Y172084D02*
Y165736D01*
X1339640D01*
X1340698Y166794D01*
Y171026D01*
X1339640Y172084D01*
X1336466D01*
X1342814Y165736D02*
Y172084D01*
X1345988D01*
X1347046Y171026D01*
Y168910D01*
X1345988Y167852D01*
X1342814D01*
X1344930D02*
X1347046Y165736D01*
X1349162D02*
X1351278D01*
X1350220D01*
Y172084D01*
X1349162Y171026D01*
X1358684Y165736D02*
X1354452D01*
X1358684Y169968D01*
Y171026D01*
X1357626Y172084D01*
X1355510D01*
X1354452Y171026D01*
X1332234Y147954D02*
X1334350D01*
X1333292D01*
Y141606D01*
X1332234D01*
X1334350D01*
X1337524Y147954D02*
Y141606D01*
X1340698D01*
X1341756Y142664D01*
Y146896D01*
X1340698Y147954D01*
X1337524D01*
X1343872Y141606D02*
Y147954D01*
X1347046D01*
X1348104Y146896D01*
Y144780D01*
X1347046Y143722D01*
X1343872D01*
X1345988D02*
X1348104Y141606D01*
X1350220D02*
X1352336D01*
X1351278D01*
Y147954D01*
X1350220Y146896D01*
X1355510Y141606D02*
X1357626D01*
X1356568D01*
Y147954D01*
X1355510Y146896D01*
X1323556Y306704D02*
X1325672D01*
X1324614D01*
Y300356D01*
X1323556D01*
X1325672D01*
X1328846Y306704D02*
Y300356D01*
X1332020D01*
X1333078Y301414D01*
Y305646D01*
X1332020Y306704D01*
X1328846D01*
X1335194Y300356D02*
Y306704D01*
X1338368D01*
X1339426Y305646D01*
Y303530D01*
X1338368Y302472D01*
X1335194D01*
X1337310D02*
X1339426Y300356D01*
X1341542D02*
X1343658D01*
X1342600D01*
Y306704D01*
X1341542Y305646D01*
X1346832D02*
X1347890Y306704D01*
X1350006D01*
X1351064Y305646D01*
Y301414D01*
X1350006Y300356D01*
X1347890D01*
X1346832Y301414D01*
Y305646D01*
X1283021Y172084D02*
X1285137D01*
X1284079D01*
Y165736D01*
X1283021D01*
X1285137D01*
X1288311Y172084D02*
Y165736D01*
X1291485D01*
X1292543Y166794D01*
Y171026D01*
X1291485Y172084D01*
X1288311D01*
X1294659Y165736D02*
Y172084D01*
X1297833D01*
X1298891Y171026D01*
Y168910D01*
X1297833Y167852D01*
X1294659D01*
X1296775D02*
X1298891Y165736D01*
X1301007Y166794D02*
X1302065Y165736D01*
X1304181D01*
X1305239Y166794D01*
Y171026D01*
X1304181Y172084D01*
X1302065D01*
X1301007Y171026D01*
Y169968D01*
X1302065Y168910D01*
X1305239D01*
X1283021Y147954D02*
X1285137D01*
X1284079D01*
Y141606D01*
X1283021D01*
X1285137D01*
X1288311Y147954D02*
Y141606D01*
X1291485D01*
X1292543Y142664D01*
Y146896D01*
X1291485Y147954D01*
X1288311D01*
X1294659Y141606D02*
Y147954D01*
X1297833D01*
X1298891Y146896D01*
Y144780D01*
X1297833Y143722D01*
X1294659D01*
X1296775D02*
X1298891Y141606D01*
X1301007Y146896D02*
X1302065Y147954D01*
X1304181D01*
X1305239Y146896D01*
Y145838D01*
X1304181Y144780D01*
X1305239Y143722D01*
Y142664D01*
X1304181Y141606D01*
X1302065D01*
X1301007Y142664D01*
Y143722D01*
X1302065Y144780D01*
X1301007Y145838D01*
Y146896D01*
X1302065Y144780D02*
X1304181D01*
X1283021Y306704D02*
X1285137D01*
X1284079D01*
Y300356D01*
X1283021D01*
X1285137D01*
X1288311Y306704D02*
Y300356D01*
X1291485D01*
X1292543Y301414D01*
Y305646D01*
X1291485Y306704D01*
X1288311D01*
X1294659Y300356D02*
Y306704D01*
X1297833D01*
X1298891Y305646D01*
Y303530D01*
X1297833Y302472D01*
X1294659D01*
X1296775D02*
X1298891Y300356D01*
X1301007Y306704D02*
X1305239D01*
Y305646D01*
X1301007Y301414D01*
Y300356D01*
X1232221Y172084D02*
X1234337D01*
X1233279D01*
Y165736D01*
X1232221D01*
X1234337D01*
X1237511Y172084D02*
Y165736D01*
X1240685D01*
X1241743Y166794D01*
Y171026D01*
X1240685Y172084D01*
X1237511D01*
X1243859Y165736D02*
Y172084D01*
X1247033D01*
X1248091Y171026D01*
Y168910D01*
X1247033Y167852D01*
X1243859D01*
X1245975D02*
X1248091Y165736D01*
X1254439Y172084D02*
X1252323Y171026D01*
X1250207Y168910D01*
Y166794D01*
X1251265Y165736D01*
X1253381D01*
X1254439Y166794D01*
Y167852D01*
X1253381Y168910D01*
X1250207D01*
X1232221Y147954D02*
X1234337D01*
X1233279D01*
Y141606D01*
X1232221D01*
X1234337D01*
X1237511Y147954D02*
Y141606D01*
X1240685D01*
X1241743Y142664D01*
Y146896D01*
X1240685Y147954D01*
X1237511D01*
X1243859Y141606D02*
Y147954D01*
X1247033D01*
X1248091Y146896D01*
Y144780D01*
X1247033Y143722D01*
X1243859D01*
X1245975D02*
X1248091Y141606D01*
X1254439Y147954D02*
X1250207D01*
Y144780D01*
X1252323Y145838D01*
X1253381D01*
X1254439Y144780D01*
Y142664D01*
X1253381Y141606D01*
X1251265D01*
X1250207Y142664D01*
X1232221Y306704D02*
X1234337D01*
X1233279D01*
Y300356D01*
X1232221D01*
X1234337D01*
X1237511Y306704D02*
Y300356D01*
X1240685D01*
X1241743Y301414D01*
Y305646D01*
X1240685Y306704D01*
X1237511D01*
X1243859Y300356D02*
Y306704D01*
X1247033D01*
X1248091Y305646D01*
Y303530D01*
X1247033Y302472D01*
X1243859D01*
X1245975D02*
X1248091Y300356D01*
X1253381D02*
Y306704D01*
X1250207Y303530D01*
X1254439D01*
X1183961Y172084D02*
X1186077D01*
X1185019D01*
Y165736D01*
X1183961D01*
X1186077D01*
X1189251Y172084D02*
Y165736D01*
X1192425D01*
X1193483Y166794D01*
Y171026D01*
X1192425Y172084D01*
X1189251D01*
X1195599Y165736D02*
Y172084D01*
X1198773D01*
X1199831Y171026D01*
Y168910D01*
X1198773Y167852D01*
X1195599D01*
X1197715D02*
X1199831Y165736D01*
X1201947Y171026D02*
X1203005Y172084D01*
X1205121D01*
X1206179Y171026D01*
Y169968D01*
X1205121Y168910D01*
X1204063D01*
X1205121D01*
X1206179Y167852D01*
Y166794D01*
X1205121Y165736D01*
X1203005D01*
X1201947Y166794D01*
X1183961Y147954D02*
X1186077D01*
X1185019D01*
Y141606D01*
X1183961D01*
X1186077D01*
X1189251Y147954D02*
Y141606D01*
X1192425D01*
X1193483Y142664D01*
Y146896D01*
X1192425Y147954D01*
X1189251D01*
X1195599Y141606D02*
Y147954D01*
X1198773D01*
X1199831Y146896D01*
Y144780D01*
X1198773Y143722D01*
X1195599D01*
X1197715D02*
X1199831Y141606D01*
X1206179D02*
X1201947D01*
X1206179Y145838D01*
Y146896D01*
X1205121Y147954D01*
X1203005D01*
X1201947Y146896D01*
X1183749Y306704D02*
X1185865D01*
X1184807D01*
Y300356D01*
X1183749D01*
X1185865D01*
X1189039Y306704D02*
Y300356D01*
X1192213D01*
X1193271Y301414D01*
Y305646D01*
X1192213Y306704D01*
X1189039D01*
X1195387Y300356D02*
Y306704D01*
X1198561D01*
X1199619Y305646D01*
Y303530D01*
X1198561Y302472D01*
X1195387D01*
X1197503D02*
X1199619Y300356D01*
X1201735D02*
X1203851D01*
X1202793D01*
Y306704D01*
X1201735Y305646D01*
X1110616Y285859D02*
Y287975D01*
Y286917D01*
X1116964D01*
Y285859D01*
Y287975D01*
X1111674Y295381D02*
X1110616Y294323D01*
Y292207D01*
X1111674Y291149D01*
X1115906D01*
X1116964Y292207D01*
Y294323D01*
X1115906Y295381D01*
X1110616Y297497D02*
X1115906D01*
X1116964Y298555D01*
Y300671D01*
X1115906Y301729D01*
X1110616D01*
X1116964Y303845D02*
Y305961D01*
Y304903D01*
X1110616D01*
X1111674Y303845D01*
X1125436Y172084D02*
X1127552D01*
X1126494D01*
Y165736D01*
X1125436D01*
X1127552D01*
X1134958Y171026D02*
X1133900Y172084D01*
X1131784D01*
X1130726Y171026D01*
Y166794D01*
X1131784Y165736D01*
X1133900D01*
X1134958Y166794D01*
X1137074Y165736D02*
Y172084D01*
X1140248D01*
X1141306Y171026D01*
Y168910D01*
X1140248Y167852D01*
X1137074D01*
X1139190D02*
X1141306Y165736D01*
X1143422D02*
X1145538D01*
X1144480D01*
Y172084D01*
X1143422Y171026D01*
X1152944Y165736D02*
X1148712D01*
X1152944Y169968D01*
Y171026D01*
X1151886Y172084D01*
X1149770D01*
X1148712Y171026D01*
X1126494Y147954D02*
X1128610D01*
X1127552D01*
Y141606D01*
X1126494D01*
X1128610D01*
X1136016Y146896D02*
X1134958Y147954D01*
X1132842D01*
X1131784Y146896D01*
Y142664D01*
X1132842Y141606D01*
X1134958D01*
X1136016Y142664D01*
X1138132Y141606D02*
Y147954D01*
X1141306D01*
X1142364Y146896D01*
Y144780D01*
X1141306Y143722D01*
X1138132D01*
X1140248D02*
X1142364Y141606D01*
X1144480D02*
X1146596D01*
X1145538D01*
Y147954D01*
X1144480Y146896D01*
X1149770Y141606D02*
X1151886D01*
X1150828D01*
Y147954D01*
X1149770Y146896D01*
X1124166Y306704D02*
X1126282D01*
X1125224D01*
Y300356D01*
X1124166D01*
X1126282D01*
X1133688Y305646D02*
X1132630Y306704D01*
X1130514D01*
X1129456Y305646D01*
Y301414D01*
X1130514Y300356D01*
X1132630D01*
X1133688Y301414D01*
X1135804Y300356D02*
Y306704D01*
X1138978D01*
X1140036Y305646D01*
Y303530D01*
X1138978Y302472D01*
X1135804D01*
X1137920D02*
X1140036Y300356D01*
X1142152D02*
X1144268D01*
X1143210D01*
Y306704D01*
X1142152Y305646D01*
X1147442D02*
X1148500Y306704D01*
X1150616D01*
X1151674Y305646D01*
Y301414D01*
X1150616Y300356D01*
X1148500D01*
X1147442Y301414D01*
Y305646D01*
X1077281Y172084D02*
X1079397D01*
X1078339D01*
Y165736D01*
X1077281D01*
X1079397D01*
X1086803Y171026D02*
X1085745Y172084D01*
X1083629D01*
X1082571Y171026D01*
Y166794D01*
X1083629Y165736D01*
X1085745D01*
X1086803Y166794D01*
X1088919Y165736D02*
Y172084D01*
X1092093D01*
X1093151Y171026D01*
Y168910D01*
X1092093Y167852D01*
X1088919D01*
X1091035D02*
X1093151Y165736D01*
X1095267Y166794D02*
X1096325Y165736D01*
X1098441D01*
X1099499Y166794D01*
Y171026D01*
X1098441Y172084D01*
X1096325D01*
X1095267Y171026D01*
Y169968D01*
X1096325Y168910D01*
X1099499D01*
X1077281Y147954D02*
X1079397D01*
X1078339D01*
Y141606D01*
X1077281D01*
X1079397D01*
X1086803Y146896D02*
X1085745Y147954D01*
X1083629D01*
X1082571Y146896D01*
Y142664D01*
X1083629Y141606D01*
X1085745D01*
X1086803Y142664D01*
X1088919Y141606D02*
Y147954D01*
X1092093D01*
X1093151Y146896D01*
Y144780D01*
X1092093Y143722D01*
X1088919D01*
X1091035D02*
X1093151Y141606D01*
X1095267Y146896D02*
X1096325Y147954D01*
X1098441D01*
X1099499Y146896D01*
Y145838D01*
X1098441Y144780D01*
X1099499Y143722D01*
Y142664D01*
X1098441Y141606D01*
X1096325D01*
X1095267Y142664D01*
Y143722D01*
X1096325Y144780D01*
X1095267Y145838D01*
Y146896D01*
X1096325Y144780D02*
X1098441D01*
X1077281Y306704D02*
X1079397D01*
X1078339D01*
Y300356D01*
X1077281D01*
X1079397D01*
X1086803Y305646D02*
X1085745Y306704D01*
X1083629D01*
X1082571Y305646D01*
Y301414D01*
X1083629Y300356D01*
X1085745D01*
X1086803Y301414D01*
X1088919Y300356D02*
Y306704D01*
X1092093D01*
X1093151Y305646D01*
Y303530D01*
X1092093Y302472D01*
X1088919D01*
X1091035D02*
X1093151Y300356D01*
X1095267Y306704D02*
X1099499D01*
Y305646D01*
X1095267Y301414D01*
Y300356D01*
X1026481Y172084D02*
X1028597D01*
X1027539D01*
Y165736D01*
X1026481D01*
X1028597D01*
X1036003Y171026D02*
X1034945Y172084D01*
X1032829D01*
X1031771Y171026D01*
Y166794D01*
X1032829Y165736D01*
X1034945D01*
X1036003Y166794D01*
X1038119Y165736D02*
Y172084D01*
X1041293D01*
X1042351Y171026D01*
Y168910D01*
X1041293Y167852D01*
X1038119D01*
X1040235D02*
X1042351Y165736D01*
X1048699Y172084D02*
X1046583Y171026D01*
X1044467Y168910D01*
Y166794D01*
X1045525Y165736D01*
X1047641D01*
X1048699Y166794D01*
Y167852D01*
X1047641Y168910D01*
X1044467D01*
X1026481Y147954D02*
X1028597D01*
X1027539D01*
Y141606D01*
X1026481D01*
X1028597D01*
X1036003Y146896D02*
X1034945Y147954D01*
X1032829D01*
X1031771Y146896D01*
Y142664D01*
X1032829Y141606D01*
X1034945D01*
X1036003Y142664D01*
X1038119Y141606D02*
Y147954D01*
X1041293D01*
X1042351Y146896D01*
Y144780D01*
X1041293Y143722D01*
X1038119D01*
X1040235D02*
X1042351Y141606D01*
X1048699Y147954D02*
X1044467D01*
Y144780D01*
X1046583Y145838D01*
X1047641D01*
X1048699Y144780D01*
Y142664D01*
X1047641Y141606D01*
X1045525D01*
X1044467Y142664D01*
X1023941Y306704D02*
X1026057D01*
X1024999D01*
Y300356D01*
X1023941D01*
X1026057D01*
X1033463Y305646D02*
X1032405Y306704D01*
X1030289D01*
X1029231Y305646D01*
Y301414D01*
X1030289Y300356D01*
X1032405D01*
X1033463Y301414D01*
X1035579Y300356D02*
Y306704D01*
X1038753D01*
X1039811Y305646D01*
Y303530D01*
X1038753Y302472D01*
X1035579D01*
X1037695D02*
X1039811Y300356D01*
X1045101D02*
Y306704D01*
X1041927Y303530D01*
X1046159D01*
X978221Y172084D02*
X980337D01*
X979279D01*
Y165736D01*
X978221D01*
X980337D01*
X987743Y171026D02*
X986685Y172084D01*
X984569D01*
X983511Y171026D01*
Y166794D01*
X984569Y165736D01*
X986685D01*
X987743Y166794D01*
X989859Y165736D02*
Y172084D01*
X993033D01*
X994091Y171026D01*
Y168910D01*
X993033Y167852D01*
X989859D01*
X991975D02*
X994091Y165736D01*
X996207Y171026D02*
X997265Y172084D01*
X999381D01*
X1000439Y171026D01*
Y169968D01*
X999381Y168910D01*
X998323D01*
X999381D01*
X1000439Y167852D01*
Y166794D01*
X999381Y165736D01*
X997265D01*
X996207Y166794D01*
X978221Y147954D02*
X980337D01*
X979279D01*
Y141606D01*
X978221D01*
X980337D01*
X987743Y146896D02*
X986685Y147954D01*
X984569D01*
X983511Y146896D01*
Y142664D01*
X984569Y141606D01*
X986685D01*
X987743Y142664D01*
X989859Y141606D02*
Y147954D01*
X993033D01*
X994091Y146896D01*
Y144780D01*
X993033Y143722D01*
X989859D01*
X991975D02*
X994091Y141606D01*
X1000439D02*
X996207D01*
X1000439Y145838D01*
Y146896D01*
X999381Y147954D01*
X997265D01*
X996207Y146896D01*
X976739Y306704D02*
X978855D01*
X977797D01*
Y300356D01*
X976739D01*
X978855D01*
X986261Y305646D02*
X985203Y306704D01*
X983087D01*
X982029Y305646D01*
Y301414D01*
X983087Y300356D01*
X985203D01*
X986261Y301414D01*
X988377Y300356D02*
Y306704D01*
X991551D01*
X992609Y305646D01*
Y303530D01*
X991551Y302472D01*
X988377D01*
X990493D02*
X992609Y300356D01*
X994725D02*
X996841D01*
X995783D01*
Y306704D01*
X994725Y305646D01*
X958216Y284589D02*
Y286705D01*
Y285647D01*
X964564D01*
Y284589D01*
Y286705D01*
X958216Y289879D02*
X964564D01*
Y293053D01*
X963506Y294111D01*
X962448D01*
X961390Y293053D01*
Y289879D01*
Y293053D01*
X960332Y294111D01*
X959274D01*
X958216Y293053D01*
Y289879D01*
Y296227D02*
X963506D01*
X964564Y297285D01*
Y299401D01*
X963506Y300459D01*
X958216D01*
X964564Y302575D02*
Y304691D01*
Y303633D01*
X958216D01*
X959274Y302575D01*
X919696Y172084D02*
X921812D01*
X920754D01*
Y165736D01*
X919696D01*
X921812D01*
X924986Y172084D02*
Y165736D01*
X928160D01*
X929218Y166794D01*
Y167852D01*
X928160Y168910D01*
X924986D01*
X928160D01*
X929218Y169968D01*
Y171026D01*
X928160Y172084D01*
X924986D01*
X931334Y165736D02*
Y172084D01*
X934508D01*
X935566Y171026D01*
Y168910D01*
X934508Y167852D01*
X931334D01*
X933450D02*
X935566Y165736D01*
X937682D02*
X939798D01*
X938740D01*
Y172084D01*
X937682Y171026D01*
X947204Y165736D02*
X942972D01*
X947204Y169968D01*
Y171026D01*
X946146Y172084D01*
X944030D01*
X942972Y171026D01*
X919484Y147954D02*
X921600D01*
X920542D01*
Y141606D01*
X919484D01*
X921600D01*
X924774Y147954D02*
Y141606D01*
X927948D01*
X929006Y142664D01*
Y143722D01*
X927948Y144780D01*
X924774D01*
X927948D01*
X929006Y145838D01*
Y146896D01*
X927948Y147954D01*
X924774D01*
X931122Y141606D02*
Y147954D01*
X934296D01*
X935354Y146896D01*
Y144780D01*
X934296Y143722D01*
X931122D01*
X933238D02*
X935354Y141606D01*
X937470D02*
X939586D01*
X938528D01*
Y147954D01*
X937470Y146896D01*
X942760Y141606D02*
X944876D01*
X943818D01*
Y147954D01*
X942760Y146896D01*
X919696Y306704D02*
X921812D01*
X920754D01*
Y300356D01*
X919696D01*
X921812D01*
X924986Y306704D02*
Y300356D01*
X928160D01*
X929218Y301414D01*
Y302472D01*
X928160Y303530D01*
X924986D01*
X928160D01*
X929218Y304588D01*
Y305646D01*
X928160Y306704D01*
X924986D01*
X931334Y300356D02*
Y306704D01*
X934508D01*
X935566Y305646D01*
Y303530D01*
X934508Y302472D01*
X931334D01*
X933450D02*
X935566Y300356D01*
X937682D02*
X939798D01*
X938740D01*
Y306704D01*
X937682Y305646D01*
X942972D02*
X944030Y306704D01*
X946146D01*
X947204Y305646D01*
Y301414D01*
X946146Y300356D01*
X944030D01*
X942972Y301414D01*
Y305646D01*
X871541Y172084D02*
X873657D01*
X872599D01*
Y165736D01*
X871541D01*
X873657D01*
X876831Y172084D02*
Y165736D01*
X880005D01*
X881063Y166794D01*
Y167852D01*
X880005Y168910D01*
X876831D01*
X880005D01*
X881063Y169968D01*
Y171026D01*
X880005Y172084D01*
X876831D01*
X883179Y165736D02*
Y172084D01*
X886353D01*
X887411Y171026D01*
Y168910D01*
X886353Y167852D01*
X883179D01*
X885295D02*
X887411Y165736D01*
X889527Y166794D02*
X890585Y165736D01*
X892701D01*
X893759Y166794D01*
Y171026D01*
X892701Y172084D01*
X890585D01*
X889527Y171026D01*
Y169968D01*
X890585Y168910D01*
X893759D01*
X871541Y147954D02*
X873657D01*
X872599D01*
Y141606D01*
X871541D01*
X873657D01*
X876831Y147954D02*
Y141606D01*
X880005D01*
X881063Y142664D01*
Y143722D01*
X880005Y144780D01*
X876831D01*
X880005D01*
X881063Y145838D01*
Y146896D01*
X880005Y147954D01*
X876831D01*
X883179Y141606D02*
Y147954D01*
X886353D01*
X887411Y146896D01*
Y144780D01*
X886353Y143722D01*
X883179D01*
X885295D02*
X887411Y141606D01*
X889527Y146896D02*
X890585Y147954D01*
X892701D01*
X893759Y146896D01*
Y145838D01*
X892701Y144780D01*
X893759Y143722D01*
Y142664D01*
X892701Y141606D01*
X890585D01*
X889527Y142664D01*
Y143722D01*
X890585Y144780D01*
X889527Y145838D01*
Y146896D01*
X890585Y144780D02*
X892701D01*
X871541Y306704D02*
X873657D01*
X872599D01*
Y300356D01*
X871541D01*
X873657D01*
X876831Y306704D02*
Y300356D01*
X880005D01*
X881063Y301414D01*
Y302472D01*
X880005Y303530D01*
X876831D01*
X880005D01*
X881063Y304588D01*
Y305646D01*
X880005Y306704D01*
X876831D01*
X883179Y300356D02*
Y306704D01*
X886353D01*
X887411Y305646D01*
Y303530D01*
X886353Y302472D01*
X883179D01*
X885295D02*
X887411Y300356D01*
X889527Y306704D02*
X893759D01*
Y305646D01*
X889527Y301414D01*
Y300356D01*
X820741Y172084D02*
X822857D01*
X821799D01*
Y165736D01*
X820741D01*
X822857D01*
X826031Y172084D02*
Y165736D01*
X829205D01*
X830263Y166794D01*
Y167852D01*
X829205Y168910D01*
X826031D01*
X829205D01*
X830263Y169968D01*
Y171026D01*
X829205Y172084D01*
X826031D01*
X832379Y165736D02*
Y172084D01*
X835553D01*
X836611Y171026D01*
Y168910D01*
X835553Y167852D01*
X832379D01*
X834495D02*
X836611Y165736D01*
X842959Y172084D02*
X840843Y171026D01*
X838727Y168910D01*
Y166794D01*
X839785Y165736D01*
X841901D01*
X842959Y166794D01*
Y167852D01*
X841901Y168910D01*
X838727D01*
X820741Y147954D02*
X822857D01*
X821799D01*
Y141606D01*
X820741D01*
X822857D01*
X826031Y147954D02*
Y141606D01*
X829205D01*
X830263Y142664D01*
Y143722D01*
X829205Y144780D01*
X826031D01*
X829205D01*
X830263Y145838D01*
Y146896D01*
X829205Y147954D01*
X826031D01*
X832379Y141606D02*
Y147954D01*
X835553D01*
X836611Y146896D01*
Y144780D01*
X835553Y143722D01*
X832379D01*
X834495D02*
X836611Y141606D01*
X842959Y147954D02*
X838727D01*
Y144780D01*
X840843Y145838D01*
X841901D01*
X842959Y144780D01*
Y142664D01*
X841901Y141606D01*
X839785D01*
X838727Y142664D01*
X820741Y306704D02*
X822857D01*
X821799D01*
Y300356D01*
X820741D01*
X822857D01*
X826031Y306704D02*
Y300356D01*
X829205D01*
X830263Y301414D01*
Y302472D01*
X829205Y303530D01*
X826031D01*
X829205D01*
X830263Y304588D01*
Y305646D01*
X829205Y306704D01*
X826031D01*
X832379Y300356D02*
Y306704D01*
X835553D01*
X836611Y305646D01*
Y303530D01*
X835553Y302472D01*
X832379D01*
X834495D02*
X836611Y300356D01*
X841901D02*
Y306704D01*
X838727Y303530D01*
X842959D01*
X771211Y172084D02*
X773327D01*
X772269D01*
Y165736D01*
X771211D01*
X773327D01*
X776501Y172084D02*
Y165736D01*
X779675D01*
X780733Y166794D01*
Y167852D01*
X779675Y168910D01*
X776501D01*
X779675D01*
X780733Y169968D01*
Y171026D01*
X779675Y172084D01*
X776501D01*
X782849Y165736D02*
Y172084D01*
X786023D01*
X787081Y171026D01*
Y168910D01*
X786023Y167852D01*
X782849D01*
X784965D02*
X787081Y165736D01*
X789197Y171026D02*
X790255Y172084D01*
X792371D01*
X793429Y171026D01*
Y169968D01*
X792371Y168910D01*
X791313D01*
X792371D01*
X793429Y167852D01*
Y166794D01*
X792371Y165736D01*
X790255D01*
X789197Y166794D01*
X771211Y147954D02*
X773327D01*
X772269D01*
Y141606D01*
X771211D01*
X773327D01*
X776501Y147954D02*
Y141606D01*
X779675D01*
X780733Y142664D01*
Y143722D01*
X779675Y144780D01*
X776501D01*
X779675D01*
X780733Y145838D01*
Y146896D01*
X779675Y147954D01*
X776501D01*
X782849Y141606D02*
Y147954D01*
X786023D01*
X787081Y146896D01*
Y144780D01*
X786023Y143722D01*
X782849D01*
X784965D02*
X787081Y141606D01*
X793429D02*
X789197D01*
X793429Y145838D01*
Y146896D01*
X792371Y147954D01*
X790255D01*
X789197Y146896D01*
X770999Y306704D02*
X773115D01*
X772057D01*
Y300356D01*
X770999D01*
X773115D01*
X776289Y306704D02*
Y300356D01*
X779463D01*
X780521Y301414D01*
Y302472D01*
X779463Y303530D01*
X776289D01*
X779463D01*
X780521Y304588D01*
Y305646D01*
X779463Y306704D01*
X776289D01*
X782637Y300356D02*
Y306704D01*
X785811D01*
X786869Y305646D01*
Y303530D01*
X785811Y302472D01*
X782637D01*
X784753D02*
X786869Y300356D01*
X788985D02*
X791101D01*
X790043D01*
Y306704D01*
X788985Y305646D01*
X752476Y284589D02*
Y286705D01*
Y285647D01*
X758824D01*
Y284589D01*
Y286705D01*
Y289879D02*
X754592D01*
X752476Y291995D01*
X754592Y294111D01*
X758824D01*
X755650D01*
Y289879D01*
X752476Y296227D02*
X757766D01*
X758824Y297285D01*
Y299401D01*
X757766Y300459D01*
X752476D01*
X758824Y302575D02*
Y304691D01*
Y303633D01*
X752476D01*
X753534Y302575D01*
X713956Y172084D02*
X716072D01*
X715014D01*
Y165736D01*
X713956D01*
X716072D01*
X719246D02*
Y169968D01*
X721362Y172084D01*
X723478Y169968D01*
Y165736D01*
Y168910D01*
X719246D01*
X725594Y165736D02*
Y172084D01*
X728768D01*
X729826Y171026D01*
Y168910D01*
X728768Y167852D01*
X725594D01*
X727710D02*
X729826Y165736D01*
X731942D02*
X734058D01*
X733000D01*
Y172084D01*
X731942Y171026D01*
X741464Y165736D02*
X737232D01*
X741464Y169968D01*
Y171026D01*
X740406Y172084D01*
X738290D01*
X737232Y171026D01*
X715014Y147954D02*
X717130D01*
X716072D01*
Y141606D01*
X715014D01*
X717130D01*
X720304D02*
Y145838D01*
X722420Y147954D01*
X724536Y145838D01*
Y141606D01*
Y144780D01*
X720304D01*
X726652Y141606D02*
Y147954D01*
X729826D01*
X730884Y146896D01*
Y144780D01*
X729826Y143722D01*
X726652D01*
X728768D02*
X730884Y141606D01*
X733000D02*
X735116D01*
X734058D01*
Y147954D01*
X733000Y146896D01*
X738290Y141606D02*
X740406D01*
X739348D01*
Y147954D01*
X738290Y146896D01*
X713956Y306704D02*
X716072D01*
X715014D01*
Y300356D01*
X713956D01*
X716072D01*
X719246D02*
Y304588D01*
X721362Y306704D01*
X723478Y304588D01*
Y300356D01*
Y303530D01*
X719246D01*
X725594Y300356D02*
Y306704D01*
X728768D01*
X729826Y305646D01*
Y303530D01*
X728768Y302472D01*
X725594D01*
X727710D02*
X729826Y300356D01*
X731942D02*
X734058D01*
X733000D01*
Y306704D01*
X731942Y305646D01*
X737232D02*
X738290Y306704D01*
X740406D01*
X741464Y305646D01*
Y301414D01*
X740406Y300356D01*
X738290D01*
X737232Y301414D01*
Y305646D01*
X669611Y172084D02*
X671727D01*
X670669D01*
Y165736D01*
X669611D01*
X671727D01*
X674901D02*
Y169968D01*
X677017Y172084D01*
X679133Y169968D01*
Y165736D01*
Y168910D01*
X674901D01*
X681249Y165736D02*
Y172084D01*
X684423D01*
X685481Y171026D01*
Y168910D01*
X684423Y167852D01*
X681249D01*
X683365D02*
X685481Y165736D01*
X687597Y166794D02*
X688655Y165736D01*
X690771D01*
X691829Y166794D01*
Y171026D01*
X690771Y172084D01*
X688655D01*
X687597Y171026D01*
Y169968D01*
X688655Y168910D01*
X691829D01*
X665801Y147954D02*
X667917D01*
X666859D01*
Y141606D01*
X665801D01*
X667917D01*
X671091D02*
Y145838D01*
X673207Y147954D01*
X675323Y145838D01*
Y141606D01*
Y144780D01*
X671091D01*
X677439Y141606D02*
Y147954D01*
X680613D01*
X681671Y146896D01*
Y144780D01*
X680613Y143722D01*
X677439D01*
X679555D02*
X681671Y141606D01*
X683787Y146896D02*
X684845Y147954D01*
X686961D01*
X688019Y146896D01*
Y145838D01*
X686961Y144780D01*
X688019Y143722D01*
Y142664D01*
X686961Y141606D01*
X684845D01*
X683787Y142664D01*
Y143722D01*
X684845Y144780D01*
X683787Y145838D01*
Y146896D01*
X684845Y144780D02*
X686961D01*
X667071Y306704D02*
X669187D01*
X668129D01*
Y300356D01*
X667071D01*
X669187D01*
X672361D02*
Y304588D01*
X674477Y306704D01*
X676593Y304588D01*
Y300356D01*
Y303530D01*
X672361D01*
X678709Y300356D02*
Y306704D01*
X681883D01*
X682941Y305646D01*
Y303530D01*
X681883Y302472D01*
X678709D01*
X680825D02*
X682941Y300356D01*
X685057Y306704D02*
X689289D01*
Y305646D01*
X685057Y301414D01*
Y300356D01*
X615001Y172084D02*
X617117D01*
X616059D01*
Y165736D01*
X615001D01*
X617117D01*
X620291D02*
Y169968D01*
X622407Y172084D01*
X624523Y169968D01*
Y165736D01*
Y168910D01*
X620291D01*
X626639Y165736D02*
Y172084D01*
X629813D01*
X630871Y171026D01*
Y168910D01*
X629813Y167852D01*
X626639D01*
X628755D02*
X630871Y165736D01*
X637219Y172084D02*
X635103Y171026D01*
X632987Y168910D01*
Y166794D01*
X634045Y165736D01*
X636161D01*
X637219Y166794D01*
Y167852D01*
X636161Y168910D01*
X632987D01*
X615001Y147954D02*
X617117D01*
X616059D01*
Y141606D01*
X615001D01*
X617117D01*
X620291D02*
Y145838D01*
X622407Y147954D01*
X624523Y145838D01*
Y141606D01*
Y144780D01*
X620291D01*
X626639Y141606D02*
Y147954D01*
X629813D01*
X630871Y146896D01*
Y144780D01*
X629813Y143722D01*
X626639D01*
X628755D02*
X630871Y141606D01*
X637219Y147954D02*
X632987D01*
Y144780D01*
X635103Y145838D01*
X636161D01*
X637219Y144780D01*
Y142664D01*
X636161Y141606D01*
X634045D01*
X632987Y142664D01*
X616271Y306704D02*
X618387D01*
X617329D01*
Y300356D01*
X616271D01*
X618387D01*
X621561D02*
Y304588D01*
X623677Y306704D01*
X625793Y304588D01*
Y300356D01*
Y303530D01*
X621561D01*
X627909Y300356D02*
Y306704D01*
X631083D01*
X632141Y305646D01*
Y303530D01*
X631083Y302472D01*
X627909D01*
X630025D02*
X632141Y300356D01*
X637431D02*
Y306704D01*
X634257Y303530D01*
X638489D01*
X566741Y172084D02*
X568857D01*
X567799D01*
Y165736D01*
X566741D01*
X568857D01*
X572031D02*
Y169968D01*
X574147Y172084D01*
X576263Y169968D01*
Y165736D01*
Y168910D01*
X572031D01*
X578379Y165736D02*
Y172084D01*
X581553D01*
X582611Y171026D01*
Y168910D01*
X581553Y167852D01*
X578379D01*
X580495D02*
X582611Y165736D01*
X584727Y171026D02*
X585785Y172084D01*
X587901D01*
X588959Y171026D01*
Y169968D01*
X587901Y168910D01*
X586843D01*
X587901D01*
X588959Y167852D01*
Y166794D01*
X587901Y165736D01*
X585785D01*
X584727Y166794D01*
X566741Y147954D02*
X568857D01*
X567799D01*
Y141606D01*
X566741D01*
X568857D01*
X572031D02*
Y145838D01*
X574147Y147954D01*
X576263Y145838D01*
Y141606D01*
Y144780D01*
X572031D01*
X578379Y141606D02*
Y147954D01*
X581553D01*
X582611Y146896D01*
Y144780D01*
X581553Y143722D01*
X578379D01*
X580495D02*
X582611Y141606D01*
X588959D02*
X584727D01*
X588959Y145838D01*
Y146896D01*
X587901Y147954D01*
X585785D01*
X584727Y146896D01*
X566529Y306704D02*
X568645D01*
X567587D01*
Y300356D01*
X566529D01*
X568645D01*
X571819D02*
Y304588D01*
X573935Y306704D01*
X576051Y304588D01*
Y300356D01*
Y303530D01*
X571819D01*
X578167Y300356D02*
Y306704D01*
X581341D01*
X582399Y305646D01*
Y303530D01*
X581341Y302472D01*
X578167D01*
X580283D02*
X582399Y300356D01*
X584515D02*
X586631D01*
X585573D01*
Y306704D01*
X584515Y305646D01*
X1350858Y320674D02*
Y314326D01*
X1354032D01*
X1355090Y315384D01*
Y319616D01*
X1354032Y320674D01*
X1350858D01*
X1357206Y314326D02*
X1359322D01*
X1358264D01*
Y320674D01*
X1357206Y319616D01*
X98004Y11006D02*
X96946Y12064D01*
X94830D01*
X93772Y11006D01*
Y6774D01*
X94830Y5716D01*
X96946D01*
X98004Y6774D01*
X103294Y12064D02*
X101178D01*
X100120Y11006D01*
Y6774D01*
X101178Y5716D01*
X103294D01*
X104352Y6774D01*
Y11006D01*
X103294Y12064D01*
X106468Y5716D02*
Y12064D01*
X110700Y5716D01*
Y12064D01*
X115990Y5716D02*
Y12064D01*
X112816Y8890D01*
X117048D01*
X1310854Y865716D02*
X1309796Y866774D01*
X1307680D01*
X1306622Y865716D01*
Y861484D01*
X1307680Y860426D01*
X1309796D01*
X1310854Y861484D01*
X1316144Y866774D02*
X1314028D01*
X1312970Y865716D01*
Y861484D01*
X1314028Y860426D01*
X1316144D01*
X1317202Y861484D01*
Y865716D01*
X1316144Y866774D01*
X1319318Y860426D02*
Y866774D01*
X1323550Y860426D01*
Y866774D01*
X1325666Y865716D02*
X1326724Y866774D01*
X1328840D01*
X1329898Y865716D01*
Y864658D01*
X1328840Y863600D01*
X1327782D01*
X1328840D01*
X1329898Y862542D01*
Y861484D01*
X1328840Y860426D01*
X1326724D01*
X1325666Y861484D01*
X1354034Y351366D02*
X1352976Y352424D01*
X1350860D01*
X1349802Y351366D01*
Y347134D01*
X1350860Y346076D01*
X1352976D01*
X1354034Y347134D01*
X1359324Y352424D02*
X1357208D01*
X1356150Y351366D01*
Y347134D01*
X1357208Y346076D01*
X1359324D01*
X1360382Y347134D01*
Y351366D01*
X1359324Y352424D01*
X1362498Y346076D02*
Y352424D01*
X1366730Y346076D01*
Y352424D01*
X1373078Y346076D02*
X1368846D01*
X1373078Y350308D01*
Y351366D01*
X1372020Y352424D01*
X1369904D01*
X1368846Y351366D01*
X652782Y9736D02*
X651724Y10794D01*
X649608D01*
X648550Y9736D01*
Y5504D01*
X649608Y4446D01*
X651724D01*
X652782Y5504D01*
X658072Y10794D02*
X655956D01*
X654898Y9736D01*
Y5504D01*
X655956Y4446D01*
X658072D01*
X659130Y5504D01*
Y9736D01*
X658072Y10794D01*
X661246Y4446D02*
Y10794D01*
X665478Y4446D01*
Y10794D01*
X667594Y4446D02*
X669710D01*
X668652D01*
Y10794D01*
X667594Y9736D01*
D16*
X493610Y67694D02*
X495092Y69175D01*
X498054D01*
X499535Y67694D01*
Y66213D01*
X498054Y64731D01*
X496573D01*
X498054D01*
X499535Y63250D01*
Y61769D01*
X498054Y60288D01*
X495092D01*
X493610Y61769D01*
X502498Y69175D02*
Y63250D01*
X505460Y60288D01*
X508422Y63250D01*
Y69175D01*
X511385Y67694D02*
X512866Y69175D01*
X515828D01*
X517309Y67694D01*
Y66213D01*
X515828Y64731D01*
X514347D01*
X515828D01*
X517309Y63250D01*
Y61769D01*
X515828Y60288D01*
X512866D01*
X511385Y61769D01*
X523454Y69175D02*
X529379D01*
X526416D01*
Y60288D01*
X532341Y69175D02*
X538266Y60288D01*
Y69175D02*
X532341Y60288D01*
X548854D02*
Y69175D01*
X553298D01*
X554779Y67694D01*
Y64731D01*
X553298Y63250D01*
X548854D01*
X551816D02*
X554779Y60288D01*
X557741Y69175D02*
X563666Y60288D01*
Y69175D02*
X557741Y60288D01*
X575735Y67694D02*
X574254Y69175D01*
X571292D01*
X569810Y67694D01*
Y61769D01*
X571292Y60288D01*
X574254D01*
X575735Y61769D01*
Y64731D01*
X572773D01*
X578698Y60288D02*
Y69175D01*
X584622Y60288D01*
Y69175D01*
X587585D02*
Y60288D01*
X592028D01*
X593509Y61769D01*
Y67694D01*
X592028Y69175D01*
X587585D01*
X204845Y67694D02*
X203364Y69175D01*
X200402D01*
X198920Y67694D01*
Y61769D01*
X200402Y60288D01*
X203364D01*
X204845Y61769D01*
Y64731D01*
X201883D01*
X207808Y60288D02*
Y69175D01*
X213732Y60288D01*
Y69175D01*
X216695D02*
Y60288D01*
X221138D01*
X222619Y61769D01*
Y67694D01*
X221138Y69175D01*
X216695D01*
X177964Y60288D02*
Y69175D01*
X182408D01*
X183889Y67694D01*
Y64731D01*
X182408Y63250D01*
X177964D01*
X180926D02*
X183889Y60288D01*
X186851Y69175D02*
X192776Y60288D01*
Y69175D02*
X186851Y60288D01*
X152564Y69175D02*
X158489D01*
X155526D01*
Y60288D01*
X161451Y69175D02*
X167376Y60288D01*
Y69175D02*
X161451Y60288D01*
D17*
X497840Y695960D02*
Y721352D01*
X510536D01*
X514768Y717120D01*
Y708656D01*
X510536Y704424D01*
X497840D01*
X523232Y700192D02*
X527464Y695960D01*
X535928D01*
X540160Y700192D01*
Y717120D01*
X535928Y721352D01*
X527464D01*
X523232Y717120D01*
Y712888D01*
X527464Y708656D01*
X540160D01*
X15240Y695960D02*
Y721352D01*
X27936D01*
X32168Y717120D01*
Y708656D01*
X27936Y704424D01*
X15240D01*
X40632Y717120D02*
X44864Y721352D01*
X53328D01*
X57560Y717120D01*
Y712888D01*
X53328Y708656D01*
X57560Y704424D01*
Y700192D01*
X53328Y695960D01*
X44864D01*
X40632Y700192D01*
Y704424D01*
X44864Y708656D01*
X40632Y712888D01*
Y717120D01*
X44864Y708656D02*
X53328D01*
M02*
