G04*
G04 #@! TF.GenerationSoftware,Altium Limited,Altium Designer,23.5.1 (21)*
G04*
G04 Layer_Color=16711935*
%FSLAX44Y44*%
%MOMM*%
G71*
G04*
G04 #@! TF.SameCoordinates,8DBBECA3-F22B-4787-8F39-2E3879C6619A*
G04*
G04*
G04 #@! TF.FilePolarity,Positive*
G04*
G01*
G75*
%ADD52C,0.1000*%
D52*
X90702Y837622D02*
X107702D01*
X90702Y828122D02*
X107702D01*
X90702D02*
Y837622D01*
X107702Y828122D02*
Y837622D01*
X127532D02*
X144532D01*
X127532Y828122D02*
X144532D01*
X127532D02*
Y837622D01*
X144532Y828122D02*
Y837622D01*
X91630Y772364D02*
X108630D01*
X91630Y762864D02*
X108630D01*
X91630D02*
Y772364D01*
X108630Y762864D02*
Y772364D01*
X127190Y762864D02*
X144190D01*
X127190Y772364D02*
X144190D01*
Y762864D02*
Y772364D01*
X127190Y762864D02*
Y772364D01*
X85130Y793634D02*
Y807634D01*
X115130Y793634D02*
Y807634D01*
X85130Y793634D02*
X115130D01*
X85130Y807634D02*
X115130D01*
X120690Y793634D02*
Y807634D01*
X150690Y793634D02*
Y807634D01*
X120690Y793634D02*
X150690D01*
X120690Y807634D02*
X150690D01*
X128318Y219552D02*
Y229052D01*
X145318Y219552D02*
Y229052D01*
X128318D02*
X145318D01*
X128318Y219552D02*
X145318D01*
X91488D02*
Y229052D01*
X108488Y219552D02*
Y229052D01*
X91488D02*
X108488D01*
X91488Y219552D02*
X108488D01*
X127390Y284810D02*
Y294310D01*
X144390Y284810D02*
Y294310D01*
X127390D02*
X144390D01*
X127390Y284810D02*
X144390D01*
X108830Y284810D02*
Y294310D01*
X91830Y284810D02*
Y294310D01*
Y284810D02*
X108830D01*
X91830Y294310D02*
X108830D01*
X120890Y249540D02*
X150890D01*
X120890Y263540D02*
X150890D01*
X120890Y249540D02*
Y263540D01*
X150890Y249540D02*
Y263540D01*
X85330Y249540D02*
X115330D01*
X85330Y263540D02*
X115330D01*
X85330Y249540D02*
Y263540D01*
X115330Y249540D02*
Y263540D01*
X424228Y627710D02*
Y637210D01*
X441228Y627710D02*
Y637210D01*
X424228D02*
X441228D01*
X424228Y627710D02*
X441228D01*
X387398D02*
Y637210D01*
X404398Y627710D02*
Y637210D01*
X387398D02*
X404398D01*
X387398Y627710D02*
X404398D01*
X423300Y692968D02*
Y702468D01*
X440300Y692968D02*
Y702468D01*
X423300D02*
X440300D01*
X423300Y692968D02*
X440300D01*
X404740Y692968D02*
Y702468D01*
X387740Y692968D02*
Y702468D01*
Y692968D02*
X404740D01*
X387740Y702468D02*
X404740D01*
X416800Y657698D02*
X446800D01*
X416800Y671698D02*
X446800D01*
X416800Y657698D02*
Y671698D01*
X446800Y657698D02*
Y671698D01*
X381240Y657698D02*
X411240D01*
X381240Y671698D02*
X411240D01*
X381240Y657698D02*
Y671698D01*
X411240Y657698D02*
Y671698D01*
X208670Y107010D02*
Y116510D01*
X225670Y107010D02*
Y116510D01*
X208670D02*
X225670D01*
X208670Y107010D02*
X225670D01*
X165490D02*
Y116510D01*
X182490Y107010D02*
Y116510D01*
X165490D02*
X182490D01*
X165490Y107010D02*
X182490D01*
X250580D02*
Y116510D01*
X267580Y107010D02*
Y116510D01*
X250580D02*
X267580D01*
X250580Y107010D02*
X267580D01*
X292490D02*
Y116510D01*
X309490Y107010D02*
Y116510D01*
X292490D02*
X309490D01*
X292490Y107010D02*
X309490D01*
X404740Y558348D02*
Y567848D01*
X387740Y558348D02*
Y567848D01*
Y558348D02*
X404740D01*
X387740Y567848D02*
X404740D01*
X423300Y558348D02*
Y567848D01*
X440300Y558348D02*
Y567848D01*
X423300D02*
X440300D01*
X423300Y558348D02*
X440300D01*
X107560Y335610D02*
Y345110D01*
X90560Y335610D02*
Y345110D01*
Y335610D02*
X107560D01*
X90560Y345110D02*
X107560D01*
Y199720D02*
Y209220D01*
X90560Y199720D02*
Y209220D01*
Y199720D02*
X107560D01*
X90560Y209220D02*
X107560D01*
X190110Y199720D02*
Y209220D01*
X173110Y199720D02*
Y209220D01*
Y199720D02*
X190110D01*
X173110Y209220D02*
X190110D01*
X323460Y472770D02*
Y482270D01*
X306460Y472770D02*
Y482270D01*
Y472770D02*
X323460D01*
X306460Y482270D02*
X323460D01*
X404740Y608660D02*
Y618160D01*
X387740Y608660D02*
Y618160D01*
Y608660D02*
X404740D01*
X387740Y618160D02*
X404740D01*
Y474040D02*
Y483540D01*
X387740Y474040D02*
Y483540D01*
Y474040D02*
X404740D01*
X387740Y483540D02*
X404740D01*
Y336880D02*
Y346380D01*
X387740Y336880D02*
Y346380D01*
Y336880D02*
X404740D01*
X387740Y346380D02*
X404740D01*
X145660Y606120D02*
Y615620D01*
X128660Y606120D02*
Y615620D01*
Y606120D02*
X145660D01*
X128660Y615620D02*
X145660D01*
X90560Y846150D02*
Y855650D01*
X107560Y846150D02*
Y855650D01*
X90560D02*
X107560D01*
X90560Y846150D02*
X107560D01*
X127390D02*
Y855650D01*
X144390Y846150D02*
Y855650D01*
X127390D02*
X144390D01*
X127390Y846150D02*
X144390D01*
X572818Y520370D02*
X589818D01*
X572818Y510870D02*
X589818D01*
X572818D02*
Y520370D01*
X589818Y510870D02*
Y520370D01*
X424570Y618160D02*
X441570D01*
X424570Y608660D02*
X441570D01*
X424570D02*
Y618160D01*
X441570Y608660D02*
Y618160D01*
X335670Y209220D02*
X352670D01*
X335670Y199720D02*
X352670D01*
X335670D02*
Y209220D01*
X352670Y199720D02*
Y209220D01*
X609600Y667080D02*
X626600D01*
X609600Y676580D02*
X626600D01*
Y667080D02*
Y676580D01*
X609600Y667080D02*
Y676580D01*
X572770Y667080D02*
X589770D01*
X572770Y676580D02*
X589770D01*
Y667080D02*
Y676580D01*
X572770Y667080D02*
Y676580D01*
X608672Y732338D02*
X625672D01*
X608672Y741838D02*
X625672D01*
Y732338D02*
Y741838D01*
X608672Y732338D02*
Y741838D01*
X573112Y741838D02*
X590112D01*
X573112Y732338D02*
X590112D01*
X573112D02*
Y741838D01*
X590112Y732338D02*
Y741838D01*
X632172Y697068D02*
Y711068D01*
X602172Y697068D02*
Y711068D01*
X632172D01*
X602172Y697068D02*
X632172D01*
X596612D02*
Y711068D01*
X566612Y697068D02*
Y711068D01*
X596612D01*
X566612Y697068D02*
X596612D01*
X1185300Y152730D02*
X1202300D01*
X1185300Y162230D02*
X1202300D01*
Y152730D02*
Y162230D01*
X1185300Y152730D02*
Y162230D01*
Y138100D02*
X1202300D01*
X1185300Y128600D02*
X1202300D01*
X1185300D02*
Y138100D01*
X1202300Y128600D02*
Y138100D01*
X77860Y89230D02*
X94860D01*
X77860Y98730D02*
X94860D01*
Y89230D02*
Y98730D01*
X77860Y89230D02*
Y98730D01*
X127390Y345110D02*
X144390D01*
X127390Y335610D02*
X144390D01*
X127390D02*
Y345110D01*
X144390Y335610D02*
Y345110D01*
X291220Y209220D02*
X308220D01*
X291220Y199720D02*
X308220D01*
X291220D02*
Y209220D01*
X308220Y199720D02*
Y209220D01*
X372500D02*
X389500D01*
X372500Y199720D02*
X389500D01*
X372500D02*
Y209220D01*
X389500Y199720D02*
Y209220D01*
X292490Y89230D02*
X309490D01*
X292490Y98730D02*
X309490D01*
Y89230D02*
Y98730D01*
X292490Y89230D02*
Y98730D01*
X91830Y481000D02*
X108830D01*
X91830Y471500D02*
X108830D01*
X91830D02*
Y481000D01*
X108830Y471500D02*
Y481000D01*
X250580Y89230D02*
X267580D01*
X250580Y98730D02*
X267580D01*
Y89230D02*
Y98730D01*
X250580Y89230D02*
Y98730D01*
X128660Y481000D02*
X145660D01*
X128660Y471500D02*
X145660D01*
X128660D02*
Y481000D01*
X145660Y471500D02*
Y481000D01*
X568080Y311480D02*
X585080D01*
X568080Y320980D02*
X585080D01*
Y311480D02*
Y320980D01*
X568080Y311480D02*
Y320980D01*
X208670Y89230D02*
X225670D01*
X208670Y98730D02*
X225670D01*
Y89230D02*
Y98730D01*
X208670Y89230D02*
Y98730D01*
X334400Y107010D02*
X351400D01*
X334400Y116510D02*
X351400D01*
Y107010D02*
Y116510D01*
X334400Y107010D02*
Y116510D01*
X572770Y653720D02*
X589770D01*
X572770Y644220D02*
X589770D01*
X572770D02*
Y653720D01*
X589770Y644220D02*
Y653720D01*
X122310Y89230D02*
X139310D01*
X122310Y98730D02*
X139310D01*
Y89230D02*
Y98730D01*
X122310Y89230D02*
Y98730D01*
X573160Y387020D02*
X590160D01*
X573160Y377520D02*
X590160D01*
X573160D02*
Y387020D01*
X590160Y377520D02*
Y387020D01*
X173110Y345110D02*
X190110D01*
X173110Y335610D02*
X190110D01*
X173110D02*
Y345110D01*
X190110Y335610D02*
Y345110D01*
X254390Y209220D02*
X271390D01*
X254390Y199720D02*
X271390D01*
X254390D02*
Y209220D01*
X271390Y199720D02*
Y209220D01*
X209940D02*
X226940D01*
X209940Y199720D02*
X226940D01*
X209940D02*
Y209220D01*
X226940Y199720D02*
Y209220D01*
X418220Y107010D02*
X435220D01*
X418220Y116510D02*
X435220D01*
Y107010D02*
Y116510D01*
X418220Y107010D02*
Y116510D01*
X91830Y615620D02*
X108830D01*
X91830Y606120D02*
X108830D01*
X91830D02*
Y615620D01*
X108830Y606120D02*
Y615620D01*
X77860Y107010D02*
X94860D01*
X77860Y116510D02*
X94860D01*
Y107010D02*
Y116510D01*
X77860Y107010D02*
Y116510D01*
X127390Y209220D02*
X144390D01*
X127390Y199720D02*
X144390D01*
X127390D02*
Y209220D01*
X144390Y199720D02*
Y209220D01*
X334400Y89230D02*
X351400D01*
X334400Y98730D02*
X351400D01*
Y89230D02*
Y98730D01*
X334400Y89230D02*
Y98730D01*
X424570Y346380D02*
X441570D01*
X424570Y336880D02*
X441570D01*
X424570D02*
Y346380D01*
X441570Y336880D02*
Y346380D01*
X209940Y345110D02*
X226940D01*
X209940Y335610D02*
X226940D01*
X209940D02*
Y345110D01*
X226940Y335610D02*
Y345110D01*
X165490Y89230D02*
X182490D01*
X165490Y98730D02*
X182490D01*
Y89230D02*
Y98730D01*
X165490Y89230D02*
Y98730D01*
X122310Y107010D02*
X139310D01*
X122310Y116510D02*
X139310D01*
Y107010D02*
Y116510D01*
X122310Y107010D02*
Y116510D01*
X329960Y523078D02*
Y537078D01*
X299960Y523078D02*
Y537078D01*
X329960D01*
X299960Y523078D02*
X329960D01*
X387398Y493090D02*
X404398D01*
X387398Y502590D02*
X404398D01*
Y493090D02*
Y502590D01*
X387398Y493090D02*
Y502590D01*
X632220Y564500D02*
Y578500D01*
X602220Y564500D02*
Y578500D01*
X632220D01*
X602220Y564500D02*
X632220D01*
X446800Y523078D02*
Y537078D01*
X416800Y523078D02*
Y537078D01*
X446800D01*
X416800Y523078D02*
X446800D01*
X573160Y609270D02*
X590160D01*
X573160Y599770D02*
X590160D01*
X573160D02*
Y609270D01*
X590160Y599770D02*
Y609270D01*
X609648Y534512D02*
X626648D01*
X609648Y544012D02*
X626648D01*
Y534512D02*
Y544012D01*
X609648Y534512D02*
Y544012D01*
X572818Y401162D02*
X589818D01*
X572818Y410662D02*
X589818D01*
Y401162D02*
Y410662D01*
X572818Y401162D02*
Y410662D01*
X608720Y599770D02*
X625720D01*
X608720Y609270D02*
X625720D01*
Y599770D02*
Y609270D01*
X608720Y599770D02*
Y609270D01*
X572818Y534512D02*
X589818D01*
X572818Y544012D02*
X589818D01*
Y534512D02*
Y544012D01*
X572818Y534512D02*
Y544012D01*
X424228Y493090D02*
X441228D01*
X424228Y502590D02*
X441228D01*
Y493090D02*
Y502590D01*
X424228Y493090D02*
Y502590D01*
X411240Y523078D02*
Y537078D01*
X381240Y523078D02*
Y537078D01*
X411240D01*
X381240Y523078D02*
X411240D01*
X632220Y431150D02*
Y445150D01*
X602220Y431150D02*
Y445150D01*
X632220D01*
X602220Y431150D02*
X632220D01*
X609648Y401162D02*
X626648D01*
X609648Y410662D02*
X626648D01*
Y401162D02*
Y410662D01*
X609648Y401162D02*
Y410662D01*
X573160Y475920D02*
X590160D01*
X573160Y466420D02*
X590160D01*
X573160D02*
Y475920D01*
X590160Y466420D02*
Y475920D01*
X596660Y564500D02*
Y578500D01*
X566660Y564500D02*
Y578500D01*
X596660D01*
X566660Y564500D02*
X596660D01*
X608720Y466420D02*
X625720D01*
X608720Y475920D02*
X625720D01*
Y466420D02*
Y475920D01*
X608720Y466420D02*
Y475920D01*
X1285630Y152730D02*
X1302630D01*
X1285630Y162230D02*
X1302630D01*
Y152730D02*
Y162230D01*
X1285630Y152730D02*
Y162230D01*
X1336430Y152730D02*
X1353430D01*
X1336430Y162230D02*
X1353430D01*
Y152730D02*
Y162230D01*
X1336430Y152730D02*
Y162230D01*
Y138100D02*
X1353430D01*
X1336430Y128600D02*
X1353430D01*
X1336430D02*
Y138100D01*
X1353430Y128600D02*
Y138100D01*
X1285630Y287350D02*
X1302630D01*
X1285630Y296850D02*
X1302630D01*
Y287350D02*
Y296850D01*
X1285630Y287350D02*
Y296850D01*
X359170Y249540D02*
Y263540D01*
X329170Y249540D02*
Y263540D01*
X359170D01*
X329170Y249540D02*
X359170D01*
X335670Y294310D02*
X352670D01*
X335670Y284810D02*
X352670D01*
X335670D02*
Y294310D01*
X352670Y284810D02*
Y294310D01*
X1234830Y138100D02*
X1251830D01*
X1234830Y128600D02*
X1251830D01*
X1234830D02*
Y138100D01*
X1251830Y128600D02*
Y138100D01*
X1234830Y287350D02*
X1251830D01*
X1234830Y296850D02*
X1251830D01*
Y287350D02*
Y296850D01*
X1234830Y287350D02*
Y296850D01*
X394730Y249540D02*
Y263540D01*
X364730Y249540D02*
Y263540D01*
X394730D01*
X364730Y249540D02*
X394730D01*
X1336430Y287350D02*
X1353430D01*
X1336430Y296850D02*
X1353430D01*
Y287350D02*
Y296850D01*
X1336430Y287350D02*
Y296850D01*
X1285630Y138100D02*
X1302630D01*
X1285630Y128600D02*
X1302630D01*
X1285630D02*
Y138100D01*
X1302630Y128600D02*
Y138100D01*
X1234830Y152730D02*
X1251830D01*
X1234830Y162230D02*
X1251830D01*
Y152730D02*
Y162230D01*
X1234830Y152730D02*
Y162230D01*
X128318Y625170D02*
X145318D01*
X128318Y634670D02*
X145318D01*
Y625170D02*
Y634670D01*
X128318Y625170D02*
Y634670D01*
X209598Y219552D02*
X226598D01*
X209598Y229052D02*
X226598D01*
Y219552D02*
Y229052D01*
X209598Y219552D02*
Y229052D01*
X446800Y386700D02*
Y400700D01*
X416800Y386700D02*
Y400700D01*
X446800D01*
X416800Y386700D02*
X446800D01*
X150890Y655158D02*
Y669158D01*
X120890Y655158D02*
Y669158D01*
X150890D01*
X120890Y655158D02*
X150890D01*
X313450Y249540D02*
Y263540D01*
X283450Y249540D02*
Y263540D01*
X313450D01*
X283450Y249540D02*
X313450D01*
X91488Y490550D02*
X108488D01*
X91488Y500050D02*
X108488D01*
Y490550D02*
Y500050D01*
X91488Y490550D02*
Y500050D01*
Y625170D02*
X108488D01*
X91488Y634670D02*
X108488D01*
Y625170D02*
Y634670D01*
X91488Y625170D02*
Y634670D01*
X173110Y294310D02*
X190110D01*
X173110Y284810D02*
X190110D01*
X173110D02*
Y294310D01*
X190110Y284810D02*
Y294310D01*
X91830Y565308D02*
X108830D01*
X91830Y555808D02*
X108830D01*
X91830D02*
Y565308D01*
X108830Y555808D02*
Y565308D01*
X91830Y699928D02*
X108830D01*
X91830Y690428D02*
X108830D01*
X91830D02*
Y699928D01*
X108830Y690428D02*
Y699928D01*
X115330Y655158D02*
Y669158D01*
X85330Y655158D02*
Y669158D01*
X115330D01*
X85330Y655158D02*
X115330D01*
X150890Y520538D02*
Y534538D01*
X120890Y520538D02*
Y534538D01*
X150890D01*
X120890Y520538D02*
X150890D01*
X335328Y219552D02*
X352328D01*
X335328Y229052D02*
X352328D01*
Y219552D02*
Y229052D01*
X335328Y219552D02*
Y229052D01*
X208670Y284810D02*
X225670D01*
X208670Y294310D02*
X225670D01*
Y284810D02*
Y294310D01*
X208670Y284810D02*
Y294310D01*
X423300Y421970D02*
X440300D01*
X423300Y431470D02*
X440300D01*
Y421970D02*
Y431470D01*
X423300Y421970D02*
Y431470D01*
X172768Y354660D02*
X189768D01*
X172768Y364160D02*
X189768D01*
Y354660D02*
Y364160D01*
X172768Y354660D02*
Y364160D01*
X91830Y429418D02*
X108830D01*
X91830Y419918D02*
X108830D01*
X91830D02*
Y429418D01*
X108830Y419918D02*
Y429418D01*
X128318Y354660D02*
X145318D01*
X128318Y364160D02*
X145318D01*
Y354660D02*
Y364160D01*
X128318Y354660D02*
Y364160D01*
X290878Y219552D02*
X307878D01*
X290878Y229052D02*
X307878D01*
Y219552D02*
Y229052D01*
X290878Y219552D02*
Y229052D01*
X232170Y384648D02*
Y398648D01*
X202170Y384648D02*
Y398648D01*
X232170D01*
X202170Y384648D02*
X232170D01*
X372158Y219552D02*
X389158D01*
X372158Y229052D02*
X389158D01*
Y219552D02*
Y229052D01*
X372158Y219552D02*
Y229052D01*
X172768Y219552D02*
X189768D01*
X172768Y229052D02*
X189768D01*
Y219552D02*
Y229052D01*
X172768Y219552D02*
Y229052D01*
X209598Y354660D02*
X226598D01*
X209598Y364160D02*
X226598D01*
Y354660D02*
Y364160D01*
X209598Y354660D02*
Y364160D01*
X196610Y249540D02*
Y263540D01*
X166610Y249540D02*
Y263540D01*
X196610D01*
X166610Y249540D02*
X196610D01*
X277890D02*
Y263540D01*
X247890Y249540D02*
Y263540D01*
X277890D01*
X247890Y249540D02*
X277890D01*
X127390Y690428D02*
X144390D01*
X127390Y699928D02*
X144390D01*
Y690428D02*
Y699928D01*
X127390Y690428D02*
Y699928D01*
Y555808D02*
X144390D01*
X127390Y565308D02*
X144390D01*
Y555808D02*
Y565308D01*
X127390Y555808D02*
Y565308D01*
X128318Y490550D02*
X145318D01*
X128318Y500050D02*
X145318D01*
Y490550D02*
Y500050D01*
X128318Y490550D02*
Y500050D01*
X387398Y356712D02*
X404398D01*
X387398Y366212D02*
X404398D01*
Y356712D02*
Y366212D01*
X387398Y356712D02*
Y366212D01*
X115330Y520538D02*
Y534538D01*
X85330Y520538D02*
Y534538D01*
X115330D01*
X85330Y520538D02*
X115330D01*
X173110Y429418D02*
X190110D01*
X173110Y419918D02*
X190110D01*
X173110D02*
Y429418D01*
X190110Y419918D02*
Y429418D01*
X424228Y356712D02*
X441228D01*
X424228Y366212D02*
X441228D01*
Y356712D02*
Y366212D01*
X424228Y356712D02*
Y366212D01*
X196610Y384648D02*
Y398648D01*
X166610Y384648D02*
Y398648D01*
X196610D01*
X166610Y384648D02*
X196610D01*
X254390Y294310D02*
X271390D01*
X254390Y284810D02*
X271390D01*
X254390D02*
Y294310D01*
X271390Y284810D02*
Y294310D01*
X254048Y219552D02*
X271048D01*
X254048Y229052D02*
X271048D01*
Y219552D02*
Y229052D01*
X254048Y219552D02*
Y229052D01*
X150890Y384648D02*
Y398648D01*
X120890Y384648D02*
Y398648D01*
X150890D01*
X120890Y384648D02*
X150890D01*
X289950Y284810D02*
X306950D01*
X289950Y294310D02*
X306950D01*
Y284810D02*
Y294310D01*
X289950Y284810D02*
Y294310D01*
X208670Y419918D02*
X225670D01*
X208670Y429418D02*
X225670D01*
Y419918D02*
Y429418D01*
X208670Y419918D02*
Y429418D01*
X371230Y284810D02*
X388230D01*
X371230Y294310D02*
X388230D01*
Y284810D02*
Y294310D01*
X371230Y284810D02*
Y294310D01*
X115330Y384648D02*
Y398648D01*
X85330Y384648D02*
Y398648D01*
X115330D01*
X85330Y384648D02*
X115330D01*
X411240Y386700D02*
Y400700D01*
X381240Y386700D02*
Y400700D01*
X411240D01*
X381240Y386700D02*
X411240D01*
X387740Y431470D02*
X404740D01*
X387740Y421970D02*
X404740D01*
X387740D02*
Y431470D01*
X404740Y421970D02*
Y431470D01*
X232170Y249540D02*
Y263540D01*
X202170Y249540D02*
Y263540D01*
X232170D01*
X202170Y249540D02*
X232170D01*
X127390Y419918D02*
X144390D01*
X127390Y429418D02*
X144390D01*
Y419918D02*
Y429418D01*
X127390Y419918D02*
Y429418D01*
X91488Y354660D02*
X108488D01*
X91488Y364160D02*
X108488D01*
Y354660D02*
Y364160D01*
X91488Y354660D02*
Y364160D01*
X596660Y431150D02*
Y445150D01*
X566660Y431150D02*
Y445150D01*
X596660D01*
X566660Y431150D02*
X596660D01*
X342020Y558348D02*
X359020D01*
X342020Y567848D02*
X359020D01*
Y558348D02*
Y567848D01*
X342020Y558348D02*
Y567848D01*
X342948Y493090D02*
X359948D01*
X342948Y502590D02*
X359948D01*
Y493090D02*
Y502590D01*
X342948Y493090D02*
Y502590D01*
X365520Y523078D02*
Y537078D01*
X335520Y523078D02*
Y537078D01*
X365520D01*
X335520Y523078D02*
X365520D01*
X306118Y493090D02*
X323118D01*
X306118Y502590D02*
X323118D01*
Y493090D02*
Y502590D01*
X306118Y493090D02*
Y502590D01*
X306460Y567848D02*
X323460D01*
X306460Y558348D02*
X323460D01*
X306460D02*
Y567848D01*
X323460Y558348D02*
Y567848D01*
X568080Y152730D02*
X585080D01*
X568080Y162230D02*
X585080D01*
Y152730D02*
Y162230D01*
X568080Y152730D02*
Y162230D01*
X1079890Y287350D02*
X1096890D01*
X1079890Y296850D02*
X1096890D01*
Y287350D02*
Y296850D01*
X1079890Y287350D02*
Y296850D01*
X617610Y152730D02*
X634610D01*
X617610Y162230D02*
X634610D01*
Y152730D02*
Y162230D01*
X617610Y152730D02*
Y162230D01*
X719210Y138100D02*
X736210D01*
X719210Y128600D02*
X736210D01*
X719210D02*
Y138100D01*
X736210Y128600D02*
Y138100D01*
X668410Y152730D02*
X685410D01*
X668410Y162230D02*
X685410D01*
Y152730D02*
Y162230D01*
X668410Y152730D02*
Y162230D01*
X924950Y138100D02*
X941950D01*
X924950Y128600D02*
X941950D01*
X924950D02*
Y138100D01*
X941950Y128600D02*
Y138100D01*
X772550D02*
X789550D01*
X772550Y128600D02*
X789550D01*
X772550D02*
Y138100D01*
X789550Y128600D02*
Y138100D01*
X924950Y287350D02*
X941950D01*
X924950Y296850D02*
X941950D01*
Y287350D02*
Y296850D01*
X924950Y287350D02*
Y296850D01*
X823350Y138100D02*
X840350D01*
X823350Y128600D02*
X840350D01*
X823350D02*
Y138100D01*
X840350Y128600D02*
Y138100D01*
X668410Y287350D02*
X685410D01*
X668410Y296850D02*
X685410D01*
Y287350D02*
Y296850D01*
X668410Y287350D02*
Y296850D01*
X1130690Y287350D02*
X1147690D01*
X1130690Y296850D02*
X1147690D01*
Y287350D02*
Y296850D01*
X1130690Y287350D02*
Y296850D01*
X1079890Y152730D02*
X1096890D01*
X1079890Y162230D02*
X1096890D01*
Y152730D02*
Y162230D01*
X1079890Y152730D02*
Y162230D01*
X719210Y287350D02*
X736210D01*
X719210Y296850D02*
X736210D01*
Y287350D02*
Y296850D01*
X719210Y287350D02*
Y296850D01*
X924950Y152730D02*
X941950D01*
X924950Y162230D02*
X941950D01*
Y152730D02*
Y162230D01*
X924950Y152730D02*
Y162230D01*
X568080Y287350D02*
X585080D01*
X568080Y296850D02*
X585080D01*
Y287350D02*
Y296850D01*
X568080Y287350D02*
Y296850D01*
X874150Y138100D02*
X891150D01*
X874150Y128600D02*
X891150D01*
X874150D02*
Y138100D01*
X891150Y128600D02*
Y138100D01*
X978290D02*
X995290D01*
X978290Y128600D02*
X995290D01*
X978290D02*
Y138100D01*
X995290Y128600D02*
Y138100D01*
X823350Y287350D02*
X840350D01*
X823350Y296850D02*
X840350D01*
Y287350D02*
Y296850D01*
X823350Y287350D02*
Y296850D01*
X617610Y287350D02*
X634610D01*
X617610Y296850D02*
X634610D01*
Y287350D02*
Y296850D01*
X617610Y287350D02*
Y296850D01*
Y138100D02*
X634610D01*
X617610Y128600D02*
X634610D01*
X617610D02*
Y138100D01*
X634610Y128600D02*
Y138100D01*
X978290Y287350D02*
X995290D01*
X978290Y296850D02*
X995290D01*
Y287350D02*
Y296850D01*
X978290Y287350D02*
Y296850D01*
X772550Y152730D02*
X789550D01*
X772550Y162230D02*
X789550D01*
Y152730D02*
Y162230D01*
X772550Y152730D02*
Y162230D01*
X874150Y152730D02*
X891150D01*
X874150Y162230D02*
X891150D01*
Y152730D02*
Y162230D01*
X874150Y152730D02*
Y162230D01*
X1029090Y138100D02*
X1046090D01*
X1029090Y128600D02*
X1046090D01*
X1029090D02*
Y138100D01*
X1046090Y128600D02*
Y138100D01*
X1079890D02*
X1096890D01*
X1079890Y128600D02*
X1096890D01*
X1079890D02*
Y138100D01*
X1096890Y128600D02*
Y138100D01*
X1130690D02*
X1147690D01*
X1130690Y128600D02*
X1147690D01*
X1130690D02*
Y138100D01*
X1147690Y128600D02*
Y138100D01*
X1029090Y287350D02*
X1046090D01*
X1029090Y296850D02*
X1046090D01*
Y287350D02*
Y296850D01*
X1029090Y287350D02*
Y296850D01*
X719210Y152730D02*
X736210D01*
X719210Y162230D02*
X736210D01*
Y152730D02*
Y162230D01*
X719210Y152730D02*
Y162230D01*
X568080Y138100D02*
X585080D01*
X568080Y128600D02*
X585080D01*
X568080D02*
Y138100D01*
X585080Y128600D02*
Y138100D01*
X772550Y287350D02*
X789550D01*
X772550Y296850D02*
X789550D01*
Y287350D02*
Y296850D01*
X772550Y287350D02*
Y296850D01*
X1130690Y152730D02*
X1147690D01*
X1130690Y162230D02*
X1147690D01*
Y152730D02*
Y162230D01*
X1130690Y152730D02*
Y162230D01*
X1185300Y287350D02*
X1202300D01*
X1185300Y296850D02*
X1202300D01*
Y287350D02*
Y296850D01*
X1185300Y287350D02*
Y296850D01*
X823350Y152730D02*
X840350D01*
X823350Y162230D02*
X840350D01*
Y152730D02*
Y162230D01*
X823350Y152730D02*
Y162230D01*
X1029090Y152730D02*
X1046090D01*
X1029090Y162230D02*
X1046090D01*
Y152730D02*
Y162230D01*
X1029090Y152730D02*
Y162230D01*
X978290Y152730D02*
X995290D01*
X978290Y162230D02*
X995290D01*
Y152730D02*
Y162230D01*
X978290Y152730D02*
Y162230D01*
X874150Y287350D02*
X891150D01*
X874150Y296850D02*
X891150D01*
Y287350D02*
Y296850D01*
X874150Y287350D02*
Y296850D01*
X668410Y138100D02*
X685410D01*
X668410Y128600D02*
X685410D01*
X668410D02*
Y138100D01*
X685410Y128600D02*
Y138100D01*
X609600Y653720D02*
X626600D01*
X609600Y644220D02*
X626600D01*
X609600D02*
Y653720D01*
X626600Y644220D02*
Y653720D01*
X609648Y520370D02*
X626648D01*
X609648Y510870D02*
X626648D01*
X609648D02*
Y520370D01*
X626648Y510870D02*
Y520370D01*
X343290Y482270D02*
X360290D01*
X343290Y472770D02*
X360290D01*
X343290D02*
Y482270D01*
X360290Y472770D02*
Y482270D01*
X424570Y483540D02*
X441570D01*
X424570Y474040D02*
X441570D01*
X424570D02*
Y483540D01*
X441570Y474040D02*
Y483540D01*
X609990Y387020D02*
X626990D01*
X609990Y377520D02*
X626990D01*
X609990D02*
Y387020D01*
X626990Y377520D02*
Y387020D01*
M02*
