M48
;Layer_Color=9474304
;FILE_FORMAT=4:4
METRIC,LZ
;TYPE=PLATED
T1F00S00C0.3000
T2F00S00C0.5000
T3F00S00C0.7000
T4F00S00C0.9000
T5F00S00C1.2000
T6F00S00C1.4000
T7F00S00C3.2000
%
T01
X0117475Y0027305
X01226058
X01276858
X01327658
X01319276Y00247142
X0109728Y0024638
X0108839
X01071118Y0027305
X01020318
X0096901
X0091313Y0013335
X0081153
X0070739
X0060579
X00552704Y001016
X00556008Y00089106
X00498788Y00080298
X0048641Y0008255
X0047625Y0006858
X0046736Y0005969
X00458724Y00051816
X0043942Y0005588
X00432242Y00046838
X0040894Y0004445
X0038862Y0002032
X0045339Y000254
X00446834Y00035354
X0043561Y0010033
X00438912Y00123444
X00438658Y00142494
X0043815Y0016256
X0043561Y0017272
X0045466Y0017653
Y002032
X0043561Y0021971
X0043815Y0026162
X0045593Y0024765
X0046736Y00254
X0047752Y0023876
X0049022Y0021971
X0048641Y0018415
X00487426Y00166116
X0048514Y0013208
X0048641Y0011811
X00405638Y00145288
X0039624Y001397
X0038608
X00404114Y00162814
X0038989Y0019431
X00379984Y00192278
X0036195Y0021209
X00380156Y0024754
X00388874Y00266446
X00409702Y00271018
X00362204
X0047879Y0027178
X0049149Y0026289
X0054483Y0022098
X0040132Y0009271
X0035052Y0008255
X00343408Y0012319
X0035179Y001524
X0030607Y0014351
X00302768Y00123444
X002921Y0012319
X0026758Y0013882
X00282956Y00156464
X00281178Y00192278
X0028067Y0021463
X0029972
X00298876Y0024754
X0031369Y0023622
X00310896Y00267462
X00333756Y00267716
X00344218Y00247162
X00262938
X00252984Y00268224
X00227838Y00267716
X00217596Y0024754
X00181658Y00247162
X00169418Y00267716
X00147066Y002667
X00136316Y0024754
X00100378Y00247162
X00088138Y00265684
X0006985Y002667
X0006096Y00254
X0007874Y0023495
X000762Y0019177
X0006477Y001905
X0006223Y0017145
X0007112Y0016383
X0008763Y0016891
X0007874Y001778
X001016Y0017907
X00119126Y00152654
X0013931Y0017106
X00160274Y00156464
X00170942Y00166878
X0018288Y0016764
X00172466Y00186944
X0018923Y0019304
X0022733
X00251968
X0022733Y0016764
X00216154Y00167132
X002032Y0014224
X0019558Y0013208
X0020955Y0012319
X0024892
X0022479Y0007366
X00194564Y00074168
X001651Y0007366
X0015494Y0006604
X0013931Y0005803
X0011938Y0008255
X0010922Y0009398
X0011176Y0010922
X0009144Y0012573
X0007747Y0012192
X0007239Y0013335
X0006096Y001524
X0001016
X00009906Y00177292
X0001016Y0008509
X00022888Y00094008
X0003556Y0010287
X00066664Y00094008
X0006477Y0007112
X0005588Y0007747
X0008763Y0006477
X0026758Y0005422
X0030949Y0006565
X0031623Y0004191
X00280416Y00268986
X00197612Y0026797
X00117094Y00267716
X0011811Y0028956
X0009906Y0030988
X0010033Y00349504
X0007874Y00344678
X0007112Y0034036
X000635Y0036068
X0009987Y0038227
X00135808Y00382648
X0016256Y0039751
X0018115Y0038227
X00217088Y00382648
X0023876Y0039751
X0024384Y0036576
X0025146Y0035814
X0023876Y003429
X0024003Y0033147
X0023241Y0032131
X0022479Y0032639
X0019939Y0034036
X0018161Y0030988
X0019939Y0028956
X0015621Y002921
X0015367Y0034417
X001143Y0043942
X0010922Y0046609
X000891Y0045827
X0007112Y004445
X0006731Y0047625
X00079756Y00487172
X00100378Y0051816
X00135808Y00518538
X0015621Y00508
X0015748Y0055626
X0019558Y005588
X0024384Y005461
X0025146Y0053721
Y004953
X0029337Y0048768
X0029464Y0046482
X0028067Y0044196
X003048Y0042545
X00324612Y00434848
X0034163Y00451612
X00343662Y00418592
X0033782Y00391414
X0032893Y0036449
X0032131Y0035814
X00334934Y00328006
X0030607Y003048
X0029083Y00305562
X0027686Y0037719
X0029083Y004064
X0033274Y0048641
X00315008Y005207
X00302768Y00543306
X00340614Y00550164
X00350692Y00521078
X0031369Y0058801
X00282722Y00585958
X0028321Y006096
X0027432Y0060198
X0029083Y0061976
X0029972Y0061849
X002286Y0061468
X0021971Y0062103
X0020955Y0062611
X001584Y00627895
X0015875Y0064516
X00136316Y00653158
X0011811Y0064135
X00118618Y00620268
X00123972Y00585958
X001016Y005842
X000891Y0057424
X00100378Y0065278
X0008001Y004064
X0003556
X0001016Y003048
X0007747Y002794
X0037719Y0030226
X0036703Y0031496
X0040513Y0029718
X0040132Y0028702
X0041402Y003048
X0042545Y0030861
X0043307Y0030353
X0044323Y0031623
X00447482Y00277688
X0047244Y0030226
X0048514Y0029972
X0049276Y00284988
X0054737Y00285242
X0055753Y002921
X00547624Y00317246
X00541782Y00356362
X00573024Y00356108
X0055753Y0037338
X0056007Y0038481
X0056134Y0039624
X0059055Y0039243
X00581454Y0042928
X0061663Y00428388
X00630174Y00447294
X00598424Y00449834
X0059563Y0048514
X0059817Y0051943
X00635Y0052197
X0063373Y0050165
X00640808Y0048768
X0067183Y0049911
X006604Y0051689
X0063881Y005461
X00617392Y00563008
X00581708Y00562884
X0059543Y0061829
X0058928Y0065786
X00668528Y00646176
X0066548Y0063246
X0065532Y0061341
X006477Y0060579
X00677418Y00591058
X00675132Y00559816
X0068707Y004191
X0064919Y0040618
X0065786Y0039497
X0064008Y0038735
X00705612Y00362204
X00708152Y00310388
X0069596Y002921
X0074676
X0064516
X0059563
Y0031623
X0054483Y0043053
X0054356Y004572
X0055118Y0050038
X0048387Y0050927
X00485394Y0047498
X0049149Y00468122
X0044958Y0047498
X0045085Y0043942
X0045974Y0044704
X0042164Y0045339
X0041275Y00475306
X00396288Y005207
X00385572Y00540766
X00366522Y0054102
X0036957Y0050927
X0036068Y004572
X00396288Y0038483
X00431718Y00385208
X00459994Y00389128
X00459232Y0037338
X0041275Y0033274
X0041402Y0053848
X00433496Y00521078
X00459232Y0054483
X0044958Y0061722
X0045466Y00642112
X0048387Y006477
X0049403Y006604
X00432226Y00655698
X00396288Y0065532
X0040513Y0062103
X0036449Y0063754
X0035687Y0064516
X0037338Y0059436
X0075587Y0059414
X0083461Y0059795
X0091335Y0060303
X0099209Y0060938
X0107083Y004879
Y003884
X0099209Y0038586
X0091335Y0038205
X0083461Y003757
X0075587Y0037316
X008001Y002921
X008509
X009017
X009525
X0100584
X0105664
X0110744
X0113069Y0030187
X0115824Y002921
X0121285
X0126238
X01251712Y00317754
X01317498Y0031115
X0131318Y002921
X01321054Y00287274
X0135343Y0030265
X01318514Y00375666
X01284986Y00407162
X0122831Y0040618
X0114957Y0039348
Y0061192
X0121412Y006223
X0063881Y007112
X00617344Y00695068
X0058166Y0069469
X0059563Y0075184
X0055626Y0075692
X0066167Y0075184
X00666496Y00739394
X00664972Y00767842
X0065532Y0077978
X006477Y007874
X0066675Y0085979
X0036576Y0078994
X0035687Y0077978
X0038481Y0075692
X0041021Y0071247
X00414274Y00675132
X0035306Y0086106
X0015494
X0011811Y008509
X000762Y0085725
X00099704Y00809634
X00135642Y00810012
X0014605Y0073152
X0007747
X0000762Y0086233
T02
X0136632Y0020594
Y0031897
T03
X00263645Y00328006
X0026416Y0046355
X001778
Y0057277
X0007493Y0057023
X0046863Y0059309
Y0063119
X0055626Y006223
Y0057785
T04
X0050546Y00042
X0053086
X0055626
X0058166
X0053086Y001143
X0050546
Y001397
X0053086
Y001651
X0050546
Y001905
X0053086
Y002159
X0050546
Y002413
X0053086
Y002667
X0050546
X0004826
X0002286
Y002413
X0004826
Y002159
X0002286
Y001905
X0004826
Y001651
X0002286
Y001397
X0004826
Y001143
X0002286
X0013457Y00042
X0015997
X0018537
X0021077
X0004826Y002921
X0002286
Y003175
Y003429
Y003683
Y003937
Y004191
Y004445
Y004699
Y004953
Y005207
Y005461
Y005715
Y005969
X0004826
Y006223
Y006477
X0002286
Y006223
X0004826Y005715
Y005461
Y005207
Y004953
Y004699
Y004445
Y004191
Y003937
Y003683
Y003429
Y003175
X0047371
Y003429
Y003683
Y003937
Y004191
Y004445
X0050546
Y004699
X0053086
Y004445
Y004191
X0050546
Y003937
Y003683
Y003429
X0053086
Y003175
Y002921
X0050546
Y003175
X0053086Y003683
Y003937
Y004953
X0050546
Y005207
Y005461
X0053086
Y005207
Y005715
X0050546
Y005969
X0053086
Y006223
X0050546
Y006477
X0053086
X0072263Y006539
X0072413Y005389
X0072263Y00508
Y00438
X0072413Y00323
X0067713
Y005389
X0075587
X0080287
X0083461
X0088161
X0091335
X0096035
X0099209
X0103909
X0107083
X0111783
X0111633Y00508
Y00438
X0103759
Y00508
X0095885
Y00438
X0088011
Y00508
X0080137
Y00438
X0080287Y00323
X0083461
X0088161
X0091335
X0096035
X0099209
X0103909
X0107083
X0111783
X0111633Y006539
X0103759
X0095885
X0088011
X0080137
X0075587Y00323
X0114957
X0119657
X0122831
X0127531
X0127381Y00438
Y00508
X0127531Y005389
X0122831
X0119657
X0119507Y00508
Y00438
X0114957Y005389
X0119507Y006539
X0127381
Y007239
X0119507
X0111633
X0103759
X0095885
X0088011
X0080137
X0072263
X0053086Y006731
X0050546
X0004826
X0002286
T05
X0115951Y000389
X0119761
X0123571
X0127381
Y000889
X0123571
X0119761
X0115951
X0112141
X0108331
X0104521
X0100711
X0096901
X0093091
X0089281
X0085471
X0081661
X0077851
Y000389
X0081661
X0085471
X0089281
X0093091
X0096901
X0100711
X0104521
X0108331
X0112141
X0074041
X0070231
Y000889
X0074041
X0115951Y0078232
X0119761
X0123571
X0127381
Y0083232
X0123571
X0119761
X0115951
X0112141
X0108331
X0104521
X0100711
X0096901
X0093091
X0089281
X0085471
X0081661
X0077851
Y0078232
X0081661
X0085471
X0089281
X0093091
X0096901
X0100711
X0104521
X0108331
X0112141
X0074041
X0070231
Y0083232
X0074041
T06
X0134112Y0038735
Y0043815
T07
X0134Y0004
X0063191
X0004
X0134Y0083
X0063191
X0004
M30
